<svg width="58" height="58" viewBox="0 0 58 58" fill="none" xmlns="http://www.w3.org/2000/svg">
<circle opacity="0.5" cx="29" cy="29" r="29" fill="#EFEDFF"/>
<path d="M35.54 30.14C38.465 31.13 41 32.75 41 35V42.5H17V35C17 32.75 19.535 31.13 22.475 30.14L23.405 32L23.75 32.75C21.5 33.44 19.85 34.43 19.85 35V39.65H26.18L27.5 32.045L26.09 29.225C27.02 29.12 27.995 29.045 29 29.045C30.005 29.045 30.98 29.12 31.91 29.225L30.5 32.045L31.82 39.65H38.15V35C38.15 34.43 36.5 33.44 34.25 32.75L34.595 32L35.54 30.14ZM29 18.5C27.35 18.5 26 19.85 26 21.5C26 23.15 27.35 24.5 29 24.5C30.65 24.5 32 23.15 32 21.5C32 19.85 30.65 18.5 29 18.5ZM29 27.5C25.685 27.5 23 24.815 23 21.5C23 18.185 25.685 15.5 29 15.5C32.315 15.5 35 18.185 35 21.5C35 24.815 32.315 27.5 29 27.5Z" fill="#8686C3"/>
</svg>
