<svg width="58" height="58" viewBox="0 0 58 58" fill="none" xmlns="http://www.w3.org/2000/svg">
<circle opacity="0.5" cx="29" cy="29" r="29" fill="#EFEDFF"/>
<path d="M24.5 32L33.5 23M25.25 23.75H25.265M32.75 31.25H32.765M39.5 42.5V18.5C39.5 17.7044 39.1839 16.9413 38.6213 16.3787C38.0587 15.8161 37.2956 15.5 36.5 15.5H21.5C20.7044 15.5 19.9413 15.8161 19.3787 16.3787C18.8161 16.9413 18.5 17.7044 18.5 18.5V42.5L23.75 39.5L29 42.5L34.25 39.5L39.5 42.5ZM26 23.75C26 23.9489 25.921 24.1397 25.7803 24.2803C25.6397 24.421 25.4489 24.5 25.25 24.5C25.0511 24.5 24.8603 24.421 24.7197 24.2803C24.579 24.1397 24.5 23.9489 24.5 23.75C24.5 23.5511 24.579 23.3603 24.7197 23.2197C24.8603 23.079 25.0511 23 25.25 23C25.4489 23 25.6397 23.079 25.7803 23.2197C25.921 23.3603 26 23.5511 26 23.75ZM33.5 31.25C33.5 31.4489 33.421 31.6397 33.2803 31.7803C33.1397 31.921 32.9489 32 32.75 32C32.5511 32 32.3603 31.921 32.2197 31.7803C32.079 31.6397 32 31.4489 32 31.25C32 31.0511 32.079 30.8603 32.2197 30.7197C32.3603 30.579 32.5511 30.5 32.75 30.5C32.9489 30.5 33.1397 30.579 33.2803 30.7197C33.421 30.8603 33.5 31.0511 33.5 31.25Z" stroke="#8686C3" stroke-width="2" stroke-linecap="round" stroke-linejoin="round"/>
</svg>
