<svg width="58" height="58" viewBox="0 0 58 58" fill="none" xmlns="http://www.w3.org/2000/svg">
<circle opacity="0.5" cx="29" cy="29" r="29" fill="#EFEDFF"/>
<path d="M30.1252 15.125V17.75H33.0877C33.6142 17.75 34.1287 17.909 34.5637 18.2045L37.1092 19.9355C37.1707 19.9775 37.2442 20 37.3192 20H43.4722C43.7706 20 44.0567 20.1185 44.2677 20.3295C44.4787 20.5405 44.5972 20.8266 44.5972 21.125C44.5972 21.4234 44.4787 21.7095 44.2677 21.9205C44.0567 22.1315 43.7706 22.25 43.4722 22.25H41.1052L46.1542 33.77C46.2555 34.0003 46.2766 34.2579 46.214 34.5016C46.1514 34.7453 46.0089 34.961 45.8092 35.114C45.6592 35.225 45.5047 35.3285 45.3442 35.423C44.9638 35.65 44.5678 35.85 44.1592 36.0215C42.8025 36.5889 41.3459 36.8791 39.8752 36.875C38.4052 36.8796 36.9491 36.5899 35.5927 36.023C35.1839 35.8515 34.7879 35.651 34.4077 35.423C34.2486 35.3309 34.0948 35.2297 33.9472 35.12L33.9397 35.114C33.74 34.961 33.5975 34.7453 33.5349 34.5016C33.4724 34.2579 33.4934 34.0003 33.5947 33.77L38.6467 22.25H37.3177C36.7912 22.25 36.2767 22.091 35.8417 21.7955L33.2962 20.0645C33.2344 20.0222 33.1611 19.9997 33.0862 20H30.1252V41.75H36.8557C37.1541 41.75 37.4402 41.8685 37.6512 42.0795C37.8622 42.2905 37.9807 42.5766 37.9807 42.875C37.9807 43.1734 37.8622 43.4595 37.6512 43.6705C37.4402 43.8815 37.1541 44 36.8557 44H21.1447C20.8464 44 20.5602 43.8815 20.3492 43.6705C20.1382 43.4595 20.0197 43.1734 20.0197 42.875C20.0197 42.5766 20.1382 42.2905 20.3492 42.0795C20.5602 41.8685 20.8464 41.75 21.1447 41.75H27.8752V20H24.9127C24.8378 20 24.7647 20.0224 24.7027 20.0645L22.1587 21.7955C21.7237 22.091 21.2092 22.25 20.6827 22.25H19.3537L24.4057 33.77C24.5035 33.9938 24.5258 34.2433 24.4692 34.4809C24.4127 34.7185 24.2804 34.9313 24.0922 35.087C23.9722 35.1845 23.8522 35.276 23.6272 35.4215C23.2479 35.6672 22.8508 35.8843 22.4392 36.071C21.0844 36.6865 19.6132 37.0036 18.1252 37.001C16.6372 37.0041 15.1658 36.687 13.8112 36.071C13.3997 35.8843 13.0026 35.6672 12.6232 35.4215C12.4628 35.3195 12.3081 35.2088 12.1597 35.09C11.9731 34.9325 11.8418 34.7194 11.7851 34.4818C11.7284 34.2443 11.7493 33.9948 11.8447 33.77L16.8952 22.25H14.5297C14.2314 22.25 13.9452 22.1315 13.7342 21.9205C13.5232 21.7095 13.4047 21.4234 13.4047 21.125C13.4047 20.8266 13.5232 20.5405 13.7342 20.3295C13.9452 20.1185 14.2314 20 14.5297 20H20.6827C20.7577 20 20.8312 19.9775 20.8942 19.9355L23.4367 18.2045C23.8717 17.9075 24.3877 17.75 24.9142 17.75H27.8752V15.125C27.8752 14.8266 27.9937 14.5405 28.2047 14.3295C28.4157 14.1185 28.7019 14 29.0002 14C29.2986 14 29.5847 14.1185 29.7957 14.3295C30.0067 14.5405 30.1252 14.8266 30.1252 15.125ZM14.2897 33.797C15.4703 34.4255 16.7878 34.7527 18.1252 34.7495C19.4627 34.7527 20.7802 34.4255 21.9607 33.797L18.1252 25.052L14.2897 33.797ZM36.0547 33.761C36.1777 33.821 36.3157 33.8855 36.4672 33.95C37.2622 34.2845 38.4247 34.625 39.8752 34.625C41.1976 34.6287 42.5036 34.3333 43.6957 33.761L39.8752 25.0505L36.0547 33.761Z" fill="#8686C3"/>
</svg>
