<svg width="36" height="36" viewBox="0 0 36 36" fill="none" xmlns="http://www.w3.org/2000/svg">
<path fill-rule="evenodd" clip-rule="evenodd" d="M33.2389 7.84127L31.4839 7.42728L26.7409 12.1433L24.0544 9.40728L28.6804 4.55402L28.2754 2.77202C27.2979 2.44499 26.2754 2.27192 25.2447 2.25902C24.1203 2.24173 23.0044 2.45619 21.9664 2.88903C20.9643 3.34265 20.0584 3.98423 19.2979 4.77903C18.4514 5.58095 17.7809 6.55024 17.3292 7.62527C16.4595 9.76476 16.4595 12.1593 17.3292 14.2988C12.6385 18.9135 8.00833 23.5894 3.43995 28.3253C2.96745 28.944 2.74245 29.7158 2.80095 30.492C2.84705 31.3269 3.22252 32.1094 3.84495 32.6678C4.12395 32.9715 4.45695 33.2235 4.8282 33.4058C5.2107 33.5745 5.62245 33.6713 6.0387 33.6915C6.7497 33.678 7.43145 33.408 7.9602 32.9333C11.4432 29.655 18.1167 22.9208 21.9079 18.9743C22.9362 19.4108 24.0409 19.6358 25.1569 19.6335C26.2803 19.6326 27.3921 19.4066 28.4267 18.9687C29.4612 18.5309 30.3975 17.8901 31.1802 17.0843C32.7879 15.4446 33.6859 13.2381 33.6799 10.9418C33.7059 9.89097 33.5569 8.84316 33.2389 7.84127ZM6.59895 31.338C6.51234 31.4149 6.40795 31.4691 6.2952 31.4955C6.18427 31.5147 6.07087 31.5147 5.95995 31.4955C5.84364 31.4778 5.73287 31.434 5.63595 31.3673C5.53194 31.3064 5.444 31.2215 5.37945 31.1198C5.06445 30.798 4.7697 30.186 5.06445 29.8418C8.14695 26.5635 14.4942 20.1555 18.4632 16.2383C18.6882 16.5353 18.9357 16.8188 19.2012 17.0843C19.4667 17.361 19.7524 17.6175 20.0562 17.8515C16.2177 21.789 9.95595 28.1205 6.59895 31.338ZM31.6144 10.9418C31.6189 12.663 30.9484 14.3168 29.7424 15.5498C28.539 16.7303 26.9204 17.3917 25.2346 17.3917C23.5487 17.3917 21.9302 16.7303 20.7267 15.5498C19.8447 14.6293 19.2421 13.4773 18.9892 12.2278C18.7363 10.9782 18.8433 9.68258 19.2979 8.49152C19.6006 7.68093 20.0699 6.94286 20.6757 6.32507C21.2815 5.70727 22.0102 5.22349 22.8147 4.90503C23.5786 4.58532 24.3986 4.42161 25.2267 4.42352H25.7982L21.7099 8.63777V10.2038L25.9737 14.4473H27.4587L31.6144 10.3613V10.9418ZM7.2897 15.048H10.7344L12.3207 16.6613L13.8462 15.1448L12.3499 13.6193V13.5225L12.4782 9.81227L11.9832 8.82903L5.5482 4.59453L4.21845 4.74303L2.3487 6.65328L2.2002 8.00103L6.3357 14.5665L7.2897 15.048ZM5.16345 6.87603L10.3699 10.305L10.2822 12.8318H7.8612L4.5042 7.51728L5.16345 6.87603ZM21.1497 22.536L22.6662 21.0218L29.6547 28.188C30.2433 28.8067 30.5716 29.6279 30.5716 30.4819C30.5716 31.3358 30.2433 32.1571 29.6547 32.7758C29.2121 33.2302 28.6429 33.5408 28.0213 33.6672C27.3997 33.7936 26.7544 33.73 26.1694 33.4845C25.7961 33.3189 25.4613 33.0776 25.1862 32.7758L18.1167 25.569L19.6444 24.0435L26.6914 31.23C26.7862 31.3345 26.9041 31.4154 27.0357 31.4663C27.2947 31.5715 27.5845 31.5715 27.8434 31.4663C27.975 31.4154 28.0929 31.3345 28.1877 31.23C28.2862 31.1325 28.3629 31.0151 28.4127 30.8858C28.4643 30.7538 28.4918 30.6135 28.4937 30.4718C28.4914 30.3303 28.4648 30.1902 28.4149 30.0578C28.3651 29.9284 28.2884 29.8111 28.1899 29.7135L21.1497 22.536Z" fill="#8686C3"/>
</svg>
