<svg width="36" height="36" viewBox="0 0 36 36" fill="none" xmlns="http://www.w3.org/2000/svg">
<path d="M30.375 11.25H23.625C22.7302 11.2509 21.8722 11.6068 21.2395 12.2395C20.6068 12.8722 20.2509 13.7302 20.25 14.625V21.375C20.2506 21.9716 20.4878 22.5435 20.9097 22.9653C21.3315 23.3872 21.9034 23.6244 22.5 23.625V31.5C22.5006 32.0966 22.7378 32.6685 23.1597 33.0903C23.5815 33.5122 24.1534 33.7494 24.75 33.75H29.25C29.8466 33.7494 30.4185 33.5122 30.8403 33.0903C31.2622 32.6685 31.4994 32.0966 31.5 31.5V23.625C32.0966 23.6244 32.6685 23.3872 33.0903 22.9653C33.5122 22.5435 33.7494 21.9716 33.75 21.375V14.625C33.7491 13.7302 33.3932 12.8722 32.7605 12.2395C32.1278 11.6068 31.2698 11.2509 30.375 11.25ZM31.5 21.375H29.25V31.5H24.75V21.375H22.5V14.625C22.5 14.3266 22.6185 14.0405 22.8295 13.8295C23.0405 13.6185 23.3266 13.5 23.625 13.5H30.375C30.6734 13.5 30.9595 13.6185 31.1705 13.8295C31.3815 14.0405 31.5 14.3266 31.5 14.625V21.375ZM22.5 5.625C22.5 4.73499 22.7639 3.86496 23.2584 3.12494C23.7529 2.38491 24.4557 1.80814 25.2779 1.46754C26.1002 1.12695 27.005 1.03783 27.8779 1.21147C28.7508 1.3851 29.5526 1.81369 30.182 2.44302C30.8113 3.07236 31.2399 3.87418 31.4135 4.7471C31.5872 5.62001 31.4981 6.52481 31.1575 7.34708C30.8169 8.16934 30.2401 8.87215 29.5001 9.36662C28.76 9.86108 27.89 10.125 27 10.125C25.8069 10.1238 24.663 9.64932 23.8193 8.80567C22.9757 7.96201 22.5012 6.81811 22.5 5.625ZM24.75 5.625C24.75 6.07001 24.882 6.50502 25.1292 6.87503C25.3764 7.24505 25.7278 7.53343 26.139 7.70373C26.5501 7.87403 27.0025 7.91859 27.439 7.83177C27.8754 7.74495 28.2763 7.53066 28.591 7.21599C28.9057 6.90132 29.12 6.50041 29.2068 6.06396C29.2936 5.6275 29.249 5.1751 29.0787 4.76396C28.9084 4.35283 28.62 4.00143 28.25 3.7542C27.88 3.50696 27.445 3.375 27 3.375C26.4034 3.3756 25.8315 3.61284 25.4097 4.03467C24.9878 4.4565 24.7506 5.02845 24.75 5.625ZM15.75 18V14.625C15.7491 13.7302 15.3932 12.8722 14.7605 12.2395C14.1278 11.6068 13.2698 11.2509 12.375 11.25H5.625C4.73017 11.2509 3.87224 11.6068 3.2395 12.2395C2.60676 12.8722 2.25089 13.7302 2.25 14.625V18H0V20.25H18V18H15.75ZM4.5 14.625C4.5 14.3266 4.61853 14.0405 4.8295 13.8295C5.04048 13.6185 5.32663 13.5 5.625 13.5H12.375C12.6734 13.5 12.9595 13.6185 13.1705 13.8295C13.3815 14.0405 13.5 14.3266 13.5 14.625V18H4.5V14.625ZM4.5 5.625C4.5 4.73499 4.76392 3.86496 5.25839 3.12494C5.75285 2.38491 6.45566 1.80814 7.27792 1.46754C8.10019 1.12695 9.00499 1.03783 9.87791 1.21147C10.7508 1.3851 11.5526 1.81369 12.182 2.44302C12.8113 3.07236 13.2399 3.87418 13.4135 4.7471C13.5872 5.62001 13.4981 6.52481 13.1575 7.34708C12.8169 8.16934 12.2401 8.87215 11.5001 9.36662C10.76 9.86108 9.89002 10.125 9 10.125C7.80689 10.1238 6.66299 9.64932 5.81933 8.80567C4.97568 7.96201 4.50119 6.81811 4.5 5.625ZM6.75 5.625C6.75 6.07001 6.88196 6.50502 7.12919 6.87503C7.37643 7.24505 7.72783 7.53343 8.13896 7.70373C8.5501 7.87403 9.0025 7.91859 9.43895 7.83177C9.87541 7.74495 10.2763 7.53066 10.591 7.21599C10.9057 6.90132 11.12 6.50041 11.2068 6.06396C11.2936 5.6275 11.249 5.1751 11.0787 4.76396C10.9084 4.35283 10.62 4.00143 10.25 3.7542C9.88002 3.50696 9.44501 3.375 9 3.375C8.40345 3.3756 7.8315 3.61284 7.40967 4.03467C6.98784 4.4565 6.7506 5.02845 6.75 5.625Z" fill="#8686C3"/>
</svg>
