<svg width="224" height="75" viewBox="0 0 224 75" fill="none" xmlns="http://www.w3.org/2000/svg">
<g clip-path="url(#clip0_1_865)">
<path d="M206.162 0.00024375H17.848C17.1616 0.00024375 16.4834 0.00024375 15.7988 0.00399375C15.2257 0.00774375 14.6572 0.0186375 14.0786 0.0278063C12.8217 0.0426221 11.5676 0.153387 10.3275 0.359138C9.08909 0.569367 7.88947 0.965711 6.76923 1.53476C5.65035 2.10863 4.628 2.85431 3.73927 3.74475C2.84586 4.63269 2.10115 5.65902 1.53375 6.78429C0.964781 7.90732 0.570259 9.11075 0.363805 10.353C0.155389 11.5937 0.043238 12.8487 0.0283594 14.1068C0.0109881 14.6816 0.00915362 15.2584 0 15.8334V59.1726C0.00915362 59.7548 0.0109881 60.3188 0.0283594 60.9012C0.0432426 62.1592 0.155393 63.4141 0.363805 64.6547C0.569689 65.8977 0.964235 67.1019 1.53375 68.2253C2.10089 69.3469 2.84571 70.3691 3.73927 71.2521C4.62463 72.1465 5.64764 72.8927 6.76923 73.4622C7.88947 74.0328 9.08895 74.4315 10.3275 74.6449C11.5679 74.849 12.8217 74.9598 14.0786 74.9764C14.6572 74.9892 15.2257 74.9965 15.7988 74.9965C16.4834 75.0002 17.1616 75.0002 17.848 75.0002H206.162C206.835 75.0002 207.518 75.0002 208.191 74.9965C208.762 74.9965 209.347 74.9892 209.917 74.9764C211.171 74.9607 212.423 74.8499 213.661 74.6449C214.903 74.43 216.107 74.0314 217.233 73.4622C218.353 72.8924 219.375 72.1462 220.26 71.2521C221.151 70.3657 221.898 69.3442 222.472 68.2253C223.037 67.101 223.428 65.897 223.631 64.6547C223.839 63.4139 223.956 62.1593 223.978 60.9012C223.985 60.3188 223.985 59.7548 223.985 59.1726C224 58.4914 224 57.814 224 57.1217V17.8805C224 17.1938 224 16.5127 223.985 15.8334C223.985 15.2584 223.985 14.6816 223.978 14.1067C223.956 12.8485 223.839 11.5938 223.631 10.3529C223.427 9.1114 223.036 7.90806 222.472 6.78422C221.316 4.52874 219.484 2.69279 217.233 1.53459C216.107 0.966933 214.903 0.570695 213.661 0.358969C212.423 0.152311 211.171 0.0415083 209.917 0.0275437C209.347 0.0183937 208.762 0.00740625 208.191 0.00375C207.518 0 206.835 0.00024375 206.162 0.00024375Z" fill="#A6A6A6"/>
<path d="M15.808 73.3594C15.2377 73.3594 14.6811 73.3521 14.1153 73.3393C12.9431 73.324 11.7736 73.2218 10.6164 73.0335C9.53743 72.8474 8.49218 72.5011 7.51515 72.0062C6.54708 71.5154 5.66412 70.8718 4.9001 70.1001C4.12502 69.3375 3.47973 68.453 2.9898 67.4816C2.49447 66.504 2.15168 65.4561 1.97335 64.3744C1.78078 63.2121 1.67659 62.0368 1.66168 60.8587C1.64981 60.4633 1.63428 59.1467 1.63428 59.1467V15.8331C1.63428 15.8331 1.65083 14.5367 1.66178 14.1559C1.67605 12.9797 1.77964 11.8062 1.97163 10.6457C2.15028 9.56109 2.49335 8.51015 2.98894 7.52931C3.47707 6.55864 4.11877 5.67349 4.88919 4.90815C5.65873 4.13554 6.54452 3.48863 7.51424 2.99102C8.48902 2.49768 9.53229 2.15387 10.6091 1.97113C11.77 1.78094 12.9436 1.67812 14.1199 1.66352L15.8089 1.64062H208.182L209.891 1.66444C211.057 1.67831 212.22 1.78022 213.37 1.96929C214.458 2.15433 215.512 2.50053 216.498 2.99651C218.441 3.99935 220.021 5.58593 221.019 7.53388C221.506 8.50796 221.844 9.55032 222.02 10.6256C222.215 11.7956 222.323 12.9783 222.346 14.1641C222.351 14.6951 222.351 15.2655 222.351 15.8331C222.366 16.5363 222.366 17.2055 222.366 17.8802V57.1215C222.366 57.8027 222.366 58.4674 222.351 59.1375C222.351 59.7473 222.351 60.3058 222.344 60.8807C222.322 62.0454 222.215 63.2069 222.024 64.356C221.849 65.4455 221.508 66.5016 221.013 67.4872C220.52 68.448 219.878 69.3249 219.112 70.0854C218.347 70.8613 217.463 71.5086 216.492 72.0026C215.509 72.5014 214.457 72.8489 213.37 73.0335C212.213 73.2228 211.043 73.325 209.871 73.3393C209.323 73.3521 208.749 73.3594 208.191 73.3594L206.162 73.3631L15.808 73.3594Z" fill="black"/>
<path d="M46.365 38.0639C46.3851 36.4989 46.8001 34.9644 47.5714 33.6032C48.3426 32.2421 49.4451 31.0984 50.7762 30.2787C49.9306 29.0691 48.8151 28.0735 47.5182 27.3713C46.2212 26.669 44.7787 26.2793 43.3051 26.2331C40.1618 25.9026 37.1144 28.1171 35.5126 28.1171C33.8798 28.1171 31.4135 26.2659 28.7578 26.3206C27.04 26.3762 25.3659 26.8766 23.8985 27.7729C22.4312 28.6693 21.2207 29.9311 20.3849 31.4354C16.7646 37.7137 19.465 46.9406 22.933 52.0155C24.668 54.5006 26.6958 57.2764 29.3492 57.178C31.9456 57.0701 32.9153 55.5196 36.0495 55.5196C39.1545 55.5196 40.0643 57.178 42.7715 57.1154C45.5576 57.0701 47.313 54.6193 48.9872 52.1108C50.2338 50.3401 51.1931 48.3831 51.8295 46.3123C50.2109 45.6266 48.8295 44.4787 47.8578 43.0119C46.886 41.5451 46.3669 39.8242 46.365 38.0639Z" fill="white"/>
<path d="M41.2516 22.8955C42.7707 21.0689 43.5191 18.721 43.3378 16.3506C41.017 16.5947 38.8732 17.7058 37.3336 19.4624C36.5808 20.3205 36.0042 21.3188 35.6369 22.4002C35.2695 23.4817 35.1186 24.625 35.1926 25.765C36.3535 25.7769 37.5019 25.5249 38.5514 25.0279C39.6009 24.5308 40.5242 23.8017 41.2516 22.8955Z" fill="white"/>
<path d="M79.1858 50.8869H70.3254L68.1975 57.1802H64.4446L72.8371 33.8965H76.7363L85.1288 57.1802H81.3118L79.1858 50.8869ZM71.243 47.9828H78.2664L74.8041 37.7692H74.7072L71.243 47.9828Z" fill="white"/>
<path d="M103.254 48.6935C103.254 53.9687 100.435 57.358 96.1812 57.358C95.1036 57.4145 94.0319 57.1658 93.0889 56.6406C92.1458 56.1153 91.3695 55.3347 90.8488 54.388H90.7683V62.7962H87.2896V40.2047H90.6568V43.0282H90.7208C91.2655 42.086 92.0549 41.3094 93.0051 40.781C93.9554 40.2525 95.0309 39.992 96.1172 40.0271C100.418 40.0271 103.254 43.4328 103.254 48.6935ZM99.6782 48.6935C99.6782 45.2566 97.905 42.997 95.1995 42.997C92.5415 42.997 90.7537 45.3042 90.7537 48.6935C90.7537 52.1139 92.5415 54.4045 95.1995 54.4045C97.905 54.4045 99.6782 52.1615 99.6782 48.6935Z" fill="white"/>
<path d="M121.907 48.6934C121.907 53.9687 119.088 57.358 114.834 57.358C113.757 57.4144 112.685 57.1658 111.742 56.6406C110.799 56.1153 110.023 55.3346 109.502 54.388H109.421V62.7962H105.943V40.2047H109.31V43.0281H109.374C109.918 42.086 110.708 41.3094 111.658 40.781C112.608 40.2525 113.684 39.992 114.77 40.0271C119.072 40.0271 121.907 43.4328 121.907 48.6934ZM118.331 48.6934C118.331 45.2566 116.558 42.997 113.853 42.997C111.195 42.997 109.407 45.3042 109.407 48.6934C109.407 52.1139 111.195 54.4045 113.853 54.4045C116.558 54.4045 118.331 52.1615 118.331 48.6934Z" fill="white"/>
<path d="M134.235 50.6928C134.493 53.0018 136.733 54.5178 139.793 54.5178C142.725 54.5178 144.834 53.0017 144.834 50.9198C144.834 49.1126 143.562 48.0304 140.549 47.2888L137.537 46.5619C133.268 45.5292 131.287 43.5297 131.287 40.285C131.287 36.2677 134.782 33.5083 139.745 33.5083C144.657 33.5083 148.024 36.2677 148.138 40.285H144.626C144.416 37.9614 142.498 36.5588 139.696 36.5588C136.893 36.5588 134.976 37.9779 134.976 40.0433C134.976 41.6895 136.2 42.6581 139.197 43.3996L141.758 44.0295C146.527 45.1593 148.509 47.0782 148.509 50.484C148.509 54.84 145.044 57.5683 139.535 57.5683C134.38 57.5683 130.899 54.9041 130.674 50.6927L134.235 50.6928Z" fill="white"/>
<path d="M156.016 36.1873V40.2046H159.239V42.964H156.016V52.3225C156.016 53.7764 156.662 54.4539 158.078 54.4539C158.461 54.4472 158.843 54.4203 159.223 54.3732V57.1162C158.586 57.2354 157.938 57.2894 157.29 57.2773C153.859 57.2773 152.521 55.9864 152.521 52.6942V42.964H150.057V40.2046H152.521V36.1873H156.016Z" fill="white"/>
<path d="M161.106 48.6934C161.106 43.3522 164.246 39.9958 169.144 39.9958C174.057 39.9958 177.183 43.3521 177.183 48.6934C177.183 54.0492 174.074 57.3909 169.144 57.3909C164.215 57.3909 161.106 54.0492 161.106 48.6934ZM173.639 48.6934C173.639 45.0294 171.962 42.8669 169.144 42.8669C166.325 42.8669 164.65 45.0459 164.65 48.6934C164.65 52.3719 166.325 54.5179 169.144 54.5179C171.962 54.5179 173.639 52.3719 173.639 48.6934Z" fill="white"/>
<path d="M180.051 40.2045H183.369V43.0939H183.45C183.674 42.1915 184.202 41.394 184.944 40.8354C185.687 40.2769 186.598 39.9914 187.526 40.0269C187.927 40.0255 188.327 40.0691 188.718 40.1569V43.4162C188.212 43.2613 187.684 43.1901 187.155 43.2056C186.65 43.1851 186.146 43.2743 185.678 43.4672C185.21 43.6601 184.79 43.9521 184.446 44.3232C184.101 44.6942 183.841 45.1355 183.683 45.6168C183.525 46.098 183.473 46.6079 183.53 47.1112V57.1802H180.051L180.051 40.2045Z" fill="white"/>
<path d="M204.757 52.1943C204.289 55.276 201.293 57.3909 197.46 57.3909C192.529 57.3909 189.469 54.0821 189.469 48.7739C189.469 43.4492 192.546 39.9958 197.313 39.9958C202.002 39.9958 204.951 43.2222 204.951 48.3693V49.5631H192.981V49.7737C192.926 50.3984 193.004 51.0278 193.21 51.62C193.416 52.2122 193.746 52.7537 194.177 53.2084C194.608 53.6632 195.131 54.0209 195.711 54.2577C196.291 54.4945 196.914 54.6051 197.54 54.582C198.362 54.6592 199.187 54.4685 199.892 54.0383C200.597 53.6081 201.145 52.9613 201.454 52.1943L204.757 52.1943ZM192.997 47.1278H201.47C201.502 46.5661 201.416 46.0039 201.221 45.4767C201.025 44.9494 200.722 44.4684 200.332 44.0638C199.941 43.6593 199.472 43.3399 198.952 43.1257C198.433 42.9116 197.875 42.8073 197.313 42.8193C196.747 42.8159 196.185 42.925 195.661 43.1401C195.137 43.3553 194.66 43.6723 194.259 44.0728C193.858 44.4734 193.54 44.9496 193.323 45.4739C193.107 45.9983 192.996 46.5604 192.997 47.1278Z" fill="white"/>
<path d="M70.8072 16.3706C71.5365 16.3182 72.2683 16.4285 72.9499 16.6937C73.6315 16.9589 74.2458 17.3723 74.7486 17.9041C75.2514 18.4359 75.63 19.0728 75.8573 19.769C76.0845 20.4651 76.1547 21.2031 76.0628 21.9297C76.0628 25.5039 74.1342 27.5584 70.8072 27.5584H66.7727V16.3706H70.8072ZM68.5075 25.9762H70.6134C71.1345 26.0074 71.6561 25.9218 72.14 25.7257C72.624 25.5295 73.0582 25.2278 73.411 24.8423C73.7639 24.4569 74.0265 23.9975 74.1797 23.4976C74.333 22.9977 74.373 22.4698 74.2969 21.9525C74.3675 21.4372 74.3234 20.9126 74.1678 20.4164C74.0122 19.9201 73.749 19.4645 73.3969 19.0821C73.0449 18.6997 72.6128 18.4001 72.1315 18.2047C71.6503 18.0092 71.1319 17.9228 70.6134 17.9516H68.5075V25.9762Z" fill="white"/>
<path d="M78.0225 23.3331C77.9695 22.7783 78.0328 22.2184 78.2085 21.6896C78.3842 21.1607 78.6682 20.6744 79.0425 20.2619C79.4168 19.8495 79.873 19.5199 80.3819 19.2944C80.8908 19.0689 81.4411 18.9524 81.9975 18.9524C82.554 18.9524 83.1043 19.0689 83.6132 19.2944C84.1221 19.5199 84.5783 19.8495 84.9525 20.2619C85.3268 20.6744 85.6109 21.1607 85.7866 21.6896C85.9622 22.2184 86.0256 22.7783 85.9726 23.3331C86.0266 23.8885 85.964 24.4491 85.7888 24.9788C85.6136 25.5086 85.3297 25.9957 84.9553 26.409C84.5809 26.8223 84.1244 27.1525 83.615 27.3785C83.1056 27.6045 82.5546 27.7213 81.9975 27.7213C81.4404 27.7213 80.8894 27.6045 80.3801 27.3785C79.8707 27.1525 79.4141 26.8223 79.0397 26.409C78.6654 25.9957 78.3815 25.5086 78.2063 24.9788C78.0311 24.4491 77.9685 23.8885 78.0225 23.3331ZM84.2615 23.3331C84.2615 21.503 83.4407 20.4327 82.0003 20.4327C80.5543 20.4327 79.7409 21.503 79.7409 23.3331C79.7409 25.1779 80.5544 26.2399 82.0003 26.2399C83.4408 26.2399 84.2615 25.1706 84.2615 23.3331Z" fill="white"/>
<path d="M96.5404 27.5582H94.8148L93.0727 21.34H92.941L91.2062 27.5582H89.497L87.1736 19.1152H88.8609L90.3708 25.5577H90.4951L92.2281 19.1152H93.824L95.557 25.5577H95.6886L97.1912 19.1152H98.8547L96.5404 27.5582Z" fill="white"/>
<path d="M100.809 19.1151H102.41V20.4564H102.535C102.745 19.9747 103.101 19.5708 103.552 19.3012C104.003 19.0316 104.526 18.9095 105.05 18.9522C105.46 18.9213 105.872 18.9832 106.255 19.1334C106.638 19.2836 106.982 19.5181 107.262 19.8197C107.543 20.1213 107.751 20.4822 107.873 20.8756C107.996 21.269 108.028 21.6849 107.967 22.0924V27.558H106.304V22.5108C106.304 21.154 105.715 20.4793 104.485 20.4793C104.207 20.4663 103.929 20.5138 103.67 20.6184C103.412 20.7231 103.179 20.8825 102.988 21.0858C102.797 21.289 102.652 21.5312 102.563 21.7958C102.474 22.0604 102.443 22.3412 102.472 22.6189V27.5581H100.809L100.809 19.1151Z" fill="white"/>
<path d="M110.618 15.8193H112.282V27.5582H110.618V15.8193Z" fill="white"/>
<path d="M114.594 23.333C114.541 22.7781 114.604 22.2183 114.78 21.6894C114.956 21.1605 115.24 20.6742 115.614 20.2617C115.989 19.8492 116.445 19.5197 116.954 19.2942C117.463 19.0686 118.013 18.9521 118.569 18.9521C119.126 18.9521 119.676 19.0686 120.185 19.2942C120.694 19.5197 121.15 19.8492 121.525 20.2617C121.899 20.6742 122.183 21.1605 122.359 21.6894C122.535 22.2183 122.598 22.7781 122.545 23.333C122.599 23.8885 122.536 24.4491 122.361 24.9788C122.186 25.5085 121.902 25.9957 121.527 26.4089C121.153 26.8222 120.696 27.1524 120.187 27.3784C119.678 27.6044 119.127 27.7212 118.569 27.7212C118.012 27.7212 117.461 27.6044 116.952 27.3784C116.443 27.1524 115.986 26.8222 115.612 26.4089C115.237 25.9957 114.953 25.5085 114.778 24.9788C114.603 24.4491 114.54 23.8885 114.594 23.333ZM120.833 23.333C120.833 21.5029 120.012 20.4326 118.572 20.4326C117.126 20.4326 116.312 21.5029 116.312 23.333C116.312 25.1778 117.126 26.2398 118.572 26.2398C120.012 26.2398 120.833 25.1705 120.833 23.333Z" fill="white"/>
<path d="M124.296 25.1706C124.296 23.6509 125.426 22.7747 127.431 22.6502L129.715 22.5184V21.7896C129.715 20.8979 129.126 20.3943 127.989 20.3943C127.06 20.3943 126.417 20.7358 126.232 21.3328H124.622C124.792 19.8826 126.154 18.9524 128.066 18.9524C130.179 18.9524 131.371 20.0061 131.371 21.7896V27.5583H129.77V26.3718H129.638C129.371 26.7974 128.996 27.1444 128.551 27.3773C128.106 27.6102 127.607 27.7207 127.106 27.6974C126.752 27.7343 126.395 27.6965 126.056 27.5864C125.718 27.4764 125.406 27.2965 125.142 27.0585C124.877 26.8204 124.665 26.5294 124.519 26.2042C124.374 25.8791 124.298 25.527 124.296 25.1706ZM129.715 24.4492V23.7433L127.656 23.8752C126.496 23.953 125.969 24.3485 125.969 25.0928C125.969 25.8527 126.627 26.2949 127.532 26.2949C127.797 26.3218 128.065 26.295 128.32 26.216C128.574 26.1371 128.81 26.0077 129.014 25.8355C129.218 25.6633 129.385 25.4518 129.505 25.2137C129.625 24.9755 129.697 24.7155 129.715 24.4492Z" fill="white"/>
<path d="M133.557 23.3331C133.557 20.6653 134.926 18.9752 137.056 18.9752C137.583 18.9509 138.106 19.0773 138.563 19.3396C139.021 19.6019 139.395 19.9892 139.641 20.4564H139.765V15.8193H141.429V27.5582H139.835V26.2243H139.703C139.438 26.6883 139.051 27.0709 138.585 27.3306C138.118 27.5902 137.589 27.7171 137.056 27.6974C134.912 27.6975 133.557 26.0074 133.557 23.3331ZM135.276 23.3331C135.276 25.1239 136.118 26.2015 137.528 26.2015C138.93 26.2015 139.796 25.1083 139.796 23.3404C139.796 21.5808 138.921 20.4721 137.528 20.4721C136.127 20.4721 135.276 21.557 135.276 23.3331Z" fill="white"/>
<path d="M148.311 23.3331C148.258 22.7783 148.322 22.2184 148.497 21.6896C148.673 21.1607 148.957 20.6744 149.331 20.2619C149.706 19.8495 150.162 19.5199 150.671 19.2944C151.18 19.0689 151.73 18.9524 152.286 18.9524C152.843 18.9524 153.393 19.0689 153.902 19.2944C154.411 19.5199 154.867 19.8495 155.241 20.2619C155.616 20.6744 155.9 21.1607 156.075 21.6896C156.251 22.2184 156.314 22.7783 156.261 23.3331C156.315 23.8885 156.253 24.4491 156.078 24.9788C155.902 25.5086 155.618 25.9957 155.244 26.409C154.87 26.8223 154.413 27.1525 153.904 27.3785C153.394 27.6045 152.843 27.7213 152.286 27.7213C151.729 27.7213 151.178 27.6045 150.669 27.3785C150.159 27.1525 149.703 26.8223 149.329 26.409C148.954 25.9957 148.67 25.5086 148.495 24.9788C148.32 24.4491 148.257 23.8885 148.311 23.3331ZM154.55 23.3331C154.55 21.503 153.73 20.4327 152.289 20.4327C150.843 20.4327 150.03 21.503 150.03 23.3331C150.03 25.1779 150.843 26.2399 152.289 26.2399C153.73 26.2399 154.55 25.1706 154.55 23.3331Z" fill="white"/>
<path d="M158.493 19.1151H160.095V20.4564H160.219C160.43 19.9747 160.786 19.5708 161.237 19.3012C161.687 19.0316 162.211 18.9095 162.734 18.9522C163.145 18.9213 163.556 18.9832 163.939 19.1334C164.322 19.2836 164.667 19.5181 164.947 19.8197C165.227 20.1213 165.436 20.4822 165.558 20.8756C165.68 21.269 165.712 21.6849 165.652 22.0924V27.558H163.988V22.5108C163.988 21.154 163.4 20.4793 162.17 20.4793C161.891 20.4663 161.613 20.5138 161.355 20.6184C161.096 20.7231 160.864 20.8825 160.672 21.0858C160.481 21.289 160.336 21.5312 160.247 21.7958C160.158 22.0604 160.127 22.3412 160.157 22.6189V27.5581H158.493V19.1151Z" fill="white"/>
<path d="M175.052 17.0132V19.1537H176.878V20.5572H175.052V24.8986C175.052 25.783 175.416 26.1703 176.244 26.1703C176.456 26.1696 176.667 26.1568 176.878 26.1318V27.5198C176.579 27.5733 176.277 27.6018 175.973 27.6049C174.123 27.6049 173.386 26.953 173.386 25.3252V20.5571H172.048V19.1536H173.386V17.0132H175.052Z" fill="white"/>
<path d="M179.15 15.8193H180.799V20.4721H180.931C181.152 19.9858 181.517 19.5797 181.977 19.3091C182.437 19.0384 182.969 18.9164 183.501 18.9596C183.909 18.9374 184.317 19.0056 184.695 19.1594C185.074 19.3133 185.414 19.5489 185.691 19.8495C185.969 20.1502 186.176 20.5084 186.299 20.8986C186.422 21.2889 186.458 21.7015 186.404 22.1072V27.5582H184.739V22.5182C184.739 21.1697 184.111 20.4867 182.936 20.4867C182.65 20.4632 182.363 20.5026 182.093 20.602C181.824 20.7015 181.58 20.8587 181.378 21.0626C181.176 21.2665 181.021 21.5121 180.923 21.7824C180.826 22.0526 180.788 22.341 180.814 22.6272V27.5582H179.15L179.15 15.8193Z" fill="white"/>
<path d="M196.103 25.2786C195.877 26.0502 195.388 26.7177 194.72 27.1642C194.052 27.6107 193.249 27.8079 192.451 27.7212C191.896 27.7359 191.344 27.6293 190.834 27.409C190.324 27.1886 189.867 26.8597 189.497 26.4451C189.126 26.0304 188.851 25.54 188.688 25.0078C188.526 24.4757 188.481 23.9145 188.557 23.3633C188.483 22.8104 188.529 22.248 188.691 21.7143C188.853 21.1805 189.127 20.6878 189.496 20.2695C189.864 19.8513 190.318 19.5172 190.827 19.2899C191.335 19.0627 191.887 18.9475 192.444 18.9523C194.789 18.9523 196.204 20.5573 196.204 23.2085V23.79H190.252V23.8833C190.226 24.1932 190.265 24.505 190.366 24.7989C190.467 25.0929 190.629 25.3623 190.84 25.59C191.051 25.8178 191.308 25.9987 191.593 26.1214C191.879 26.244 192.186 26.3055 192.497 26.3021C192.895 26.3499 193.298 26.2782 193.655 26.0959C194.012 25.9136 194.307 25.6291 194.502 25.2785L196.103 25.2786ZM190.252 22.5576H194.509C194.53 22.2743 194.492 21.9896 194.396 21.722C194.301 21.4545 194.151 21.2098 193.955 21.0038C193.76 20.7978 193.524 20.6351 193.262 20.526C193 20.4169 192.718 20.3639 192.434 20.3704C192.147 20.3668 191.861 20.4209 191.595 20.5296C191.328 20.6382 191.086 20.7992 190.883 21.003C190.679 21.2069 190.519 21.4495 190.41 21.7164C190.302 21.9834 190.248 22.2695 190.252 22.5576Z" fill="white"/>
</g>
<defs>
<clipPath id="clip0_1_865">
<rect width="224" height="75" fill="white"/>
</clipPath>
</defs>
</svg>
