<svg width="196" height="50" viewBox="0 0 196 50" fill="none" xmlns="http://www.w3.org/2000/svg">
<path d="M51.1052 16.4248H53.5203C53.6568 16.4248 53.7828 16.5099 53.8353 16.6376L59.4845 29.8624H59.537L65.2282 16.6376C65.2807 16.5099 65.4067 16.4248 65.5432 16.4248H67.8848C68.0738 16.4248 68.2313 16.5844 68.2313 16.7759V33.2138C68.2313 33.4053 68.0738 33.5649 67.8848 33.5649H66.5723C66.3833 33.5649 66.2258 33.4053 66.2258 33.2138V19.1911H66.1733L60.1985 33.3628C60.146 33.4904 60.02 33.5756 59.8835 33.5756H59.1275C58.991 33.5756 58.865 33.4904 58.8125 33.3628L52.8378 19.1911H52.7853V33.2245C52.7853 33.416 52.6278 33.5756 52.4388 33.5756H51.1262C50.9372 33.5756 50.7797 33.416 50.7797 33.2245V16.7759C50.7587 16.5844 50.9162 16.4248 51.1052 16.4248Z" fill="#8686C3"/>
<path d="M77.5557 16.4248H87.4996C87.6886 16.4248 87.8461 16.5844 87.8461 16.7759V17.9569C87.8461 18.1484 87.6886 18.308 87.4996 18.308H79.2253V23.6809H86.9326C87.1216 23.6809 87.2791 23.8405 87.2791 24.032V25.213C87.2791 25.4045 87.1216 25.5641 86.9326 25.5641H79.2253V31.6711H87.9301C88.1191 31.6711 88.2766 31.8307 88.2766 32.0222V33.2032C88.2766 33.3947 88.1191 33.5543 87.9301 33.5543H77.5557C77.3667 33.5543 77.2092 33.3947 77.2092 33.2032V16.7759C77.2092 16.5844 77.3667 16.4248 77.5557 16.4248Z" fill="#8686C3"/>
<path d="M101.885 16.4248H103.313C103.45 16.4248 103.576 16.5099 103.628 16.6376L110.527 33.0755C110.621 33.3096 110.453 33.5649 110.212 33.5649H108.626C108.49 33.5649 108.364 33.4798 108.301 33.3521L106.673 29.3517H98.2099L96.5508 33.3521C96.4983 33.4798 96.3723 33.5649 96.2358 33.5649H94.7343C94.4822 33.5649 94.3142 33.2989 94.4192 33.0755L101.57 16.6376C101.622 16.5099 101.748 16.4248 101.885 16.4248ZM102.568 19.0421H102.515L98.9974 27.4685H105.907L102.568 19.0421Z" fill="#8686C3"/>
<path d="M114.853 16.4248H116.376C116.523 16.4248 116.649 16.5206 116.701 16.6482L121.825 30.5114H121.878L127.17 16.6482C127.222 16.5099 127.348 16.4248 127.495 16.4248H128.871C129.112 16.4248 129.28 16.6695 129.196 16.9036L122.854 33.3415C122.802 33.4798 122.676 33.5649 122.529 33.5649H121.069C120.922 33.5649 120.796 33.4798 120.744 33.3415L114.538 16.9036C114.443 16.6802 114.611 16.4248 114.853 16.4248Z" fill="#8686C3"/>
<path d="M136.389 16.4248H137.702C137.891 16.4248 138.048 16.5844 138.048 16.7759V33.2138C138.048 33.4053 137.891 33.5649 137.702 33.5649H136.389C136.2 33.5649 136.043 33.4053 136.043 33.2138V16.7759C136.043 16.5844 136.2 16.4248 136.389 16.4248Z" fill="#8686C3"/>
<path d="M158.041 18.3187H152.801V33.2246C152.801 33.4161 152.644 33.5757 152.455 33.5757H151.142C150.953 33.5757 150.796 33.4161 150.796 33.2246V18.3187H145.556C145.367 18.3187 145.21 18.1591 145.21 17.9676V16.7866C145.21 16.5951 145.367 16.4355 145.556 16.4355H158.052C158.241 16.4355 158.398 16.5951 158.398 16.7866V17.9676C158.388 18.1591 158.23 18.3187 158.041 18.3187Z" fill="#8686C3"/>
<path d="M169.056 16.4248H170.484C170.62 16.4248 170.746 16.5099 170.799 16.6376L177.698 33.0755C177.792 33.3096 177.624 33.5649 177.383 33.5649H175.797C175.661 33.5649 175.535 33.4798 175.472 33.3521L173.844 29.3517H165.381L163.722 33.3521C163.669 33.4798 163.543 33.5649 163.407 33.5649H161.895C161.643 33.5649 161.475 33.2989 161.58 33.0755L168.73 16.6376C168.793 16.5099 168.919 16.4248 169.056 16.4248ZM169.738 19.0421H169.686L166.168 27.4685H173.078L169.738 19.0421Z" fill="#8686C3"/>
<path d="M185.279 16.4248H195.223C195.412 16.4248 195.57 16.5844 195.57 16.7759V17.9569C195.57 18.1484 195.412 18.308 195.223 18.308H186.949V23.6809H194.656C194.845 23.6809 195.002 23.8405 195.002 24.032V25.213C195.002 25.4045 194.845 25.5641 194.656 25.5641H186.949V31.6711H195.653C195.843 31.6711 196 31.8307 196 32.0222V33.2032C196 33.3947 195.843 33.5543 195.653 33.5543H185.279C185.09 33.5543 184.933 33.3947 184.933 33.2032V16.7759C184.933 16.5844 185.09 16.4248 185.279 16.4248Z" fill="#8686C3"/>
<path d="M40.2479 10.8921L23.3318 0.614427C21.9878 -0.204809 20.3182 -0.204809 18.9847 0.614427L2.05807 10.8921C0.787528 11.6688 0 13.0626 0 14.5627V35.4266C0 36.9268 0.777028 38.3312 2.05807 39.0972L18.9742 49.3856C20.3182 50.2048 21.9878 50.2048 23.3213 49.3856L40.2374 39.0972C41.508 38.3206 42.2955 36.9268 42.2955 35.4266V14.5734C42.306 13.0626 41.5185 11.6688 40.2479 10.8921ZM31.5641 20.4995C32.9922 22.3295 33.8427 24.6383 33.8427 27.1492C33.8427 33.0647 29.107 37.8631 23.2688 37.8631H20.5912H16.9266H13.262C13.997 36.5863 15.362 35.7245 16.9266 35.7245H17.6721C16.6746 34.8308 15.8766 33.6924 15.383 32.4157C14.8475 32.6923 14.291 32.9264 13.7135 33.1072C13.5035 35.0436 12.2749 36.6715 10.5739 37.4268C8.70481 36.597 7.40276 34.7138 7.40276 32.5114C7.40276 32.4689 7.40276 32.4157 7.40276 32.3731C7.41326 32.0646 7.45527 31.7773 7.51827 31.5113C7.09825 31.3305 6.95125 30.7772 7.24526 30.3942C7.96978 29.4579 9.06182 28.8408 10.3114 28.7557V28.4685C10.3114 28.3089 10.2379 28.1493 10.1119 28.0535L9.31383 27.4471C9.18783 27.3513 9.25083 27.1385 9.41884 27.1385H9.61834C9.72335 27.1385 9.83885 27.1704 9.92285 27.2449L10.5109 27.6918C10.7209 27.8514 10.8469 28.1067 10.8469 28.3727V28.7557C12.0334 28.8302 13.0835 29.3941 13.808 30.2559C14.165 30.075 14.501 29.8729 14.8265 29.6494C14.8265 29.5218 14.816 29.4047 14.816 29.2771C14.816 28.4259 14.942 27.6173 15.1625 26.8406C14.375 27.0321 13.5455 27.1385 12.695 27.1385C12.0334 27.1385 11.3824 27.0747 10.7629 26.9577C10.6474 26.3193 10.5844 25.6596 10.5844 24.9894C10.5844 21.489 12.2434 18.3716 14.816 16.414C14.8685 17.1375 14.984 17.8503 15.173 18.5312C15.7716 17.7333 16.4751 17.0204 17.2626 16.414C17.5461 20.4889 20.0767 23.9361 23.6048 25.4894V25.5001C25.7994 26.4363 27.364 28.5855 27.4795 31.1283C27.511 30.873 27.5215 30.607 27.5215 30.341C27.5215 27.7343 26.2194 25.4469 24.2349 24.0956C22.3868 22.9679 21.1478 20.9251 21.1478 18.5844C21.1478 15.0309 23.9934 12.1582 27.49 12.1582C28.33 12.1582 29.1385 12.3284 29.8736 12.6263C31.1021 13.1264 32.4357 13.403 33.8322 13.403C35.3338 13.403 36.7618 13.0838 38.0534 12.5093C37.9169 16.3927 35.1973 19.6271 31.5641 20.4995Z" fill="#8686C3"/>
</svg>
