<svg width="20" height="20" viewBox="0 0 20 20" fill="none" xmlns="http://www.w3.org/2000/svg">
<path d="M15.625 9.375H3.125C2.95924 9.375 2.80027 9.44085 2.68306 9.55806C2.56585 9.67527 2.5 9.83424 2.5 10C2.5 10.1658 2.56585 10.3247 2.68306 10.4419C2.80027 10.5592 2.95924 10.625 3.125 10.625H15.625C15.7908 10.625 15.9497 10.5592 16.0669 10.4419C16.1842 10.3247 16.25 10.1658 16.25 10C16.25 9.83424 16.1842 9.67527 16.0669 9.55806C15.9497 9.44085 15.7908 9.375 15.625 9.375Z" fill="white"/>
<path d="M15.3664 9.99981L10.1826 15.1823C10.0652 15.2997 9.99931 15.4588 9.99931 15.6248C9.99931 15.7908 10.0652 15.95 10.1826 16.0673C10.3 16.1847 10.4591 16.2506 10.6251 16.2506C10.7911 16.2506 10.9502 16.1847 11.0676 16.0673L16.6926 10.4423C16.7508 10.3843 16.797 10.3153 16.8285 10.2394C16.86 10.1634 16.8762 10.082 16.8762 9.99981C16.8762 9.9176 16.86 9.8362 16.8285 9.76027C16.797 9.68434 16.7508 9.61537 16.6926 9.55731L11.0676 3.93231C10.9502 3.81495 10.7911 3.74902 10.6251 3.74902C10.4591 3.74902 10.3 3.81495 10.1826 3.93231C10.0652 4.04967 9.99931 4.20884 9.99931 4.37481C9.99931 4.54078 10.0652 4.69995 10.1826 4.81731L15.3664 9.99981Z" fill="white"/>
</svg>
