<svg width="26" height="26" viewBox="0 0 26 26" fill="none" xmlns="http://www.w3.org/2000/svg">
<path fill-rule="evenodd" clip-rule="evenodd" d="M13.0562 1.354H12.9435C11.9696 1.354 11.1582 1.354 10.5147 1.44067C9.83434 1.53167 9.22009 1.73317 8.72717 2.22609C8.23317 2.72009 8.03167 3.33434 7.94067 4.01359C7.87892 4.47617 7.8605 5.58009 7.85617 6.52692C5.66567 6.5995 4.34942 6.85517 3.43617 7.7695C2.1665 9.03809 2.1665 11.0813 2.1665 15.1665C2.1665 19.2518 2.1665 21.2949 3.43617 22.5635C4.70475 23.8332 6.74792 23.8332 10.8332 23.8332H15.1665C19.2518 23.8332 21.2949 23.8332 22.5635 22.5635C23.8332 21.2949 23.8332 19.2518 23.8332 15.1665C23.8332 11.0813 23.8332 9.03809 22.5635 7.7695C21.6503 6.85517 20.334 6.5995 18.1435 6.528C18.1392 5.58009 18.1218 4.47617 18.059 4.01467C17.968 3.33434 17.7665 2.72009 17.2725 2.22717C16.7796 1.73317 16.1653 1.53167 15.485 1.44067C14.8415 1.354 14.029 1.354 13.0562 1.354ZM16.5185 6.502C16.5131 5.58442 16.4979 4.5975 16.4492 4.23025C16.3809 3.73084 16.265 3.51634 16.1242 3.3755C15.9833 3.23467 15.7688 3.11875 15.2683 3.0505C14.7462 2.98117 14.0442 2.979 12.9998 2.979C11.9555 2.979 11.2535 2.98117 10.7303 3.05159C10.2308 3.11875 10.0163 3.23467 9.8755 3.37659C9.73467 3.51742 9.61875 3.73084 9.5505 4.23025C9.50175 4.59859 9.4855 5.58442 9.48117 6.502C9.90475 6.49984 10.3565 6.49984 10.8332 6.49984H15.1665C15.6443 6.49984 16.0949 6.49984 16.5185 6.502ZM12.9998 10.0207C13.2153 10.0207 13.422 10.1063 13.5744 10.2586C13.7267 10.411 13.8123 10.6177 13.8123 10.8332V10.844C14.9921 11.1408 15.979 12.0714 15.979 13.3606C15.979 13.5761 15.8934 13.7827 15.741 13.9351C15.5887 14.0875 15.382 14.1731 15.1665 14.1731C14.951 14.1731 14.7444 14.0875 14.592 13.9351C14.4396 13.7827 14.354 13.5761 14.354 13.3606C14.354 12.9446 13.8925 12.3683 12.9998 12.3683C12.1072 12.3683 11.6457 12.9446 11.6457 13.3606C11.6457 13.7766 12.1072 14.354 12.9998 14.354C14.5003 14.354 15.979 15.394 15.979 16.9724C15.979 18.2616 14.9921 19.1911 13.8123 19.489V19.4998C13.8123 19.7153 13.7267 19.922 13.5744 20.0744C13.422 20.2267 13.2153 20.3123 12.9998 20.3123C12.7843 20.3123 12.5777 20.2267 12.4253 20.0744C12.2729 19.922 12.1873 19.7153 12.1873 19.4998V19.489C11.0076 19.1922 10.0207 18.2616 10.0207 16.9724C10.0207 16.7569 10.1063 16.5503 10.2586 16.3979C10.411 16.2455 10.6177 16.1599 10.8332 16.1599C11.0487 16.1599 11.2553 16.2455 11.4077 16.3979C11.5601 16.5503 11.6457 16.7569 11.6457 16.9724C11.6457 17.3884 12.1072 17.9648 12.9998 17.9648C13.8925 17.9648 14.354 17.3884 14.354 16.9724C14.354 16.5564 13.8925 15.979 12.9998 15.979C11.4994 15.979 10.0207 14.939 10.0207 13.3606C10.0207 12.0714 11.0076 11.1408 12.1873 10.844V10.8332C12.1873 10.6177 12.2729 10.411 12.4253 10.2586C12.5777 10.1063 12.7843 10.0207 12.9998 10.0207Z" fill="#8686C3"/>
</svg>
