<svg width="26" height="26" viewBox="0 0 26 26" fill="none" xmlns="http://www.w3.org/2000/svg">
<path d="M2.1665 8.6665V13.0009H3.24984V19.4998H2.1665V22.7498H19.4998L22.7498 22.7509L23.8332 22.7498V19.4998H22.7498V13.0009H23.8332V8.6665L12.9998 2.1665L2.1665 8.6665ZM6.49984 19.4998V13.0009H8.6665V19.4998H6.49984ZM11.9165 19.4998V13.0009H14.0832V19.4998H11.9165ZM19.4998 19.4998H17.3332V13.0009H19.4998V19.4998ZM15.1665 8.6665C15.1664 8.95111 15.1103 9.23291 15.0013 9.49582C14.8924 9.75873 14.7327 9.9976 14.5314 10.1988C14.3301 10.4 14.0911 10.5596 13.8281 10.6684C13.5652 10.7773 13.2834 10.8332 12.9988 10.8332C12.7142 10.8331 12.4324 10.777 12.1694 10.668C11.9065 10.559 11.6677 10.3993 11.4665 10.198C11.2653 9.99673 11.1057 9.75778 10.9968 9.49482C10.888 9.23185 10.832 8.95002 10.8321 8.66542C10.8322 8.09064 11.0607 7.53946 11.4672 7.13313C11.8738 6.7268 12.4251 6.49861 12.9998 6.49875C13.5746 6.4989 14.1258 6.72737 14.5321 7.1339C14.9385 7.54043 15.1666 8.09172 15.1665 8.6665Z" fill="#8686C3"/>
</svg>
