<svg width="26" height="26" viewBox="0 0 26 26" fill="none" xmlns="http://www.w3.org/2000/svg">
<path d="M13.0002 2.1665V8.6665C13.0002 9.24114 13.2284 9.79224 13.6348 10.1986C14.0411 10.6049 14.5922 10.8332 15.1668 10.8332H21.6668V21.6665C21.6668 22.2411 21.4386 22.7922 21.0322 23.1986C20.6259 23.6049 20.0748 23.8332 19.5002 23.8332H12.1227C13.2439 22.666 13.9289 21.1481 14.0623 19.5351C14.1956 17.9221 13.7693 16.3124 12.8549 14.9769C11.9406 13.6414 10.5941 12.6616 9.0421 12.2025C7.49007 11.7433 5.82725 11.8329 4.3335 12.456V4.33317C4.3335 3.75853 4.56177 3.20743 4.9681 2.80111C5.37443 2.39478 5.92553 2.1665 6.50016 2.1665H13.0002ZM14.6252 2.70817V8.6665C14.6252 8.81016 14.6822 8.94794 14.7838 9.04952C14.8854 9.1511 15.0232 9.20817 15.1668 9.20817H21.1252L14.6252 2.70817ZM13.0002 18.9582C13.0002 18.1757 12.846 17.4009 12.5466 16.678C12.2472 15.9551 11.8083 15.2983 11.255 14.745C10.7017 14.1917 10.0449 13.7528 9.32199 13.4534C8.59909 13.154 7.82429 12.9998 7.04183 12.9998C6.25937 12.9998 5.48457 13.154 4.76167 13.4534C4.03878 13.7528 3.38193 14.1917 2.82865 14.745C2.27537 15.2983 1.83648 15.9551 1.53705 16.678C1.23761 17.4009 1.0835 18.1757 1.0835 18.9582C1.0835 20.5384 1.71125 22.0539 2.82865 23.1714C3.94606 24.2888 5.46158 24.9165 7.04183 24.9165C8.62208 24.9165 10.1376 24.2888 11.255 23.1714C12.3724 22.0539 13.0002 20.5384 13.0002 18.9582ZM7.5835 19.4998L7.58458 22.2114C7.58458 22.3551 7.52751 22.4929 7.42593 22.5944C7.32435 22.696 7.18657 22.7531 7.04291 22.7531C6.89925 22.7531 6.76148 22.696 6.6599 22.5944C6.55831 22.4929 6.50125 22.3551 6.50125 22.2114V19.4998H3.7875C3.64384 19.4998 3.50606 19.4428 3.40448 19.3412C3.3029 19.2396 3.24583 19.1018 3.24583 18.9582C3.24583 18.8145 3.3029 18.6767 3.40448 18.5752C3.50606 18.4736 3.64384 18.4165 3.7875 18.4165H6.50016V15.7082C6.50016 15.5645 6.55723 15.4267 6.65881 15.3252C6.7604 15.2236 6.89817 15.1665 7.04183 15.1665C7.18549 15.1665 7.32326 15.2236 7.42485 15.3252C7.52643 15.4267 7.5835 15.5645 7.5835 15.7082V18.4165H10.2886C10.4322 18.4165 10.57 18.4736 10.6716 18.5752C10.7732 18.6767 10.8302 18.8145 10.8302 18.9582C10.8302 19.1018 10.7732 19.2396 10.6716 19.3412C10.57 19.4428 10.4322 19.4998 10.2886 19.4998H7.5835Z" fill="#8686C3"/>
</svg>
