<svg width="26" height="26" viewBox="0 0 26 26" fill="none" xmlns="http://www.w3.org/2000/svg">
<path d="M6.08283 21.6668C5.5845 21.6668 5.1685 21.5 4.83484 21.1663C4.50045 20.8319 4.33325 20.4156 4.33325 19.9172V6.08308C4.33325 5.58475 4.50045 5.16875 4.83484 4.83508C5.1685 4.50069 5.5845 4.3335 6.08283 4.3335H19.917C20.4153 4.3335 20.8313 4.50069 21.165 4.83508C21.4994 5.16875 21.6666 5.58475 21.6666 6.08308V19.9172C21.6666 20.4156 21.4998 20.8316 21.1661 21.1652C20.8317 21.4996 20.4153 21.6668 19.917 21.6668H6.08283ZM13.5416 12.0414L15.7083 10.7501L17.8749 12.0414V5.41683H13.5416V12.0414Z" fill="#8686C3"/>
</svg>
