<svg width="26" height="26" viewBox="0 0 26 26" fill="none" xmlns="http://www.w3.org/2000/svg">
<g clip-path="url(#clip0_79_239)">
<path d="M25.6898 22.2182C25.6898 22.7401 25.5076 23.1833 25.1432 23.5477L23.5625 25.1432C23.1784 25.5076 22.7303 25.6898 22.2182 25.6898C21.6962 25.6898 21.253 25.5076 20.8886 25.1432L15.5261 19.7659C15.1519 19.4113 14.9648 18.9682 14.9648 18.4363C14.9648 17.9144 15.1765 17.4416 15.6 17.0182L11.8182 13.2363L9.9568 15.0977C9.81892 15.2356 9.6515 15.3045 9.45453 15.3045C9.25756 15.3045 9.09013 15.2356 8.95226 15.0977C8.97195 15.1174 9.0335 15.1765 9.13691 15.275C9.24032 15.3735 9.30188 15.4375 9.32157 15.467C9.34127 15.4966 9.39051 15.5532 9.4693 15.6369C9.54809 15.7206 9.59733 15.7871 9.61703 15.8363C9.63672 15.8856 9.66627 15.9521 9.70566 16.0358C9.74506 16.1195 9.77214 16.2007 9.78691 16.2795C9.80169 16.3583 9.80907 16.447 9.80907 16.5454C9.80907 16.9197 9.67119 17.2545 9.39544 17.55C9.36589 17.5795 9.28464 17.6682 9.15169 17.8159C9.01873 17.9636 8.92517 18.0646 8.87101 18.1187C8.81684 18.1729 8.72574 18.2541 8.59771 18.3625C8.46968 18.4708 8.36135 18.5471 8.27271 18.5915C8.18407 18.6358 8.07574 18.6801 7.94771 18.7244C7.81968 18.7687 7.69165 18.7909 7.56362 18.7909C7.16968 18.7909 6.83483 18.653 6.55907 18.3773L0.5318 12.35C0.256043 12.0742 0.118164 11.7394 0.118164 11.3454C0.118164 11.2174 0.140323 11.0894 0.184641 10.9613C0.22896 10.8333 0.273278 10.725 0.317596 10.6363C0.361914 10.5477 0.43824 10.4394 0.546573 10.3113C0.654907 10.1833 0.736156 10.0922 0.790323 10.0381C0.84449 9.98388 0.945437 9.89032 1.09316 9.75737C1.24089 9.62441 1.32953 9.54316 1.35907 9.51362C1.65453 9.23786 1.98938 9.09998 2.36362 9.09998C2.4621 9.09998 2.55074 9.10737 2.62953 9.12214C2.70832 9.13691 2.78957 9.164 2.87328 9.20339C2.95699 9.24279 3.02347 9.27233 3.07271 9.29203C3.12195 9.31172 3.18843 9.36097 3.27214 9.43975C3.35585 9.51854 3.41248 9.56779 3.44203 9.58748C3.47157 9.60718 3.53559 9.66873 3.63407 9.77214C3.73256 9.87555 3.79165 9.9371 3.81135 9.9568C3.67347 9.81892 3.60453 9.6515 3.60453 9.45453C3.60453 9.25756 3.67347 9.09013 3.81135 8.95226L8.95226 3.81135C9.09013 3.67347 9.25756 3.60453 9.45453 3.60453C9.6515 3.60453 9.81892 3.67347 9.9568 3.81135C9.9371 3.79165 9.87555 3.73256 9.77214 3.63407C9.66873 3.53559 9.60718 3.47157 9.58748 3.44203C9.56779 3.41248 9.51854 3.35585 9.43975 3.27214C9.36097 3.18843 9.31172 3.12195 9.29203 3.07271C9.27233 3.02347 9.24279 2.95699 9.20339 2.87328C9.164 2.78957 9.13691 2.70832 9.12214 2.62953C9.10737 2.55074 9.09998 2.4621 9.09998 2.36362C9.09998 1.98938 9.23786 1.65453 9.51362 1.35907C9.54316 1.32953 9.62441 1.24089 9.75737 1.09316C9.89032 0.945437 9.98388 0.84449 10.0381 0.790323C10.0922 0.736156 10.1833 0.654907 10.3113 0.546573C10.4394 0.43824 10.5477 0.361914 10.6363 0.317596C10.725 0.273278 10.8333 0.22896 10.9613 0.184641C11.0894 0.140323 11.2174 0.118164 11.3454 0.118164C11.7394 0.118164 12.0742 0.256043 12.35 0.5318L18.3773 6.55907C18.653 6.83483 18.7909 7.16968 18.7909 7.56362C18.7909 7.69165 18.7687 7.81968 18.7244 7.94771C18.6801 8.07574 18.6358 8.18407 18.5915 8.27271C18.5471 8.36135 18.4708 8.46968 18.3625 8.59771C18.2541 8.72574 18.1729 8.81684 18.1187 8.87101C18.0646 8.92517 17.9636 9.01873 17.8159 9.15169C17.6682 9.28464 17.5795 9.36589 17.55 9.39544C17.2545 9.67119 16.9197 9.80907 16.5454 9.80907C16.447 9.80907 16.3583 9.80169 16.2795 9.78691C16.2007 9.77214 16.1195 9.74506 16.0358 9.70566C15.9521 9.66627 15.8856 9.63672 15.8363 9.61703C15.7871 9.59733 15.7206 9.54809 15.6369 9.4693C15.5532 9.39051 15.4966 9.34127 15.467 9.32157C15.4375 9.30188 15.3735 9.24032 15.275 9.13691C15.1765 9.0335 15.1174 8.97195 15.0977 8.95226C15.2356 9.09013 15.3045 9.25756 15.3045 9.45453C15.3045 9.6515 15.2356 9.81892 15.0977 9.9568L13.2363 11.8182L17.0182 15.6C17.4416 15.1765 17.9144 14.9648 18.4363 14.9648C18.9485 14.9648 19.3966 15.147 19.7807 15.5113L25.1432 20.8738C25.5076 21.2579 25.6898 21.706 25.6898 22.2182Z" fill="#8686C3"/>
</g>
<defs>
<clipPath id="clip0_79_239">
<rect width="26" height="26" fill="white"/>
</clipPath>
</defs>
</svg>
