<svg width="26" height="26" viewBox="0 0 26 26" fill="none" xmlns="http://www.w3.org/2000/svg">
<path d="M21.125 3.25H4.875C4.44402 3.25 4.0307 3.4212 3.72595 3.72595C3.4212 4.0307 3.25 4.44402 3.25 4.875V21.125C3.25 21.556 3.4212 21.9693 3.72595 22.274C4.0307 22.5788 4.44402 22.75 4.875 22.75H15.9138C16.1273 22.7503 16.3386 22.7084 16.5358 22.6267C16.7329 22.5449 16.9119 22.425 17.0625 22.2737L22.2737 17.0625C22.425 16.9119 22.5449 16.7329 22.6267 16.5358C22.7084 16.3386 22.7503 16.1273 22.75 15.9138V4.875C22.75 4.44402 22.5788 4.0307 22.274 3.72595C21.9693 3.4212 21.556 3.25 21.125 3.25ZM9.75 8.9375H16.25C16.4655 8.9375 16.6722 9.0231 16.8245 9.17548C16.9769 9.32785 17.0625 9.53451 17.0625 9.75C17.0625 9.96549 16.9769 10.1722 16.8245 10.3245C16.6722 10.4769 16.4655 10.5625 16.25 10.5625H9.75C9.53451 10.5625 9.32785 10.4769 9.17548 10.3245C9.0231 10.1722 8.9375 9.96549 8.9375 9.75C8.9375 9.53451 9.0231 9.32785 9.17548 9.17548C9.32785 9.0231 9.53451 8.9375 9.75 8.9375ZM13 17.0625H9.75C9.53451 17.0625 9.32785 16.9769 9.17548 16.8245C9.0231 16.6722 8.9375 16.4655 8.9375 16.25C8.9375 16.0345 9.0231 15.8278 9.17548 15.6755C9.32785 15.5231 9.53451 15.4375 9.75 15.4375H13C13.2155 15.4375 13.4222 15.5231 13.5745 15.6755C13.7269 15.8278 13.8125 16.0345 13.8125 16.25C13.8125 16.4655 13.7269 16.6722 13.5745 16.8245C13.4222 16.9769 13.2155 17.0625 13 17.0625ZM9.75 13.8125C9.53451 13.8125 9.32785 13.7269 9.17548 13.5745C9.0231 13.4222 8.9375 13.2155 8.9375 13C8.9375 12.7845 9.0231 12.5778 9.17548 12.4255C9.32785 12.2731 9.53451 12.1875 9.75 12.1875H16.25C16.4655 12.1875 16.6722 12.2731 16.8245 12.4255C16.9769 12.5778 17.0625 12.7845 17.0625 13C17.0625 13.2155 16.9769 13.4222 16.8245 13.5745C16.6722 13.7269 16.4655 13.8125 16.25 13.8125H9.75ZM16.25 20.7888V16.25H20.7898L16.25 20.7888Z" fill="#8686C3"/>
</svg>
