<svg width="26" height="26" viewBox="0 0 26 26" fill="none" xmlns="http://www.w3.org/2000/svg">
<g clip-path="url(#clip0_79_256)">
<path d="M22.2082 0C21.4899 0 20.801 0.285341 20.2931 0.793252C19.7852 1.30116 19.4998 1.99004 19.4998 2.70833V3.25C19.2125 3.25 18.937 3.36414 18.7338 3.5673C18.5306 3.77047 18.4165 4.04602 18.4165 4.33333V8.66667C18.4165 8.95399 18.5306 9.22954 18.7338 9.4327C18.937 9.63586 19.2125 9.75 19.4998 9.75H24.9165C25.2038 9.75 25.4794 9.63586 25.6825 9.4327C25.8857 9.22954 25.9998 8.95399 25.9998 8.66667V4.33333C25.9998 4.04602 25.8857 3.77047 25.6825 3.5673C25.4794 3.36414 25.2038 3.25 24.9165 3.25V2.70833C24.9165 1.99004 24.6312 1.30116 24.1233 0.793252C23.6153 0.285341 22.9265 0 22.2082 0ZM22.2082 1.08333C22.6391 1.08333 23.0525 1.25454 23.3572 1.55928C23.662 1.86403 23.8332 2.27736 23.8332 2.70833V3.25H20.5832V2.70833C20.5832 2.27736 20.7544 1.86403 21.0591 1.55928C21.3639 1.25454 21.7772 1.08333 22.2082 1.08333ZM4.33317 2.16667C3.75853 2.16667 3.20743 2.39494 2.80111 2.80127C2.39478 3.2076 2.1665 3.7587 2.1665 4.33333V23.8333L6.49984 19.5H21.6665C22.2411 19.5 22.7922 19.2717 23.1986 18.8654C23.6049 18.4591 23.8332 17.908 23.8332 17.3333V11.9167H18.4165C17.214 11.9167 16.2498 10.9525 16.2498 9.75V2.16667H4.33317ZM6.49984 6.5H14.0832V8.66667H6.49984V6.5ZM6.49984 9.75H14.0832V11.9167H6.49984V9.75ZM6.49984 13H15.1665V15.1667H6.49984V13Z" fill="#8686C3"/>
</g>
<defs>
<clipPath id="clip0_79_256">
<rect width="26" height="26" fill="white"/>
</clipPath>
</defs>
</svg>
