<svg width="58" height="58" viewBox="0 0 58 58" fill="none" xmlns="http://www.w3.org/2000/svg">
<circle opacity="0.5" cx="29" cy="29" r="29" fill="#EFEDFF"/>
<path d="M41.25 36.25V34.375C41.1523 33.5151 40.7416 32.7213 40.096 32.1449C39.4505 31.5686 38.6154 31.25 37.75 31.25C36.8846 31.25 36.0495 31.5686 35.404 32.1449C34.7584 32.7213 34.3477 33.5151 34.25 34.375V36.25C33.8608 36.2763 33.4944 36.4428 33.2186 36.7186C32.9428 36.9944 32.7763 37.3608 32.75 37.75V42.125C32.7517 42.5343 32.9066 42.9282 33.1842 43.229C33.4619 43.5297 33.8421 43.7156 34.25 43.75H41.125C41.5343 43.7483 41.9282 43.5934 42.229 43.3158C42.5297 43.0381 42.7156 42.6579 42.75 42.25V37.875C42.7483 37.4657 42.5934 37.0718 42.3158 36.771C42.0381 36.4703 41.6579 36.2844 41.25 36.25ZM35.875 34.375C35.8867 34.1435 35.945 33.9168 36.0466 33.7084C36.1481 33.5001 36.2908 33.3144 36.4659 33.1626C36.6411 33.0108 36.8451 32.896 37.0658 32.8251C37.2865 32.7542 37.5192 32.7286 37.75 32.75C37.9808 32.7286 38.2135 32.7542 38.4342 32.8251C38.6549 32.896 38.8589 33.0108 39.0341 33.1626C39.2092 33.3144 39.3519 33.5001 39.4534 33.7084C39.555 33.9168 39.6133 34.1435 39.625 34.375V36.25H35.875V34.375Z" fill="#8686C3"/>
<path d="M44 28.75V17.5C44 16.837 43.7366 16.2011 43.2678 15.7322C42.7989 15.2634 42.163 15 41.5 15H16.5C15.837 15 15.2011 15.2634 14.7322 15.7322C14.2634 16.2011 14 16.837 14 17.5V40C14 40.663 14.2634 41.2989 14.7322 41.7678C15.2011 42.2366 15.837 42.5 16.5 42.5H30.25V40H16.5V17.5H41.5V28.75" fill="#8686C3"/>
<path d="M21.5 20H19V22.5H21.5V20ZM39 20H24V22.5H39V20ZM30.25 35H24V37.5H30.25V35ZM21.5 35H19V37.5H21.5V35ZM26.5 25H24V27.5H26.5V25ZM39 25H29V27.5H39V25ZM32.51 30H29V32.5H31.75V31.875C31.7632 31.1776 32.0339 30.5097 32.51 30ZM26.5 30H24V32.5H26.5V30Z" fill="#8686C3"/>
</svg>
