<svg width="58" height="58" viewBox="0 0 58 58" fill="none" xmlns="http://www.w3.org/2000/svg">
<circle opacity="0.5" cx="29" cy="29" r="29" fill="#EFEDFF"/>
<path d="M24.0379 29.3976V22.2501C24.0379 21.9071 24.1544 21.6196 24.3874 21.3876C24.6194 21.1546 24.9069 21.0381 25.2499 21.0381H25.5949C25.8409 21.0381 26.0469 21.1211 26.2129 21.2871C26.3789 21.4531 26.4619 21.6586 26.4619 21.9036V29.3976L26.4169 29.3556C26.0919 29.0166 25.7029 28.8471 25.2499 28.8471C24.7959 28.8471 24.4064 29.0166 24.0814 29.3556L24.0379 29.3976ZM30.5569 32.7441V16.2501C30.5569 15.9071 30.6734 15.6196 30.9064 15.3876C31.1384 15.1546 31.4259 15.0381 31.7689 15.0381H32.1139C32.3599 15.0381 32.5659 15.1211 32.7319 15.2871C32.8979 15.4531 32.9809 15.6586 32.9809 15.9036V30.3216L30.5569 32.7441ZM17.4619 35.9571V28.2501C17.4619 27.9071 17.5779 27.6196 17.8099 27.3876C18.0419 27.1546 18.3294 27.0381 18.6724 27.0381H19.0189C19.2639 27.0381 19.4694 27.1211 19.6354 27.2871C19.8014 27.4531 19.8844 27.6586 19.8844 27.9036V33.5346L17.4619 35.9571ZM19.0894 41.8251C18.7544 41.8251 18.5229 41.6726 18.3949 41.3676C18.2669 41.0626 18.3249 40.7881 18.5689 40.5441L24.4309 34.6821C24.6479 34.4651 24.9154 34.3441 25.2334 34.3191C25.5524 34.2941 25.8349 34.3901 26.0809 34.6071L30.5569 38.4561L40.6879 28.3251H37.9999C37.7869 28.3251 37.6089 28.2531 37.4659 28.1091C37.3219 27.9651 37.2499 27.7866 37.2499 27.5736C37.2499 27.3606 37.3219 27.1826 37.4659 27.0396C37.6099 26.8966 37.7879 26.8251 37.9999 26.8251H42.0379C42.3819 26.8251 42.6699 26.9411 42.9019 27.1731C43.1339 27.4051 43.2499 27.6931 43.2499 28.0371V32.0751C43.2499 32.2881 43.1779 32.4661 43.0339 32.6091C42.8899 32.7531 42.7114 32.8251 42.4984 32.8251C42.2854 32.8251 42.1074 32.7531 41.9644 32.6091C41.8214 32.4661 41.7499 32.2881 41.7499 32.0751V29.3871L31.3939 39.7431C31.1769 39.9601 30.9094 40.0811 30.5914 40.1061C30.2724 40.1311 29.9899 40.0351 29.7439 39.8181L25.2679 35.9691L19.6309 41.6061C19.5659 41.6661 19.4854 41.7176 19.3894 41.7606C19.2934 41.8036 19.1934 41.8251 19.0894 41.8251Z" fill="#8686C3"/>
</svg>
