<svg width="58" height="58" viewBox="0 0 58 58" fill="none" xmlns="http://www.w3.org/2000/svg">
<circle opacity="0.5" cx="29" cy="29" r="29" fill="#EFEDFF"/>
<path d="M28.9999 44.0374C28.5999 44.0374 28.2184 43.9624 27.8554 43.8124C27.4924 43.6624 27.1614 43.4499 26.8624 43.1749L14.8249 31.1374C14.5499 30.8374 14.3374 30.5059 14.1874 30.1429C14.0374 29.7799 13.9624 29.3989 13.9624 28.9999C13.9624 28.5999 14.0374 28.2124 14.1874 27.8374C14.3374 27.4624 14.5499 27.1374 14.8249 26.8624L26.8624 14.8249C27.1624 14.5249 27.4939 14.3059 27.8569 14.1679C28.2199 14.0299 28.6009 13.9614 28.9999 13.9624C29.3999 13.9624 29.7874 14.0314 30.1624 14.1694C30.5374 14.3074 30.8624 14.5259 31.1374 14.8249L43.1749 26.8624C43.4749 27.1374 43.6939 27.4624 43.8319 27.8374C43.9699 28.2124 44.0384 28.5999 44.0374 28.9999C44.0374 29.3999 43.9689 29.7814 43.8319 30.1444C43.6949 30.5074 43.4759 30.8384 43.1749 31.1374L31.1374 43.1749C30.8624 43.4499 30.5374 43.6624 30.1624 43.8124C29.7874 43.9624 29.3999 44.0374 28.9999 44.0374ZM28.9999 41.0374L41.0374 28.9999L28.9999 16.9624L16.9624 28.9999L28.9999 41.0374ZM27.4999 30.4999H30.4999V21.4999H27.4999V30.4999ZM28.9999 34.9999C29.4249 34.9999 29.7814 34.8559 30.0694 34.5679C30.3574 34.2799 30.5009 33.9239 30.4999 33.4999C30.4999 33.0749 30.3559 32.7184 30.0679 32.4304C29.7799 32.1424 29.4239 31.9989 28.9999 31.9999C28.5749 31.9999 28.2184 32.1439 27.9304 32.4319C27.6424 32.7199 27.4989 33.0759 27.4999 33.4999C27.4999 33.9249 27.6439 34.2814 27.9319 34.5694C28.2199 34.8574 28.5759 35.0009 28.9999 34.9999Z" fill="#8686C3"/>
</svg>
