<svg width="58" height="58" viewBox="0 0 58 58" fill="none" xmlns="http://www.w3.org/2000/svg">
<circle opacity="0.5" cx="29" cy="29" r="29" fill="#EFEDFF"/>
<path d="M41.375 22.25H34.625C33.7302 22.2509 32.8722 22.6068 32.2395 23.2395C31.6068 23.8722 31.2509 24.7302 31.25 25.625V32.375C31.2506 32.9716 31.4878 33.5435 31.9097 33.9653C32.3315 34.3872 32.9034 34.6244 33.5 34.625V42.5C33.5006 43.0966 33.7378 43.6685 34.1597 44.0903C34.5815 44.5122 35.1534 44.7494 35.75 44.75H40.25C40.8466 44.7494 41.4185 44.5122 41.8403 44.0903C42.2622 43.6685 42.4994 43.0966 42.5 42.5V34.625C43.0966 34.6244 43.6685 34.3872 44.0903 33.9653C44.5122 33.5435 44.7494 32.9716 44.75 32.375V25.625C44.7491 24.7302 44.3932 23.8722 43.7605 23.2395C43.1278 22.6068 42.2698 22.2509 41.375 22.25ZM42.5 32.375H40.25V42.5H35.75V32.375H33.5V25.625C33.5 25.3266 33.6185 25.0405 33.8295 24.8295C34.0405 24.6185 34.3266 24.5 34.625 24.5H41.375C41.6734 24.5 41.9595 24.6185 42.1705 24.8295C42.3815 25.0405 42.5 25.3266 42.5 25.625V32.375ZM33.5 16.625C33.5 15.735 33.7639 14.865 34.2584 14.1249C34.7529 13.3849 35.4557 12.8081 36.2779 12.4675C37.1002 12.1269 38.005 12.0378 38.8779 12.2115C39.7508 12.3851 40.5526 12.8137 41.182 13.443C41.8113 14.0724 42.2399 14.8742 42.4135 15.7471C42.5872 16.62 42.4981 17.5248 42.1575 18.3471C41.8169 19.1693 41.2401 19.8721 40.5001 20.3666C39.76 20.8611 38.89 21.125 38 21.125C36.8069 21.1238 35.663 20.6493 34.8193 19.8057C33.9757 18.962 33.5012 17.8181 33.5 16.625ZM35.75 16.625C35.75 17.07 35.882 17.505 36.1292 17.875C36.3764 18.245 36.7278 18.5334 37.139 18.7037C37.5501 18.874 38.0025 18.9186 38.439 18.8318C38.8754 18.745 39.2763 18.5307 39.591 18.216C39.9057 17.9013 40.12 17.5004 40.2068 17.064C40.2936 16.6275 40.249 16.1751 40.0787 15.764C39.9084 15.3528 39.62 15.0014 39.25 14.7542C38.88 14.507 38.445 14.375 38 14.375C37.4034 14.3756 36.8315 14.6128 36.4097 15.0347C35.9878 15.4565 35.7506 16.0284 35.75 16.625ZM26.75 29V25.625C26.7491 24.7302 26.3932 23.8722 25.7605 23.2395C25.1278 22.6068 24.2698 22.2509 23.375 22.25H16.625C15.7302 22.2509 14.8722 22.6068 14.2395 23.2395C13.6068 23.8722 13.2509 24.7302 13.25 25.625V29H11V31.25H29V29H26.75ZM15.5 25.625C15.5 25.3266 15.6185 25.0405 15.8295 24.8295C16.0405 24.6185 16.3266 24.5 16.625 24.5H23.375C23.6734 24.5 23.9595 24.6185 24.1705 24.8295C24.3815 25.0405 24.5 25.3266 24.5 25.625V29H15.5V25.625ZM15.5 16.625C15.5 15.735 15.7639 14.865 16.2584 14.1249C16.7529 13.3849 17.4557 12.8081 18.2779 12.4675C19.1002 12.1269 20.005 12.0378 20.8779 12.2115C21.7508 12.3851 22.5526 12.8137 23.182 13.443C23.8113 14.0724 24.2399 14.8742 24.4135 15.7471C24.5872 16.62 24.4981 17.5248 24.1575 18.3471C23.8169 19.1693 23.2401 19.8721 22.5001 20.3666C21.76 20.8611 20.89 21.125 20 21.125C18.8069 21.1238 17.663 20.6493 16.8193 19.8057C15.9757 18.962 15.5012 17.8181 15.5 16.625ZM17.75 16.625C17.75 17.07 17.882 17.505 18.1292 17.875C18.3764 18.245 18.7278 18.5334 19.139 18.7037C19.5501 18.874 20.0025 18.9186 20.439 18.8318C20.8754 18.745 21.2763 18.5307 21.591 18.216C21.9057 17.9013 22.12 17.5004 22.2068 17.064C22.2936 16.6275 22.249 16.1751 22.0787 15.764C21.9084 15.3528 21.62 15.0014 21.25 14.7542C20.88 14.507 20.445 14.375 20 14.375C19.4034 14.3756 18.8315 14.6128 18.4097 15.0347C17.9878 15.4565 17.7506 16.0284 17.75 16.625Z" fill="#8686C3"/>
</svg>
