<svg width="58" height="58" viewBox="0 0 58 58" fill="none" xmlns="http://www.w3.org/2000/svg">
<circle opacity="0.5" cx="29" cy="29" r="29" fill="#EFEDFF"/>
<path d="M26 45.5C25.175 45.5 24.4685 45.206 23.8805 44.618C23.2925 44.03 22.999 43.324 23 42.5V38C22.175 38 21.4685 37.706 20.8805 37.118C20.2925 36.53 19.999 35.824 20 35V15.5C20 14.675 20.294 13.9685 20.882 13.3805C21.47 12.7925 22.176 12.499 23 12.5H35C35.825 12.5 36.5315 12.794 37.1195 13.382C37.7075 13.97 38.001 14.676 38 15.5V35C38 35.825 37.706 36.5315 37.118 37.1195C36.53 37.7075 35.824 38.001 35 38V42.5C35 43.325 34.706 44.0315 34.118 44.6195C33.53 45.2075 32.824 45.501 32 45.5H26ZM29 29.75C30.25 29.75 31.3125 29.3125 32.1875 28.4375C33.0625 27.5625 33.5 26.5 33.5 25.25C33.5 24 33.0625 22.9375 32.1875 22.0625C31.3125 21.1875 30.25 20.75 29 20.75C27.75 20.75 26.6875 21.1875 25.8125 22.0625C24.9375 22.9375 24.5 24 24.5 25.25C24.5 26.5 24.9375 27.5625 25.8125 28.4375C26.6875 29.3125 27.75 29.75 29 29.75ZM26 42.5H32V38H26V42.5ZM23 35H35V15.5H23V35ZM29 26.75C28.575 26.75 28.2185 26.606 27.9305 26.318C27.6425 26.03 27.499 25.674 27.5 25.25C27.5 24.825 27.644 24.4685 27.932 24.1805C28.22 23.8925 28.576 23.749 29 23.75C29.425 23.75 29.7815 23.894 30.0695 24.182C30.3575 24.47 30.501 24.826 30.5 25.25C30.5 25.675 30.356 26.0315 30.068 26.3195C29.78 26.6075 29.424 26.751 29 26.75Z" fill="#8686C3"/>
</svg>
