<svg width="36" height="36" viewBox="0 0 36 36" fill="none" xmlns="http://www.w3.org/2000/svg">
<path d="M27.0075 30H9.00751V33H6.00751V30H4.50751C4.10968 30 3.72815 29.842 3.44685 29.5607C3.16554 29.2794 3.00751 28.8978 3.00751 28.5V6C3.00751 5.60218 3.16554 5.22064 3.44685 4.93934C3.72815 4.65804 4.10968 4.5 4.50751 4.5H31.5075C31.9053 4.5 32.2869 4.65804 32.5682 4.93934C32.8495 5.22064 33.0075 5.60218 33.0075 6V28.5C33.0075 28.8978 32.8495 29.2794 32.5682 29.5607C32.2869 29.842 31.9053 30 31.5075 30H30.0075V33H27.0075V30ZM16.5075 20.811V25.5H19.5075V20.811C20.9182 20.4424 22.1466 19.573 22.9632 18.365C23.7798 17.157 24.1289 15.6931 23.9452 14.2467C23.7615 12.8002 23.0576 11.47 21.9649 10.5045C20.8723 9.53905 19.4656 9.00425 18.0075 9C16.5461 8.99856 15.1344 9.53052 14.0374 10.4961C12.9404 11.4616 12.2335 12.7943 12.0494 14.2441C11.8653 15.6938 12.2166 17.1609 13.0374 18.37C13.8582 19.5791 15.0921 20.4471 16.5075 20.811ZM18.0075 18C17.2119 18 16.4488 17.6839 15.8862 17.1213C15.3236 16.5587 15.0075 15.7956 15.0075 15C15.0075 14.2044 15.3236 13.4413 15.8862 12.8787C16.4488 12.3161 17.2119 12 18.0075 12C18.8032 12 19.5662 12.3161 20.1288 12.8787C20.6914 13.4413 21.0075 14.2044 21.0075 15C21.0075 15.7956 20.6914 16.5587 20.1288 17.1213C19.5662 17.6839 18.8032 18 18.0075 18Z" fill="#8686C3"/>
</svg>
