<svg width="36" height="36" viewBox="0 0 36 36" fill="none" xmlns="http://www.w3.org/2000/svg">
<path d="M15.75 22.5H20.25L19.3875 17.6625C19.8875 17.4125 20.2815 17.05 20.5695 16.575C20.8575 16.1 21.001 15.575 21 15C21 14.175 20.706 13.4685 20.118 12.8805C19.53 12.2925 18.824 11.999 18 12C17.175 12 16.4685 12.294 15.8805 12.882C15.2925 13.47 14.999 14.176 15 15C15 15.575 15.144 16.1 15.432 16.575C15.72 17.05 16.1135 17.4125 16.6125 17.6625L15.75 22.5ZM18 33C14.525 32.125 11.656 30.131 9.393 27.018C7.13 23.905 5.999 20.449 6 16.65V7.5L18 3L30 7.5V16.65C30 20.45 28.8685 23.9065 26.6055 27.0195C24.3425 30.1325 21.474 32.126 18 33Z" fill="#8686C3"/>
</svg>
