<svg width="36" height="36" viewBox="0 0 36 36" fill="none" xmlns="http://www.w3.org/2000/svg">
<path d="M15 3H21C21.7956 3 22.5587 3.31607 23.1213 3.87868C23.6839 4.44129 24 5.20435 24 6V9H30C30.7956 9 31.5587 9.31607 32.1213 9.87868C32.6839 10.4413 33 11.2044 33 12V28.5C33 29.2956 32.6839 30.0587 32.1213 30.6213C31.5587 31.1839 30.7956 31.5 30 31.5H6C5.20435 31.5 4.44129 31.1839 3.87868 30.6213C3.31607 30.0587 3 29.2956 3 28.5V12C3 10.335 4.335 9 6 9H12V6C12 4.335 13.335 3 15 3ZM21 9V6H15V9H21Z" fill="#8686C3"/>
</svg>
