<svg width="58" height="58" viewBox="0 0 58 58" fill="none" xmlns="http://www.w3.org/2000/svg">
<circle opacity="0.5" cx="29" cy="29" r="29" fill="#EFEDFF"/>
<path d="M37.9999 23.6C37.9999 24.0774 38.1895 24.5353 38.5271 24.8728C38.8647 25.2104 39.3225 25.4 39.7999 25.4C40.2773 25.4 40.7351 25.2104 41.0727 24.8728C41.4103 24.5353 41.5999 24.0774 41.5999 23.6C41.5999 23.1227 41.4103 22.6648 41.0727 22.3273C40.7351 21.9897 40.2773 21.8 39.7999 21.8C39.3225 21.8 38.8647 21.9897 38.5271 22.3273C38.1895 22.6648 37.9999 23.1227 37.9999 23.6ZM27.1999 23.6C27.1999 24.0774 27.3895 24.5353 27.7271 24.8728C28.0647 25.2104 28.5225 25.4 28.9999 25.4C29.4773 25.4 29.9351 25.2104 30.2727 24.8728C30.6103 24.5353 30.7999 24.0774 30.7999 23.6C30.7999 23.1227 30.6103 22.6648 30.2727 22.3273C29.9351 21.9897 29.4773 21.8 28.9999 21.8C28.5225 21.8 28.0647 21.9897 27.7271 22.3273C27.3895 22.6648 27.1999 23.1227 27.1999 23.6ZM18.1999 25.4C17.7225 25.4 17.2647 25.2104 16.9271 24.8728C16.5895 24.5353 16.3999 24.0774 16.3999 23.6C16.3999 23.1227 16.5895 22.6648 16.9271 22.3273C17.2647 21.9897 17.7225 21.8 18.1999 21.8C18.6773 21.8 19.1351 21.9897 19.4727 22.3273C19.8103 22.6648 19.9999 23.1227 19.9999 23.6C19.9999 24.0774 19.8103 24.5353 19.4727 24.8728C19.1351 25.2104 18.6773 25.4 18.1999 25.4ZM37.9999 34.4C37.9999 34.8774 38.1895 35.3353 38.5271 35.6728C38.8647 36.0104 39.3225 36.2 39.7999 36.2C40.2773 36.2 40.7351 36.0104 41.0727 35.6728C41.4103 35.3353 41.5999 34.8774 41.5999 34.4C41.5999 33.9227 41.4103 33.4648 41.0727 33.1273C40.7351 32.7897 40.2773 32.6 39.7999 32.6C39.3225 32.6 38.8647 32.7897 38.5271 33.1273C38.1895 33.4648 37.9999 33.9227 37.9999 34.4ZM28.9999 36.2C28.5225 36.2 28.0647 36.0104 27.7271 35.6728C27.3895 35.3353 27.1999 34.8774 27.1999 34.4C27.1999 33.9227 27.3895 33.4648 27.7271 33.1273C28.0647 32.7897 28.5225 32.6 28.9999 32.6C29.4773 32.6 29.9351 32.7897 30.2727 33.1273C30.6103 33.4648 30.7999 33.9227 30.7999 34.4C30.7999 34.8774 30.6103 35.3353 30.2727 35.6728C29.9351 36.0104 29.4773 36.2 28.9999 36.2ZM16.3999 34.4C16.3999 34.8774 16.5895 35.3353 16.9271 35.6728C17.2647 36.0104 17.7225 36.2 18.1999 36.2C18.6773 36.2 19.1351 36.0104 19.4727 35.6728C19.8103 35.3353 19.9999 34.8774 19.9999 34.4C19.9999 33.9227 19.8103 33.4648 19.4727 33.1273C19.1351 32.7897 18.6773 32.6 18.1999 32.6C17.7225 32.6 17.2647 32.7897 16.9271 33.1273C16.5895 33.4648 16.3999 33.9227 16.3999 34.4Z" fill="#8686C3"/>
</svg>
