<svg width="58" height="58" viewBox="0 0 58 58" fill="none" xmlns="http://www.w3.org/2000/svg">
<circle opacity="0.5" cx="29" cy="29" r="29" fill="#EFEDFF"/>
<path d="M21.5 39.5C21.5 40.2956 21.1839 41.0587 20.6213 41.6213C20.0587 42.1839 19.2956 42.5 18.5 42.5C17.7044 42.5 16.9413 42.1839 16.3787 41.6213C15.8161 41.0587 15.5 40.2956 15.5 39.5C15.5 38.7044 15.8161 37.9413 16.3787 37.3787C16.9413 36.8161 17.7044 36.5 18.5 36.5C19.2956 36.5 20.0587 36.8161 20.6213 37.3787C21.1839 37.9413 21.5 38.7044 21.5 39.5ZM21.5 39.5H26C26.7956 39.5 27.5587 39.1839 28.1213 38.6213C28.6839 38.0587 29 37.2956 29 36.5V24.5C29 23.7044 29.3161 22.9413 29.8787 22.3787C30.4413 21.8161 31.2044 21.5 32 21.5H42.5" stroke="#8686C3" stroke-width="2" stroke-linecap="round" stroke-linejoin="round"/>
<path d="M38 17L42.5 21.5L38 26" stroke="#8686C3" stroke-width="2" stroke-linecap="round" stroke-linejoin="round"/>
</svg>
