<svg width="36" height="36" viewBox="0 0 36 36" fill="none" xmlns="http://www.w3.org/2000/svg">
<path d="M31.5001 31.5001L24.9856 24.9856M24.9856 24.9856C26.0999 23.8712 26.9838 22.5483 27.5869 21.0924C28.19 19.6364 28.5004 18.076 28.5004 16.5001C28.5004 14.9242 28.19 13.3637 27.5869 11.9077C26.9838 10.4518 26.0999 9.1289 24.9856 8.01457C23.8712 6.90023 22.5483 6.0163 21.0924 5.41323C19.6364 4.81015 18.076 4.49976 16.5001 4.49976C14.9242 4.49976 13.3637 4.81015 11.9077 5.41323C10.4518 6.0163 9.1289 6.90023 8.01456 8.01457C5.76407 10.2651 4.49976 13.3174 4.49976 16.5001C4.49976 19.6827 5.76407 22.7351 8.01456 24.9856C10.2651 27.2361 13.3174 28.5004 16.5001 28.5004C19.6827 28.5004 22.7351 27.2361 24.9856 24.9856ZM16.5001 12.0001V21.0001M12.0001 16.5001H21.0001" stroke="#8686C3" stroke-width="3" stroke-linecap="round" stroke-linejoin="round"/>
</svg>
