<svg width="58" height="58" viewBox="0 0 58 58" fill="none" xmlns="http://www.w3.org/2000/svg">
<circle opacity="0.5" cx="29" cy="29" r="29" fill="#EFEDFF"/>
<path d="M26.75 33.5H31.25L30.3875 28.6625C30.8875 28.4125 31.2815 28.05 31.5695 27.575C31.8575 27.1 32.001 26.575 32 26C32 25.175 31.7065 24.469 31.1195 23.882C30.5325 23.295 29.826 23.001 29 23C28.175 23 27.469 23.294 26.882 23.882C26.295 24.47 26.001 25.176 26 26C26 26.575 26.144 27.1 26.432 27.575C26.72 28.05 27.1135 28.4125 27.6125 28.6625L26.75 33.5ZM29 44C25.525 43.125 22.656 41.131 20.393 38.018C18.13 34.905 16.999 31.449 17 27.65V18.5L29 14L41 18.5V27.65C41 31.45 39.869 34.9065 37.607 38.0195C35.345 41.1325 32.476 43.126 29 44ZM29 40.85C31.6 40.025 33.75 38.375 35.45 35.9C37.15 33.425 38 30.675 38 27.65V20.5625L29 17.1875L20 20.5625V27.65C20 30.675 20.85 33.425 22.55 35.9C24.25 38.375 26.4 40.025 29 40.85Z" fill="#8686C3"/>
</svg>
