<svg width="58" height="58" viewBox="0 0 58 58" fill="none" xmlns="http://www.w3.org/2000/svg">
<circle opacity="0.5" cx="29" cy="29" r="29" fill="#EFEDFF"/>
<path d="M38.27 23.0599L38.9645 22.3639C39.5174 21.8107 40.2675 21.4999 41.0497 21.4998C41.8318 21.4996 42.582 21.8102 43.1352 22.3632C43.6884 22.9161 43.9992 23.6662 43.9994 24.4484C43.9995 25.2306 43.6889 25.9807 43.136 26.5339L42.4415 27.2299M38.27 23.0599C38.27 23.0599 38.357 24.5359 39.6605 25.8394C40.964 27.1429 42.4415 27.2299 42.4415 27.2299M38.27 23.0599L31.88 29.4499C31.445 29.8819 31.229 30.0994 31.043 30.3379C30.824 30.6199 30.6365 30.9229 30.482 31.2469C30.3515 31.5199 30.2555 31.8094 30.062 32.3899L29.4425 34.2499L29.2415 34.8514M42.4415 27.2299L36.0515 33.6199C35.6165 34.0549 35.4005 34.2709 35.162 34.4569C34.88 34.6759 34.577 34.8634 34.253 35.0179C33.98 35.1484 33.6905 35.2444 33.11 35.4379L31.25 36.0574L30.6485 36.2584M29.2415 34.8514L29.042 35.4544C28.9955 35.5944 28.9889 35.7445 29.0228 35.888C29.0568 36.0315 29.13 36.1628 29.2343 36.2671C29.3386 36.3713 29.4698 36.4446 29.6133 36.4785C29.7569 36.5125 29.907 36.5059 30.047 36.4594L30.6485 36.2584M29.2415 34.8514L30.6485 36.2584" stroke="#8686C3" stroke-width="2"/>
<path d="M23 30.5H26.75M23 24.5H32.75M23 36.5H25.25M40.742 15.758C38.9855 14 36.1565 14 30.5 14H27.5C21.8435 14 19.0145 14 17.258 15.758C15.5 17.5145 15.5 20.3435 15.5 26V32C15.5 37.6565 15.5 40.4855 17.258 42.242C19.0145 44 21.8435 44 27.5 44H30.5C36.1565 44 38.9855 44 40.742 42.242C42.158 40.8275 42.4325 38.72 42.4865 35" stroke="#8686C3" stroke-width="2" stroke-linecap="round"/>
</svg>
