<svg width="58" height="58" viewBox="0 0 58 58" fill="none" xmlns="http://www.w3.org/2000/svg">
<circle opacity="0.5" cx="29" cy="29" r="29" fill="#EFEDFF"/>
<path d="M25.46 31.1C23.945 29.75 22.01 29.045 20 29V33.5L14 27.5L20 21.5V26C22.505 26 24.95 26.855 26.945 28.385C26.3345 29.2218 25.8353 30.1345 25.46 31.1ZM38 33.5V29C37.25 29 31.25 29.24 30.575 35.3C32.915 36.125 34.145 38.705 33.32 41.045C32.9207 42.1697 32.0917 43.0903 31.0148 43.6048C29.9379 44.1194 28.7009 44.186 27.575 43.79C25.25 42.95 24.005 40.385 24.83 38.045C25.25 36.755 26.3 35.75 27.575 35.3C27.7848 32.7072 28.9847 30.2948 30.9258 28.5631C32.867 26.8315 35.4002 25.9137 38 26V21.5L44 27.5L38 33.5ZM30.5 39.5C30.5 39.1022 30.342 38.7206 30.0607 38.4393C29.7794 38.158 29.3978 38 29 38C28.6022 38 28.2206 38.158 27.9393 38.4393C27.658 38.7206 27.5 39.1022 27.5 39.5C27.5 39.8978 27.658 40.2794 27.9393 40.5607C28.2206 40.842 28.6022 41 29 41C29.3978 41 29.7794 40.842 30.0607 40.5607C30.342 40.2794 30.5 39.8978 30.5 39.5ZM27.5 27.68C28.37 26.69 29.375 25.835 30.5 25.145V18.5H35L29 12.5L23 18.5H27.5V27.68Z" fill="#8686C3"/>
</svg>
