<svg width="58" height="58" viewBox="0 0 58 58" fill="none" xmlns="http://www.w3.org/2000/svg">
<circle opacity="0.5" cx="29" cy="29" r="29" fill="#EFEDFF"/>
<path d="M40.25 32.375V28.4375C40.25 27.0948 39.7166 25.8072 38.7672 24.8578C37.8178 23.9084 36.5302 23.375 35.1875 23.375H32.9375C32.4899 23.375 32.0607 23.1972 31.7443 22.8807C31.4278 22.5643 31.25 22.1351 31.25 21.6875V19.4375C31.25 18.0948 30.7166 16.8072 29.7672 15.8578C28.8178 14.9084 27.5302 14.375 26.1875 14.375H23.375M23.375 33.5H34.625M23.375 38H29M26.75 14.375H19.4375C18.506 14.375 17.75 15.131 17.75 16.0625V41.9375C17.75 42.869 18.506 43.625 19.4375 43.625H38.5625C39.494 43.625 40.25 42.869 40.25 41.9375V27.875C40.25 24.2946 38.8277 20.8608 36.2959 18.3291C33.7642 15.7973 30.3304 14.375 26.75 14.375Z" stroke="#8686C3" stroke-width="2" stroke-linecap="round" stroke-linejoin="round"/>
</svg>
