<svg width="58" height="58" viewBox="0 0 58 58" fill="none" xmlns="http://www.w3.org/2000/svg">
<circle opacity="0.5" cx="29" cy="29" r="29" fill="#EFEDFF"/>
<path d="M15.5 32V26C15.5 20.3435 15.5 17.5145 17.258 15.758C19.0145 14 21.8435 14 27.5 14H30.5C36.1565 14 38.9855 14 40.742 15.758C41.723 16.7375 42.1565 18.05 42.347 20M42.5 26V32C42.5 37.6565 42.5 40.4855 40.742 42.242C38.9855 44 36.1565 44 30.5 44H27.5C21.8435 44 19.0145 44 17.258 42.242C16.277 41.2625 15.8435 39.95 15.653 38M23 32H30.5M23 26H24.5M35 26H29" stroke="#8686C3" stroke-width="2" stroke-linecap="round"/>
</svg>
