<svg width="58" height="58" viewBox="0 0 58 58" fill="none" xmlns="http://www.w3.org/2000/svg">
<circle opacity="0.5" cx="29" cy="29" r="29" fill="#EFEDFF"/>
<path d="M35 15.5C36.1478 15.4999 37.2523 15.9385 38.0874 16.7259C38.9225 17.5134 39.4252 18.5902 39.4925 19.736L39.5 20V35H40.625C41.5955 35 42.395 35.738 42.491 36.683L42.5 36.875V39.5C42.5001 40.6478 42.0615 41.7523 41.2741 42.5874C40.4866 43.4225 39.4098 43.9252 38.264 43.9925L38 44H23C21.8522 44.0001 20.7477 43.5615 19.9126 42.7741C19.0775 41.9866 18.5748 40.9098 18.5075 39.764L18.5 39.5V24.5H15.875C15.4108 24.5002 14.963 24.3282 14.6184 24.0173C14.2737 23.7064 14.0565 23.2787 14.009 22.817L14 22.625V20C13.9999 18.8522 14.4385 17.7477 15.2259 16.9126C16.0134 16.0775 17.0902 15.5748 18.236 15.5075L18.5 15.5H35ZM35 18.5H21.5V39.5C21.5 39.8978 21.658 40.2794 21.9393 40.5607C22.2206 40.842 22.6022 41 23 41C23.3978 41 23.7794 40.842 24.0607 40.5607C24.342 40.2794 24.5 39.8978 24.5 39.5V36.875C24.5 35.84 25.34 35 26.375 35H36.5V20C36.5 19.6022 36.342 19.2206 36.0607 18.9393C35.7794 18.658 35.3978 18.5 35 18.5ZM39.5 38H27.5V39.5C27.5 40.025 27.41 40.5305 27.245 41H38C38.3978 41 38.7794 40.842 39.0607 40.5607C39.342 40.2794 39.5 39.8978 39.5 39.5V38ZM29 29C29.3978 29 29.7794 29.158 30.0607 29.4393C30.342 29.7206 30.5 30.1022 30.5 30.5C30.5 30.8978 30.342 31.2794 30.0607 31.5607C29.7794 31.842 29.3978 32 29 32H26C25.6022 32 25.2206 31.842 24.9393 31.5607C24.658 31.2794 24.5 30.8978 24.5 30.5C24.5 30.1022 24.658 29.7206 24.9393 29.4393C25.2206 29.158 25.6022 29 26 29H29ZM32 23C32.3978 23 32.7794 23.158 33.0607 23.4393C33.342 23.7206 33.5 24.1022 33.5 24.5C33.5 24.8978 33.342 25.2794 33.0607 25.5607C32.7794 25.842 32.3978 26 32 26H26C25.6022 26 25.2206 25.842 24.9393 25.5607C24.658 25.2794 24.5 24.8978 24.5 24.5C24.5 24.1022 24.658 23.7206 24.9393 23.4393C25.2206 23.158 25.6022 23 26 23H32ZM18.5 18.5C18.1326 18.5 17.778 18.6349 17.5034 18.8791C17.2289 19.1232 17.0535 19.4596 17.0105 19.8245L17 20V21.5H18.5V18.5Z" fill="#8686C3"/>
</svg>
