<svg width="58" height="58" viewBox="0 0 58 58" fill="none" xmlns="http://www.w3.org/2000/svg">
<circle opacity="0.5" cx="29" cy="29" r="29" fill="#EFEDFF"/>
<path d="M43.625 40.2501C43.625 40.5485 43.5065 40.8346 43.2955 41.0456C43.0845 41.2566 42.7984 41.3751 42.5 41.3751H15.5C15.2016 41.3751 14.9155 41.2566 14.7045 41.0456C14.4935 40.8346 14.375 40.5485 14.375 40.2501C14.375 39.9517 14.4935 39.6656 14.7045 39.4546C14.9155 39.2436 15.2016 39.1251 15.5 39.1251H42.5C42.7984 39.1251 43.0845 39.2436 43.2955 39.4546C43.5065 39.6656 43.625 39.9517 43.625 40.2501ZM14.5986 33.337C14.4123 32.9516 14.3397 32.521 14.3896 32.0958C14.4394 31.6706 14.6095 31.2684 14.8799 30.9365L26.3647 16.7573C26.6825 16.3646 27.0841 16.048 27.5401 15.8304C27.996 15.6129 28.4948 15.5 29 15.5C29.5052 15.5 30.004 15.6129 30.4599 15.8304C30.9159 16.048 31.3175 16.3646 31.6353 16.7573L43.1174 30.9365C43.3861 31.2685 43.5555 31.6698 43.6059 32.094C43.6563 32.5182 43.5856 32.948 43.4021 33.3338C43.2185 33.7195 42.9296 34.0455 42.5687 34.274C42.2077 34.5025 41.7895 34.6242 41.3624 34.6251H16.6377C16.2106 34.6261 15.792 34.5054 15.431 34.2773C15.0699 34.0492 14.7812 33.7231 14.5986 33.337ZM16.625 32.3625C16.625 32.3625 16.625 32.3751 16.6363 32.3779H41.3624C41.3624 32.3779 41.3736 32.3653 41.3736 32.3596L29.8859 18.172C29.7792 18.0399 29.6442 17.9333 29.4909 17.8601C29.3376 17.7869 29.1699 17.7489 29 17.7489C28.8301 17.7489 28.6624 17.7869 28.5091 17.8601C28.3558 17.9333 28.2208 18.0399 28.1141 18.172L16.625 32.3526C16.6246 32.3559 16.6246 32.3592 16.625 32.3625Z" fill="#8686C3"/>
</svg>
