<svg width="58" height="58" viewBox="0 0 58 58" fill="none" xmlns="http://www.w3.org/2000/svg">
<circle opacity="0.5" cx="29" cy="29" r="29" fill="#EFEDFF"/>
<path d="M29 36.5C29.425 36.5 29.7815 36.356 30.0695 36.068C30.3575 35.78 30.501 35.424 30.5 35C30.5 34.575 30.356 34.219 30.068 33.932C29.78 33.645 29.424 33.501 29 33.5C28.575 33.5 28.219 33.644 27.932 33.932C27.645 34.22 27.501 34.576 27.5 35C27.5 35.425 27.644 35.7815 27.932 36.0695C28.22 36.3575 28.576 36.501 29 36.5ZM27.5 30.5H30.5V21.5H27.5V30.5ZM29 44C26.925 44 24.975 43.606 23.15 42.818C21.325 42.03 19.7375 40.9615 18.3875 39.6125C17.0375 38.2625 15.969 36.675 15.182 34.85C14.395 33.025 14.001 31.075 14 29C14 26.925 14.394 24.975 15.182 23.15C15.97 21.325 17.0385 19.7375 18.3875 18.3875C19.7375 17.0375 21.325 15.969 23.15 15.182C24.975 14.395 26.925 14.001 29 14C31.075 14 33.025 14.394 34.85 15.182C36.675 15.97 38.2625 17.0385 39.6125 18.3875C40.9625 19.7375 42.0315 21.325 42.8195 23.15C43.6075 24.975 44.001 26.925 44 29C44 31.075 43.606 33.025 42.818 34.85C42.03 36.675 40.9615 38.2625 39.6125 39.6125C38.2625 40.9625 36.675 42.0315 34.85 42.8195C33.025 43.6075 31.075 44.001 29 44ZM29 41C32.35 41 35.1875 39.8375 37.5125 37.5125C39.8375 35.1875 41 32.35 41 29C41 25.65 39.8375 22.8125 37.5125 20.4875C35.1875 18.1625 32.35 17 29 17C25.65 17 22.8125 18.1625 20.4875 20.4875C18.1625 22.8125 17 25.65 17 29C17 32.35 18.1625 35.1875 20.4875 37.5125C22.8125 39.8375 25.65 41 29 41Z" fill="#8686C3"/>
</svg>
