<svg width="58" height="58" viewBox="0 0 58 58" fill="none" xmlns="http://www.w3.org/2000/svg">
<circle opacity="0.5" cx="29" cy="29" r="29" fill="#EFEDFF"/>
<path d="M28.9998 15.5C27.0948 15.5 25.3998 16.7 24.7698 18.5H15.4998V21.5H18.4248L13.9998 32C13.2948 35 15.4998 36.5 19.2498 36.5C22.9998 36.5 25.3398 35 24.4998 32L20.0748 21.5H24.7548C25.2498 22.775 26.2248 23.75 27.4998 24.245V41H13.9998V44H43.9998V41H30.4998V24.23C31.7748 23.75 32.7498 22.775 33.2298 21.5H37.9248L33.4998 32C32.7948 35 34.9998 36.5 38.7498 36.5C42.4998 36.5 44.8398 35 43.9998 32L39.5748 21.5H42.4998V18.5H33.2448C32.5998 16.7 30.9048 15.5 28.9998 15.5ZM28.9998 18.5C29.3976 18.5 29.7791 18.658 30.0604 18.9393C30.3417 19.2206 30.4998 19.6022 30.4998 20C30.4998 20.3978 30.3417 20.7794 30.0604 21.0607C29.7791 21.342 29.3976 21.5 28.9998 21.5C28.602 21.5 28.2204 21.342 27.9391 21.0607C27.6578 20.7794 27.4998 20.3978 27.4998 20C27.4998 19.6022 27.6578 19.2206 27.9391 18.9393C28.2204 18.658 28.602 18.5 28.9998 18.5ZM19.2498 26.375L21.4998 32H16.9998L19.2498 26.375ZM38.7498 26.375L40.9998 32H36.4998L38.7498 26.375Z" fill="#8686C3"/>
</svg>
