<svg width="58" height="58" viewBox="0 0 58 58" fill="none" xmlns="http://www.w3.org/2000/svg">
<circle opacity="0.5" cx="29" cy="29" r="29" fill="#EFEDFF"/>
<path d="M16.5351 24.68C16.4105 24.5463 16.2595 24.44 16.0917 24.3677C15.9238 24.2954 15.7428 24.2587 15.5601 24.26C14.9451 24.26 14.4801 24.545 14.1801 25.13C13.8801 25.715 13.9551 26.27 14.4351 26.795C16.2051 28.385 17.3301 29.51 17.8101 30.17C18.4251 31.01 18.7251 32.24 18.7251 33.83C18.7251 35.795 19.4751 37.25 20.9751 38.255C21.8151 38.915 22.7301 39.41 23.7501 39.74V33.905C23.7501 32.495 23.2551 31.325 22.3101 30.38M35.6901 30.455C34.7601 31.385 34.2501 32.54 34.2501 33.905V39.8C35.6901 39.29 36.8901 38.495 37.8801 37.445C38.8551 36.395 39.3501 35.24 39.3501 33.83C39.3501 32.135 39.6351 30.92 40.2051 30.17C40.3401 29.93 40.5951 29.63 41.0001 29.255C41.3451 28.88 41.7051 28.52 42.0651 28.19C42.4101 27.875 42.7551 27.545 43.0851 27.215L43.5801 26.795C43.7142 26.6676 43.8207 26.5139 43.8929 26.3436C43.9652 26.1733 44.0016 25.99 44.0001 25.805C44.0001 25.385 43.8651 25.01 43.5801 24.71C43.2951 24.41 42.9501 24.26 42.5001 24.26C42.0501 24.26 41.7501 24.395 41.4651 24.68M29.0001 41C30.0351 41 31.0401 40.865 32.0001 40.58V35.225C32.0001 34.34 31.7301 33.65 31.1151 32.99C30.5001 32.33 29.7951 32 29.0001 32C28.2051 32 27.5001 32.3 26.9301 32.915C26.3301 33.5 26.0001 34.19 26.0001 35.09V40.58C26.9601 40.865 27.9651 41 29.0001 41ZM24.5001 23.75C24.5001 24.995 23.4951 26 22.2501 26C21.0051 26 20.0001 24.995 20.0001 23.75C20.0001 22.505 21.0051 21.5 22.2501 21.5C23.4951 21.5 24.5001 22.505 24.5001 23.75ZM38.0001 23.75C38.0001 24.995 36.9951 26 35.7501 26C34.5051 26 33.5001 24.995 33.5001 23.75C33.5001 22.505 34.5051 21.5 35.7501 21.5C36.9951 21.5 38.0001 22.505 38.0001 23.75ZM31.2501 19.25C31.2501 20.495 30.2451 21.5 29.0001 21.5C27.7551 21.5 26.7501 20.495 26.7501 19.25C26.7501 18.005 27.7551 17 29.0001 17C30.2451 17 31.2501 18.005 31.2501 19.25ZM31.2501 27.5C31.2501 28.745 30.2451 29.75 29.0001 29.75C27.7551 29.75 26.7501 28.745 26.7501 27.5C26.7501 26.255 27.7551 25.25 29.0001 25.25C30.2451 25.25 31.2501 26.255 31.2501 27.5Z" fill="#8686C3"/>
</svg>
