<svg width="58" height="58" viewBox="0 0 58 58" fill="none" xmlns="http://www.w3.org/2000/svg">
<circle opacity="0.5" cx="29" cy="29" r="29" fill="#EFEDFF"/>
<path d="M37 14C37.7956 14 38.5587 14.3161 39.1213 14.8787C39.6839 15.4413 40 16.2044 40 17V41C40 41.7956 39.6839 42.5587 39.1213 43.1213C38.5587 43.6839 37.7956 44 37 44H22C21.2044 44 20.4413 43.6839 19.8787 43.1213C19.3161 42.5587 19 41.7956 19 41V17C19 16.2044 19.3161 15.4413 19.8787 14.8787C20.4413 14.3161 21.2044 14 22 14H37ZM37.9 37.082H21.1V41C21.1 41.2387 21.1948 41.4676 21.3636 41.6364C21.5324 41.8052 21.7613 41.9 22 41.9H37C37.2387 41.9 37.4676 41.8052 37.6364 41.6364C37.8052 41.4676 37.9 41.2387 37.9 41V37.082ZM29.5 38C29.8978 38 30.2794 38.158 30.5607 38.4393C30.842 38.7206 31 39.1022 31 39.5C31 39.8978 30.842 40.2794 30.5607 40.5607C30.2794 40.842 29.8978 41 29.5 41C29.1022 41 28.7206 40.842 28.4393 40.5607C28.158 40.2794 28 39.8978 28 39.5C28 39.1022 28.158 38.7206 28.4393 38.4393C28.7206 38.158 29.1022 38 29.5 38ZM37 16.1H22C21.7613 16.1 21.5324 16.1948 21.3636 16.3636C21.1948 16.5324 21.1 16.7613 21.1 17V34.982H37.9V17C37.9 16.7613 37.8052 16.5324 37.6364 16.3636C37.4676 16.1948 37.2387 16.1 37 16.1Z" fill="#8686C3"/>
</svg>
