<svg width="58" height="58" viewBox="0 0 58 58" fill="none" xmlns="http://www.w3.org/2000/svg">
<circle opacity="0.5" cx="29" cy="29" r="29" fill="#EFEDFF"/>
<path d="M27.5 42.5C25.625 42.5 23.869 42.15 22.232 41.45C20.595 40.75 19.1635 39.7875 17.9375 38.5625C16.7125 37.3375 15.75 35.906 15.05 34.268C14.35 32.63 14 30.874 14 29C14 27.125 14.35 25.369 15.05 23.732C15.75 22.095 16.7125 20.6635 17.9375 19.4375C19.1625 18.2125 20.594 17.25 22.232 16.55C23.87 15.85 25.626 15.5 27.5 15.5C28.025 15.5 28.5315 15.5315 29.0195 15.5945C29.5075 15.6575 30.001 15.751 30.5 15.875V18.95C30 18.8 29.5065 18.6875 29.0195 18.6125C28.5325 18.5375 28.026 18.5 27.5 18.5C24.55 18.5 22.0625 19.5125 20.0375 21.5375C18.0125 23.5625 17 26.05 17 29C17 31.95 18.0125 34.4375 20.0375 36.4625C22.0625 38.4875 24.55 39.5 27.5 39.5C30.45 39.5 32.9375 38.4875 34.9625 36.4625C36.9875 34.4375 38 31.95 38 29C38 28.725 37.9875 28.475 37.9625 28.25C37.9375 28.025 37.9 27.775 37.85 27.5H40.925C40.975 27.775 41 28.025 41 28.25V29C41 30.875 40.65 32.6315 39.95 34.2695C39.25 35.9075 38.2875 37.3385 37.0625 38.5625C35.8375 39.7875 34.406 40.75 32.768 41.45C31.13 42.15 29.374 42.5 27.5 42.5ZM31.7 35.3L26 29.6V21.5H29V28.4L33.8 33.2L31.7 35.3ZM38 24.5V20H33.5V17H38V12.5H41V17H45.5V20H41V24.5H38Z" fill="#8686C3"/>
</svg>
