<svg width="58" height="58" viewBox="0 0 58 58" fill="none" xmlns="http://www.w3.org/2000/svg">
<circle opacity="0.5" cx="29" cy="29" r="29" fill="#EFEDFF"/>
<path d="M29 13.25C28.7463 13.2499 28.5 13.3355 28.3011 13.4929C28.1022 13.6504 27.9623 13.8704 27.9042 14.1174L25.967 22.3546C23.6178 22.0322 21.2267 22.4554 19.1309 23.5646C17.0351 24.6737 15.3404 26.4129 14.2858 28.5366C13.2312 30.6604 12.8699 33.0617 13.253 35.4017C13.636 37.7418 14.744 39.9026 16.4207 41.5793C18.0974 43.2559 20.2582 44.364 22.5982 44.747C24.9383 45.13 27.3396 44.7688 29.4633 43.7142C31.5871 42.6596 33.3262 40.9649 34.4354 38.8691C35.5445 36.7733 35.9678 34.3822 35.6454 32.033L43.8826 30.0958C44.1295 30.0377 44.3496 29.8978 44.5071 29.6989C44.6645 29.5 44.7501 29.2537 44.75 29C44.7452 24.8243 43.0843 20.821 40.1316 17.8683C37.179 14.9157 33.1757 13.2548 29 13.25ZM23.7046 34.2954C23.9155 34.5064 24.2016 34.6249 24.5 34.625C24.5867 34.6251 24.6731 34.6153 24.7576 34.5958L28.9899 33.599C28.9711 34.4798 28.694 35.3357 28.193 36.0603C27.6919 36.7849 26.989 37.3464 26.1715 37.6748C25.354 38.0033 24.4581 38.0843 23.5949 37.9079C22.7318 37.7314 21.9395 37.3052 21.3166 36.6823C20.6936 36.0593 20.2674 35.2671 20.091 34.4039C19.9145 33.5408 19.9955 32.6448 20.324 31.8274C20.6525 31.0099 21.2139 30.307 21.9386 29.8059C22.6632 29.3048 23.5191 29.0277 24.3999 29.009L23.4042 33.2424C23.3605 33.4289 23.3651 33.6236 23.4177 33.8079C23.4702 33.9922 23.569 34.16 23.7046 34.2954ZM26.0109 31.9891L28.5657 21.1329C30.7567 21.1682 32.848 22.0543 34.3974 23.6037C35.9468 25.1531 36.8329 27.2444 36.8682 29.4354L26.0109 31.9891ZM33.5 33.5C33.5 35.28 32.9721 37.0201 31.9832 38.5001C30.9943 39.9802 29.5887 41.1337 27.9441 41.8149C26.2996 42.4961 24.49 42.6743 22.7442 42.3271C20.9983 41.9798 19.3947 41.1226 18.136 39.864C16.8773 38.6053 16.0202 37.0016 15.6729 35.2558C15.3256 33.51 15.5039 31.7004 16.1851 30.0558C16.8663 28.4113 18.0198 27.0057 19.4998 26.0168C20.9799 25.0278 22.7199 24.5 24.5 24.5C24.8172 24.5011 25.1341 24.5187 25.4495 24.5529L24.9275 26.7714C24.7846 26.7624 24.6429 26.75 24.5 26.75C23.165 26.75 21.8599 27.1459 20.7499 27.8876C19.6398 28.6293 18.7747 29.6835 18.2638 30.9169C17.7529 32.1503 17.6192 33.5075 17.8797 34.8169C18.1401 36.1262 18.783 37.329 19.727 38.273C20.671 39.217 21.8737 39.8599 23.1831 40.1203C24.4925 40.3808 25.8497 40.2471 27.0831 39.7362C28.3165 39.2253 29.3707 38.3601 30.1124 37.2501C30.8541 36.1401 31.25 34.835 31.25 33.5C31.25 33.3571 31.2376 33.2154 31.2286 33.0725L33.4471 32.5505C33.4812 32.8659 33.4989 33.1828 33.5 33.5ZM39.0912 28.91C38.9295 26.3105 37.8239 23.8595 35.9822 22.0178C34.1405 20.1761 31.6895 19.0705 29.09 18.9088L29.8842 15.5281C33.1506 15.7471 36.2266 17.1436 38.5415 19.4585C40.8564 21.7733 42.2529 24.8494 42.4719 28.1157L39.0912 28.91Z" fill="#8686C3"/>
</svg>
