<svg width="590" height="400" viewBox="0 0 590 400" fill="none" xmlns="http://www.w3.org/2000/svg">
<g filter="url(#filter0_d_213_4480)">
<rect x="40" y="117" width="510" height="243" rx="16" fill="white"/>
</g>
<path d="M164.347 147.399H73.4497C71.5445 147.399 70 149.098 70 151.192V151.606C70 153.701 71.5445 155.399 73.4497 155.399H164.347C166.252 155.399 167.797 153.701 167.797 151.606V151.192C167.797 149.098 166.252 147.399 164.347 147.399Z" fill="#EFEDFF"/>
<path d="M128.417 163.297H73.4496C71.5444 163.297 70 164.995 70 167.09V167.504C70 169.599 71.5444 171.297 73.4496 171.297H128.417C130.322 171.297 131.866 169.599 131.866 167.504V167.09C131.866 164.995 130.322 163.297 128.417 163.297Z" fill="#8686C3"/>
<rect x="70" y="181" width="450" height="8" rx="4" fill="#F9F9F9"/>
<rect x="70" y="237" width="450" height="8" rx="4" fill="#F9F9F9"/>
<rect x="70" y="293" width="450" height="8" rx="4" fill="#F9F9F9"/>
<rect x="70" y="199" width="450" height="8" rx="4" fill="#F9F9F9"/>
<rect x="70" y="255" width="450" height="8" rx="4" fill="#F9F9F9"/>
<rect x="70" y="311" width="450" height="8" rx="4" fill="#F9F9F9"/>
<rect x="70" y="218" width="450" height="8" rx="4" fill="#F9F9F9"/>
<rect x="70" y="274" width="450" height="8" rx="4" fill="#F9F9F9"/>
<rect x="70" y="330" width="450" height="8" rx="4" fill="#F9F9F9"/>
<g filter="url(#filter1_d_213_4480)">
<rect x="40" y="37" width="510" height="70" rx="16" fill="white"/>
</g>
<path d="M110.773 73.9922L112.749 67.0469H113.706L113.152 69.7471L111.026 77H110.076L110.773 73.9922ZM108.729 67.0469L110.302 73.8555L110.773 77H109.83L107.417 67.0469H108.729ZM116.263 73.8486L117.801 67.0469H119.12L116.714 77H115.771L116.263 73.8486ZM113.85 67.0469L115.771 73.9922L116.468 77H115.518L113.467 69.7471L112.906 67.0469H113.85ZM121.656 66.5V77H120.392V66.5H121.656ZM121.355 73.0215L120.829 73.001C120.834 72.4951 120.909 72.028 121.055 71.5996C121.201 71.1667 121.406 70.7907 121.67 70.4717C121.934 70.1527 122.249 69.9066 122.613 69.7334C122.982 69.5557 123.39 69.4668 123.837 69.4668C124.201 69.4668 124.53 69.5169 124.821 69.6172C125.113 69.7129 125.361 69.8678 125.566 70.082C125.776 70.2962 125.936 70.5742 126.045 70.916C126.154 71.2533 126.209 71.6657 126.209 72.1533V77H124.938V72.1396C124.938 71.7523 124.881 71.4424 124.767 71.21C124.653 70.973 124.486 70.8021 124.268 70.6973C124.049 70.5879 123.78 70.5332 123.461 70.5332C123.146 70.5332 122.859 70.5993 122.6 70.7314C122.344 70.8636 122.123 71.0459 121.937 71.2783C121.754 71.5107 121.611 71.7773 121.506 72.0781C121.406 72.3743 121.355 72.6888 121.355 73.0215ZM132.464 75.7354V71.9277C132.464 71.6361 132.405 71.3831 132.286 71.1689C132.172 70.9502 131.999 70.7816 131.767 70.6631C131.534 70.5446 131.247 70.4854 130.905 70.4854C130.586 70.4854 130.306 70.54 130.064 70.6494C129.827 70.7588 129.641 70.9023 129.504 71.0801C129.372 71.2578 129.306 71.4492 129.306 71.6543H128.041C128.041 71.39 128.109 71.1279 128.246 70.8682C128.383 70.6084 128.579 70.3737 128.834 70.1641C129.094 69.9499 129.404 69.7812 129.764 69.6582C130.128 69.5306 130.534 69.4668 130.98 69.4668C131.518 69.4668 131.992 69.5579 132.402 69.7402C132.817 69.9225 133.141 70.1982 133.373 70.5674C133.61 70.932 133.729 71.39 133.729 71.9414V75.3867C133.729 75.6328 133.749 75.8949 133.79 76.1729C133.836 76.4508 133.902 76.6901 133.988 76.8906V77H132.669C132.605 76.8542 132.555 76.6605 132.519 76.4189C132.482 76.1729 132.464 75.945 132.464 75.7354ZM132.683 72.5156L132.696 73.4043H131.418C131.058 73.4043 130.737 73.4339 130.454 73.4932C130.172 73.5479 129.935 73.6322 129.743 73.7461C129.552 73.86 129.406 74.0036 129.306 74.1768C129.205 74.3454 129.155 74.5436 129.155 74.7715C129.155 75.0039 129.208 75.2158 129.312 75.4072C129.417 75.5986 129.575 75.7513 129.784 75.8652C129.998 75.9746 130.26 76.0293 130.57 76.0293C130.958 76.0293 131.299 75.9473 131.596 75.7832C131.892 75.6191 132.127 75.4186 132.3 75.1816C132.478 74.9447 132.573 74.7145 132.587 74.4912L133.127 75.0996C133.095 75.291 133.008 75.5029 132.867 75.7354C132.726 75.9678 132.537 76.1911 132.3 76.4053C132.067 76.6149 131.789 76.7904 131.466 76.9316C131.147 77.0684 130.787 77.1367 130.386 77.1367C129.884 77.1367 129.445 77.0387 129.066 76.8428C128.693 76.6468 128.401 76.3848 128.191 76.0566C127.986 75.724 127.884 75.3525 127.884 74.9424C127.884 74.5459 127.961 74.1973 128.116 73.8965C128.271 73.5911 128.494 73.3382 128.786 73.1377C129.078 72.9326 129.429 72.7777 129.839 72.6729C130.249 72.568 130.707 72.5156 131.213 72.5156H132.683ZM138.814 69.6035V70.5742H134.815V69.6035H138.814ZM136.169 67.8057H137.434V75.168C137.434 75.4186 137.472 75.6077 137.55 75.7354C137.627 75.863 137.728 75.9473 137.851 75.9883C137.974 76.0293 138.106 76.0498 138.247 76.0498C138.352 76.0498 138.461 76.0407 138.575 76.0225C138.694 75.9997 138.783 75.9814 138.842 75.9678L138.849 77C138.748 77.0319 138.616 77.0615 138.452 77.0889C138.293 77.1208 138.099 77.1367 137.871 77.1367C137.561 77.1367 137.276 77.0752 137.017 76.9521C136.757 76.8291 136.549 76.624 136.395 76.3369C136.244 76.0452 136.169 75.6533 136.169 75.1611V67.8057ZM145.644 75.6875L147.544 69.6035H148.378L148.214 70.8135L146.279 77H145.466L145.644 75.6875ZM144.365 69.6035L145.985 75.7559L146.102 77H145.247L143.101 69.6035H144.365ZM150.196 75.708L151.741 69.6035H152.999L150.853 77H150.005L150.196 75.708ZM148.562 69.6035L150.422 75.585L150.634 77H149.827L147.838 70.7998L147.674 69.6035H148.562ZM153.963 73.3838V73.2266C153.963 72.6934 154.04 72.1989 154.195 71.7432C154.35 71.2829 154.574 70.8841 154.865 70.5469C155.157 70.2051 155.51 69.9408 155.925 69.7539C156.34 69.5625 156.804 69.4668 157.319 69.4668C157.839 69.4668 158.306 69.5625 158.721 69.7539C159.14 69.9408 159.495 70.2051 159.787 70.5469C160.083 70.8841 160.309 71.2829 160.464 71.7432C160.619 72.1989 160.696 72.6934 160.696 73.2266V73.3838C160.696 73.917 160.619 74.4115 160.464 74.8672C160.309 75.3229 160.083 75.7217 159.787 76.0635C159.495 76.4007 159.142 76.665 158.728 76.8564C158.317 77.0433 157.853 77.1367 157.333 77.1367C156.813 77.1367 156.346 77.0433 155.932 76.8564C155.517 76.665 155.161 76.4007 154.865 76.0635C154.574 75.7217 154.35 75.3229 154.195 74.8672C154.04 74.4115 153.963 73.917 153.963 73.3838ZM155.228 73.2266V73.3838C155.228 73.7529 155.271 74.1016 155.357 74.4297C155.444 74.7533 155.574 75.0404 155.747 75.291C155.925 75.5417 156.146 75.7399 156.41 75.8857C156.674 76.027 156.982 76.0977 157.333 76.0977C157.679 76.0977 157.982 76.027 158.242 75.8857C158.507 75.7399 158.725 75.5417 158.898 75.291C159.072 75.0404 159.201 74.7533 159.288 74.4297C159.379 74.1016 159.425 73.7529 159.425 73.3838V73.2266C159.425 72.862 159.379 72.5179 159.288 72.1943C159.201 71.8662 159.069 71.5768 158.892 71.3262C158.718 71.071 158.5 70.8704 158.235 70.7246C157.976 70.5788 157.67 70.5059 157.319 70.5059C156.973 70.5059 156.668 70.5788 156.403 70.7246C156.144 70.8704 155.925 71.071 155.747 71.3262C155.574 71.5768 155.444 71.8662 155.357 72.1943C155.271 72.5179 155.228 72.862 155.228 73.2266ZM166.808 75.291V69.6035H168.079V77H166.869L166.808 75.291ZM167.047 73.7324L167.573 73.7188C167.573 74.2109 167.521 74.6667 167.416 75.0859C167.316 75.5007 167.152 75.8607 166.924 76.166C166.696 76.4714 166.397 76.7106 166.028 76.8838C165.659 77.0524 165.21 77.1367 164.682 77.1367C164.322 77.1367 163.991 77.0843 163.69 76.9795C163.394 76.8747 163.139 76.7129 162.925 76.4941C162.711 76.2754 162.544 75.9906 162.426 75.6396C162.312 75.2887 162.255 74.8672 162.255 74.375V69.6035H163.52V74.3887C163.52 74.7214 163.556 74.9971 163.629 75.2158C163.706 75.43 163.809 75.6009 163.937 75.7285C164.069 75.8516 164.215 75.9382 164.374 75.9883C164.538 76.0384 164.707 76.0635 164.88 76.0635C165.418 76.0635 165.844 75.9609 166.158 75.7559C166.473 75.5462 166.698 75.266 166.835 74.915C166.976 74.5596 167.047 74.1654 167.047 73.7324ZM171.381 66.5V77H170.109V66.5H171.381ZM178.073 75.5645V66.5H179.345V77H178.183L178.073 75.5645ZM173.097 73.3838V73.2402C173.097 72.6751 173.165 72.1624 173.302 71.7021C173.443 71.2373 173.641 70.8385 173.896 70.5059C174.156 70.1732 174.464 69.918 174.819 69.7402C175.179 69.5579 175.58 69.4668 176.022 69.4668C176.487 69.4668 176.893 69.5488 177.239 69.7129C177.59 69.8724 177.886 70.1071 178.128 70.417C178.374 70.7223 178.568 71.0915 178.709 71.5244C178.85 71.9574 178.948 72.4473 179.003 72.9941V73.623C178.953 74.1654 178.855 74.653 178.709 75.0859C178.568 75.5189 178.374 75.888 178.128 76.1934C177.886 76.4987 177.59 76.7334 177.239 76.8975C176.888 77.057 176.478 77.1367 176.009 77.1367C175.576 77.1367 175.179 77.0433 174.819 76.8564C174.464 76.6696 174.156 76.4076 173.896 76.0703C173.641 75.7331 173.443 75.3366 173.302 74.8809C173.165 74.4206 173.097 73.9215 173.097 73.3838ZM174.368 73.2402V73.3838C174.368 73.7529 174.405 74.0993 174.478 74.4229C174.555 74.7464 174.674 75.0312 174.833 75.2773C174.993 75.5234 175.195 75.7171 175.441 75.8584C175.688 75.9951 175.981 76.0635 176.323 76.0635C176.743 76.0635 177.087 75.9746 177.355 75.7969C177.629 75.6191 177.848 75.3844 178.012 75.0928C178.176 74.8011 178.303 74.4844 178.395 74.1426V72.4951C178.34 72.2445 178.26 72.0029 178.155 71.7705C178.055 71.5335 177.923 71.3239 177.759 71.1416C177.599 70.9548 177.401 70.8066 177.164 70.6973C176.932 70.5879 176.656 70.5332 176.337 70.5332C175.991 70.5332 175.692 70.6061 175.441 70.752C175.195 70.8932 174.993 71.0892 174.833 71.3398C174.674 71.5859 174.555 71.873 174.478 72.2012C174.405 72.5247 174.368 72.8711 174.368 73.2402ZM186.864 76.2344L188.922 69.6035H190.275L187.309 78.1416C187.24 78.3239 187.149 78.5199 187.035 78.7295C186.926 78.9437 186.785 79.1465 186.611 79.3379C186.438 79.5293 186.229 79.6842 185.982 79.8027C185.741 79.9258 185.451 79.9873 185.114 79.9873C185.014 79.9873 184.886 79.9736 184.731 79.9463C184.576 79.9189 184.467 79.8962 184.403 79.8779L184.396 78.8525C184.433 78.8571 184.49 78.8617 184.567 78.8662C184.649 78.8753 184.706 78.8799 184.738 78.8799C185.025 78.8799 185.269 78.8411 185.47 78.7637C185.67 78.6908 185.839 78.5654 185.976 78.3877C186.117 78.2145 186.238 77.9753 186.338 77.6699L186.864 76.2344ZM185.354 69.6035L187.274 75.3457L187.603 76.6787L186.693 77.1436L183.973 69.6035H185.354ZM190.973 73.3838V73.2266C190.973 72.6934 191.05 72.1989 191.205 71.7432C191.36 71.2829 191.583 70.8841 191.875 70.5469C192.167 70.2051 192.52 69.9408 192.935 69.7539C193.349 69.5625 193.814 69.4668 194.329 69.4668C194.849 69.4668 195.316 69.5625 195.73 69.7539C196.15 69.9408 196.505 70.2051 196.797 70.5469C197.093 70.8841 197.319 71.2829 197.474 71.7432C197.629 72.1989 197.706 72.6934 197.706 73.2266V73.3838C197.706 73.917 197.629 74.4115 197.474 74.8672C197.319 75.3229 197.093 75.7217 196.797 76.0635C196.505 76.4007 196.152 76.665 195.737 76.8564C195.327 77.0433 194.862 77.1367 194.343 77.1367C193.823 77.1367 193.356 77.0433 192.941 76.8564C192.527 76.665 192.171 76.4007 191.875 76.0635C191.583 75.7217 191.36 75.3229 191.205 74.8672C191.05 74.4115 190.973 73.917 190.973 73.3838ZM192.237 73.2266V73.3838C192.237 73.7529 192.281 74.1016 192.367 74.4297C192.454 74.7533 192.584 75.0404 192.757 75.291C192.935 75.5417 193.156 75.7399 193.42 75.8857C193.684 76.027 193.992 76.0977 194.343 76.0977C194.689 76.0977 194.992 76.027 195.252 75.8857C195.516 75.7399 195.735 75.5417 195.908 75.291C196.081 75.0404 196.211 74.7533 196.298 74.4297C196.389 74.1016 196.435 73.7529 196.435 73.3838V73.2266C196.435 72.862 196.389 72.5179 196.298 72.1943C196.211 71.8662 196.079 71.5768 195.901 71.3262C195.728 71.071 195.509 70.8704 195.245 70.7246C194.985 70.5788 194.68 70.5059 194.329 70.5059C193.983 70.5059 193.677 70.5788 193.413 70.7246C193.153 70.8704 192.935 71.071 192.757 71.3262C192.584 71.5768 192.454 71.8662 192.367 72.1943C192.281 72.5179 192.237 72.862 192.237 73.2266ZM203.817 75.291V69.6035H205.089V77H203.879L203.817 75.291ZM204.057 73.7324L204.583 73.7188C204.583 74.2109 204.531 74.6667 204.426 75.0859C204.326 75.5007 204.161 75.8607 203.934 76.166C203.706 76.4714 203.407 76.7106 203.038 76.8838C202.669 77.0524 202.22 77.1367 201.691 77.1367C201.331 77.1367 201.001 77.0843 200.7 76.9795C200.404 76.8747 200.149 76.7129 199.935 76.4941C199.72 76.2754 199.554 75.9906 199.436 75.6396C199.322 75.2887 199.265 74.8672 199.265 74.375V69.6035H200.529V74.3887C200.529 74.7214 200.566 74.9971 200.639 75.2158C200.716 75.43 200.819 75.6009 200.946 75.7285C201.078 75.8516 201.224 75.9382 201.384 75.9883C201.548 76.0384 201.716 76.0635 201.89 76.0635C202.427 76.0635 202.854 75.9609 203.168 75.7559C203.482 75.5462 203.708 75.266 203.845 74.915C203.986 74.5596 204.057 74.1654 204.057 73.7324ZM211.863 66.5V77H210.592V66.5H211.863ZM215.268 69.6035V77H213.996V69.6035H215.268ZM213.9 67.6416C213.9 67.4365 213.962 67.2633 214.085 67.1221C214.213 66.9808 214.399 66.9102 214.646 66.9102C214.887 66.9102 215.072 66.9808 215.199 67.1221C215.331 67.2633 215.397 67.4365 215.397 67.6416C215.397 67.8376 215.331 68.0062 215.199 68.1475C215.072 68.2842 214.887 68.3525 214.646 68.3525C214.399 68.3525 214.213 68.2842 214.085 68.1475C213.962 68.0062 213.9 67.8376 213.9 67.6416ZM218.569 66.5V77H217.298V66.5H218.569ZM223.088 69.6035L219.861 73.0557L218.057 74.9287L217.954 73.582L219.246 72.0371L221.543 69.6035H223.088ZM221.933 77L219.294 73.4727L219.95 72.3447L223.423 77H221.933ZM227.326 77.1367C226.811 77.1367 226.344 77.0501 225.925 76.877C225.51 76.6992 225.152 76.4508 224.852 76.1318C224.555 75.8128 224.327 75.4346 224.168 74.9971C224.008 74.5596 223.929 74.0811 223.929 73.5615V73.2744C223.929 72.6729 224.018 72.1374 224.195 71.668C224.373 71.194 224.615 70.793 224.92 70.4648C225.225 70.1367 225.572 69.8883 225.959 69.7197C226.346 69.5511 226.747 69.4668 227.162 69.4668C227.691 69.4668 228.146 69.5579 228.529 69.7402C228.917 69.9225 229.233 70.1777 229.479 70.5059C229.726 70.8294 229.908 71.2122 230.026 71.6543C230.145 72.0918 230.204 72.5703 230.204 73.0898V73.6572H224.681V72.625H228.939V72.5293C228.921 72.2012 228.853 71.8822 228.734 71.5723C228.62 71.2624 228.438 71.0072 228.188 70.8066C227.937 70.6061 227.595 70.5059 227.162 70.5059C226.875 70.5059 226.611 70.5674 226.369 70.6904C226.128 70.8089 225.92 70.9867 225.747 71.2236C225.574 71.4606 225.439 71.75 225.344 72.0918C225.248 72.4336 225.2 72.8278 225.2 73.2744V73.5615C225.2 73.9124 225.248 74.2428 225.344 74.5527C225.444 74.8581 225.588 75.127 225.774 75.3594C225.966 75.5918 226.196 75.7741 226.465 75.9062C226.738 76.0384 227.048 76.1045 227.395 76.1045C227.841 76.1045 228.219 76.0133 228.529 75.8311C228.839 75.6488 229.11 75.4049 229.343 75.0996L230.108 75.708C229.949 75.9495 229.746 76.1797 229.5 76.3984C229.254 76.6172 228.951 76.7949 228.591 76.9316C228.235 77.0684 227.814 77.1367 227.326 77.1367ZM238.25 69.6035V70.5742H234.251V69.6035H238.25ZM235.604 67.8057H236.869V75.168C236.869 75.4186 236.908 75.6077 236.985 75.7354C237.063 75.863 237.163 75.9473 237.286 75.9883C237.409 76.0293 237.541 76.0498 237.683 76.0498C237.787 76.0498 237.897 76.0407 238.011 76.0225C238.129 75.9997 238.218 75.9814 238.277 75.9678L238.284 77C238.184 77.0319 238.052 77.0615 237.888 77.0889C237.728 77.1208 237.535 77.1367 237.307 77.1367C236.997 77.1367 236.712 77.0752 236.452 76.9521C236.192 76.8291 235.985 76.624 235.83 76.3369C235.68 76.0452 235.604 75.6533 235.604 75.1611V67.8057ZM239.262 73.3838V73.2266C239.262 72.6934 239.339 72.1989 239.494 71.7432C239.649 71.2829 239.872 70.8841 240.164 70.5469C240.456 70.2051 240.809 69.9408 241.224 69.7539C241.638 69.5625 242.103 69.4668 242.618 69.4668C243.138 69.4668 243.605 69.5625 244.02 69.7539C244.439 69.9408 244.794 70.2051 245.086 70.5469C245.382 70.8841 245.608 71.2829 245.763 71.7432C245.918 72.1989 245.995 72.6934 245.995 73.2266V73.3838C245.995 73.917 245.918 74.4115 245.763 74.8672C245.608 75.3229 245.382 75.7217 245.086 76.0635C244.794 76.4007 244.441 76.665 244.026 76.8564C243.616 77.0433 243.151 77.1367 242.632 77.1367C242.112 77.1367 241.645 77.0433 241.23 76.8564C240.816 76.665 240.46 76.4007 240.164 76.0635C239.872 75.7217 239.649 75.3229 239.494 74.8672C239.339 74.4115 239.262 73.917 239.262 73.3838ZM240.526 73.2266V73.3838C240.526 73.7529 240.57 74.1016 240.656 74.4297C240.743 74.7533 240.873 75.0404 241.046 75.291C241.224 75.5417 241.445 75.7399 241.709 75.8857C241.973 76.027 242.281 76.0977 242.632 76.0977C242.978 76.0977 243.281 76.027 243.541 75.8857C243.805 75.7399 244.024 75.5417 244.197 75.291C244.37 75.0404 244.5 74.7533 244.587 74.4297C244.678 74.1016 244.724 73.7529 244.724 73.3838V73.2266C244.724 72.862 244.678 72.5179 244.587 72.1943C244.5 71.8662 244.368 71.5768 244.19 71.3262C244.017 71.071 243.799 70.8704 243.534 70.7246C243.274 70.5788 242.969 70.5059 242.618 70.5059C242.272 70.5059 241.966 70.5788 241.702 70.7246C241.442 70.8704 241.224 71.071 241.046 71.3262C240.873 71.5768 240.743 71.8662 240.656 72.1943C240.57 72.5179 240.526 72.862 240.526 73.2266ZM252.927 75.6875L254.827 69.6035H255.661L255.497 70.8135L253.562 77H252.749L252.927 75.6875ZM251.648 69.6035L253.269 75.7559L253.385 77H252.53L250.384 69.6035H251.648ZM257.479 75.708L259.024 69.6035H260.282L258.136 77H257.288L257.479 75.708ZM255.846 69.6035L257.705 75.585L257.917 77H257.11L255.121 70.7998L254.957 69.6035H255.846ZM262.846 70.7656V77H261.581V69.6035H262.812L262.846 70.7656ZM265.156 69.5625L265.149 70.7383C265.045 70.7155 264.944 70.7018 264.849 70.6973C264.757 70.6882 264.653 70.6836 264.534 70.6836C264.243 70.6836 263.985 70.7292 263.762 70.8203C263.538 70.9115 263.349 71.0391 263.194 71.2031C263.039 71.3672 262.916 71.5632 262.825 71.791C262.739 72.0143 262.682 72.2604 262.654 72.5293L262.299 72.7344C262.299 72.2878 262.342 71.8685 262.429 71.4766C262.52 71.0846 262.659 70.7383 262.846 70.4375C263.033 70.1322 263.27 69.8952 263.557 69.7266C263.848 69.5534 264.195 69.4668 264.596 69.4668C264.687 69.4668 264.792 69.4782 264.91 69.501C265.029 69.5192 265.111 69.5397 265.156 69.5625ZM267.699 69.6035V77H266.428V69.6035H267.699ZM266.332 67.6416C266.332 67.4365 266.394 67.2633 266.517 67.1221C266.644 66.9808 266.831 66.9102 267.077 66.9102C267.319 66.9102 267.503 66.9808 267.631 67.1221C267.763 67.2633 267.829 67.4365 267.829 67.6416C267.829 67.8376 267.763 68.0062 267.631 68.1475C267.503 68.2842 267.319 68.3525 267.077 68.3525C266.831 68.3525 266.644 68.2842 266.517 68.1475C266.394 68.0062 266.332 67.8376 266.332 67.6416ZM272.826 69.6035V70.5742H268.827V69.6035H272.826ZM270.181 67.8057H271.445V75.168C271.445 75.4186 271.484 75.6077 271.562 75.7354C271.639 75.863 271.739 75.9473 271.862 75.9883C271.985 76.0293 272.118 76.0498 272.259 76.0498C272.364 76.0498 272.473 76.0407 272.587 76.0225C272.705 75.9997 272.794 75.9814 272.854 75.9678L272.86 77C272.76 77.0319 272.628 77.0615 272.464 77.0889C272.304 77.1208 272.111 77.1367 271.883 77.1367C271.573 77.1367 271.288 77.0752 271.028 76.9521C270.769 76.8291 270.561 76.624 270.406 76.3369C270.256 76.0452 270.181 75.6533 270.181 75.1611V67.8057ZM277.379 77.1367C276.864 77.1367 276.397 77.0501 275.978 76.877C275.563 76.6992 275.205 76.4508 274.904 76.1318C274.608 75.8128 274.38 75.4346 274.221 74.9971C274.061 74.5596 273.981 74.0811 273.981 73.5615V73.2744C273.981 72.6729 274.07 72.1374 274.248 71.668C274.426 71.194 274.667 70.793 274.973 70.4648C275.278 70.1367 275.624 69.8883 276.012 69.7197C276.399 69.5511 276.8 69.4668 277.215 69.4668C277.743 69.4668 278.199 69.5579 278.582 69.7402C278.969 69.9225 279.286 70.1777 279.532 70.5059C279.778 70.8294 279.961 71.2122 280.079 71.6543C280.198 72.0918 280.257 72.5703 280.257 73.0898V73.6572H274.733V72.625H278.992V72.5293C278.974 72.2012 278.906 71.8822 278.787 71.5723C278.673 71.2624 278.491 71.0072 278.24 70.8066C277.99 70.6061 277.648 70.5059 277.215 70.5059C276.928 70.5059 276.663 70.5674 276.422 70.6904C276.18 70.8089 275.973 70.9867 275.8 71.2236C275.627 71.4606 275.492 71.75 275.396 72.0918C275.301 72.4336 275.253 72.8278 275.253 73.2744V73.5615C275.253 73.9124 275.301 74.2428 275.396 74.5527C275.497 74.8581 275.64 75.127 275.827 75.3594C276.019 75.5918 276.249 75.7741 276.518 75.9062C276.791 76.0384 277.101 76.1045 277.447 76.1045C277.894 76.1045 278.272 76.0133 278.582 75.8311C278.892 75.6488 279.163 75.4049 279.396 75.0996L280.161 75.708C280.002 75.9495 279.799 76.1797 279.553 76.3984C279.307 76.6172 279.004 76.7949 278.644 76.9316C278.288 77.0684 277.867 77.1367 277.379 77.1367ZM289.567 75.7354V71.9277C289.567 71.6361 289.508 71.3831 289.39 71.1689C289.276 70.9502 289.103 70.7816 288.87 70.6631C288.638 70.5446 288.351 70.4854 288.009 70.4854C287.69 70.4854 287.41 70.54 287.168 70.6494C286.931 70.7588 286.744 70.9023 286.607 71.0801C286.475 71.2578 286.409 71.4492 286.409 71.6543H285.145C285.145 71.39 285.213 71.1279 285.35 70.8682C285.486 70.6084 285.682 70.3737 285.938 70.1641C286.197 69.9499 286.507 69.7812 286.867 69.6582C287.232 69.5306 287.637 69.4668 288.084 69.4668C288.622 69.4668 289.096 69.5579 289.506 69.7402C289.921 69.9225 290.244 70.1982 290.477 70.5674C290.714 70.932 290.832 71.39 290.832 71.9414V75.3867C290.832 75.6328 290.853 75.8949 290.894 76.1729C290.939 76.4508 291.005 76.6901 291.092 76.8906V77H289.772C289.709 76.8542 289.659 76.6605 289.622 76.4189C289.586 76.1729 289.567 75.945 289.567 75.7354ZM289.786 72.5156L289.8 73.4043H288.521C288.161 73.4043 287.84 73.4339 287.558 73.4932C287.275 73.5479 287.038 73.6322 286.847 73.7461C286.655 73.86 286.509 74.0036 286.409 74.1768C286.309 74.3454 286.259 74.5436 286.259 74.7715C286.259 75.0039 286.311 75.2158 286.416 75.4072C286.521 75.5986 286.678 75.7513 286.888 75.8652C287.102 75.9746 287.364 76.0293 287.674 76.0293C288.061 76.0293 288.403 75.9473 288.699 75.7832C288.995 75.6191 289.23 75.4186 289.403 75.1816C289.581 74.9447 289.677 74.7145 289.69 74.4912L290.23 75.0996C290.199 75.291 290.112 75.5029 289.971 75.7354C289.829 75.9678 289.64 76.1911 289.403 76.4053C289.171 76.6149 288.893 76.7904 288.569 76.9316C288.25 77.0684 287.89 77.1367 287.489 77.1367C286.988 77.1367 286.548 77.0387 286.17 76.8428C285.796 76.6468 285.505 76.3848 285.295 76.0566C285.09 75.724 284.987 75.3525 284.987 74.9424C284.987 74.5459 285.065 74.1973 285.22 73.8965C285.375 73.5911 285.598 73.3382 285.89 73.1377C286.181 72.9326 286.532 72.7777 286.942 72.6729C287.353 72.568 287.811 72.5156 288.316 72.5156H289.786ZM292.814 66.5H294.086V75.5645L293.977 77H292.814V66.5ZM299.083 73.2402V73.3838C299.083 73.9215 299.019 74.4206 298.892 74.8809C298.764 75.3366 298.577 75.7331 298.331 76.0703C298.085 76.4076 297.784 76.6696 297.429 76.8564C297.073 77.0433 296.665 77.1367 296.205 77.1367C295.736 77.1367 295.323 77.057 294.968 76.8975C294.617 76.7334 294.321 76.4987 294.079 76.1934C293.838 75.888 293.644 75.5189 293.498 75.0859C293.357 74.653 293.259 74.1654 293.204 73.623V72.9941C293.259 72.4473 293.357 71.9574 293.498 71.5244C293.644 71.0915 293.838 70.7223 294.079 70.417C294.321 70.1071 294.617 69.8724 294.968 69.7129C295.319 69.5488 295.727 69.4668 296.191 69.4668C296.656 69.4668 297.069 69.5579 297.429 69.7402C297.789 69.918 298.09 70.1732 298.331 70.5059C298.577 70.8385 298.764 71.2373 298.892 71.7021C299.019 72.1624 299.083 72.6751 299.083 73.2402ZM297.812 73.3838V73.2402C297.812 72.8711 297.777 72.5247 297.709 72.2012C297.641 71.873 297.531 71.5859 297.381 71.3398C297.23 71.0892 297.032 70.8932 296.786 70.752C296.54 70.6061 296.237 70.5332 295.877 70.5332C295.558 70.5332 295.28 70.5879 295.043 70.6973C294.811 70.8066 294.612 70.9548 294.448 71.1416C294.284 71.3239 294.15 71.5335 294.045 71.7705C293.945 72.0029 293.869 72.2445 293.819 72.4951V74.1426C293.892 74.4616 294.011 74.7692 294.175 75.0654C294.343 75.3571 294.567 75.5964 294.845 75.7832C295.127 75.9701 295.476 76.0635 295.891 76.0635C296.232 76.0635 296.524 75.9951 296.766 75.8584C297.012 75.7171 297.21 75.5234 297.36 75.2773C297.515 75.0312 297.629 74.7464 297.702 74.4229C297.775 74.0993 297.812 73.7529 297.812 73.3838ZM300.348 73.3838V73.2266C300.348 72.6934 300.425 72.1989 300.58 71.7432C300.735 71.2829 300.958 70.8841 301.25 70.5469C301.542 70.2051 301.895 69.9408 302.31 69.7539C302.724 69.5625 303.189 69.4668 303.704 69.4668C304.224 69.4668 304.691 69.5625 305.105 69.7539C305.525 69.9408 305.88 70.2051 306.172 70.5469C306.468 70.8841 306.694 71.2829 306.849 71.7432C307.004 72.1989 307.081 72.6934 307.081 73.2266V73.3838C307.081 73.917 307.004 74.4115 306.849 74.8672C306.694 75.3229 306.468 75.7217 306.172 76.0635C305.88 76.4007 305.527 76.665 305.112 76.8564C304.702 77.0433 304.237 77.1367 303.718 77.1367C303.198 77.1367 302.731 77.0433 302.316 76.8564C301.902 76.665 301.546 76.4007 301.25 76.0635C300.958 75.7217 300.735 75.3229 300.58 74.8672C300.425 74.4115 300.348 73.917 300.348 73.3838ZM301.612 73.2266V73.3838C301.612 73.7529 301.656 74.1016 301.742 74.4297C301.829 74.7533 301.959 75.0404 302.132 75.291C302.31 75.5417 302.531 75.7399 302.795 75.8857C303.059 76.027 303.367 76.0977 303.718 76.0977C304.064 76.0977 304.367 76.027 304.627 75.8857C304.891 75.7399 305.11 75.5417 305.283 75.291C305.456 75.0404 305.586 74.7533 305.673 74.4297C305.764 74.1016 305.81 73.7529 305.81 73.3838V73.2266C305.81 72.862 305.764 72.5179 305.673 72.1943C305.586 71.8662 305.454 71.5768 305.276 71.3262C305.103 71.071 304.884 70.8704 304.62 70.7246C304.36 70.5788 304.055 70.5059 303.704 70.5059C303.358 70.5059 303.052 70.5788 302.788 70.7246C302.528 70.8704 302.31 71.071 302.132 71.3262C301.959 71.5768 301.829 71.8662 301.742 72.1943C301.656 72.5179 301.612 72.862 301.612 73.2266ZM313.192 75.291V69.6035H314.464V77H313.254L313.192 75.291ZM313.432 73.7324L313.958 73.7188C313.958 74.2109 313.906 74.6667 313.801 75.0859C313.701 75.5007 313.536 75.8607 313.309 76.166C313.081 76.4714 312.782 76.7106 312.413 76.8838C312.044 77.0524 311.595 77.1367 311.066 77.1367C310.706 77.1367 310.376 77.0843 310.075 76.9795C309.779 76.8747 309.524 76.7129 309.31 76.4941C309.095 76.2754 308.929 75.9906 308.811 75.6396C308.697 75.2887 308.64 74.8672 308.64 74.375V69.6035H309.904V74.3887C309.904 74.7214 309.941 74.9971 310.014 75.2158C310.091 75.43 310.194 75.6009 310.321 75.7285C310.453 75.8516 310.599 75.9382 310.759 75.9883C310.923 76.0384 311.091 76.0635 311.265 76.0635C311.802 76.0635 312.229 75.9609 312.543 75.7559C312.857 75.5462 313.083 75.266 313.22 74.915C313.361 74.5596 313.432 74.1654 313.432 73.7324ZM319.488 69.6035V70.5742H315.489V69.6035H319.488ZM316.843 67.8057H318.107V75.168C318.107 75.4186 318.146 75.6077 318.224 75.7354C318.301 75.863 318.401 75.9473 318.524 75.9883C318.647 76.0293 318.78 76.0498 318.921 76.0498C319.026 76.0498 319.135 76.0407 319.249 76.0225C319.368 75.9997 319.456 75.9814 319.516 75.9678L319.522 77C319.422 77.0319 319.29 77.0615 319.126 77.0889C318.966 77.1208 318.773 77.1367 318.545 77.1367C318.235 77.1367 317.95 77.0752 317.69 76.9521C317.431 76.8291 317.223 76.624 317.068 76.3369C316.918 76.0452 316.843 75.6533 316.843 75.1611V67.8057ZM323.72 74.1973H322.448C322.453 73.7598 322.492 73.402 322.564 73.124C322.642 72.8415 322.767 72.584 322.94 72.3516C323.114 72.1191 323.344 71.8548 323.631 71.5586C323.84 71.3444 324.032 71.1439 324.205 70.957C324.383 70.7656 324.526 70.5605 324.636 70.3418C324.745 70.1185 324.8 69.8519 324.8 69.542C324.8 69.2275 324.743 68.9564 324.629 68.7285C324.52 68.5007 324.355 68.3252 324.137 68.2021C323.923 68.0791 323.656 68.0176 323.337 68.0176C323.073 68.0176 322.822 68.0654 322.585 68.1611C322.348 68.2568 322.157 68.4049 322.011 68.6055C321.865 68.8014 321.79 69.0589 321.785 69.3779H320.521C320.53 68.863 320.657 68.4209 320.903 68.0518C321.154 67.6826 321.491 67.4001 321.915 67.2041C322.339 67.0081 322.813 66.9102 323.337 66.9102C323.916 66.9102 324.408 67.015 324.813 67.2246C325.224 67.4342 325.536 67.735 325.75 68.127C325.964 68.5143 326.071 68.9746 326.071 69.5078C326.071 69.918 325.987 70.2962 325.818 70.6426C325.654 70.9844 325.442 71.3057 325.183 71.6064C324.923 71.9072 324.647 72.1943 324.355 72.4678C324.105 72.7002 323.936 72.9622 323.85 73.2539C323.763 73.5456 323.72 73.86 323.72 74.1973ZM322.394 76.3643C322.394 76.1592 322.457 75.986 322.585 75.8447C322.713 75.7035 322.897 75.6328 323.139 75.6328C323.385 75.6328 323.572 75.7035 323.699 75.8447C323.827 75.986 323.891 76.1592 323.891 76.3643C323.891 76.5602 323.827 76.7288 323.699 76.8701C323.572 77.0114 323.385 77.082 323.139 77.082C322.897 77.082 322.713 77.0114 322.585 76.8701C322.457 76.7288 322.394 76.5602 322.394 76.3643Z" fill="#1C1C1C"/>
<g clip-path="url(#clip0_213_4480)">
<path d="M78.3235 67.4519C77.155 68.3375 76.0495 69.3032 75.0149 70.3422C70.1395 75.2176 67.6709 80.6502 69.4983 82.4793C71.3258 84.3068 76.7601 81.8365 81.6338 76.9628C82.6728 75.9277 83.6385 74.8216 84.5241 73.6525" stroke="#8686C3" stroke-width="1.6" stroke-linecap="round" stroke-linejoin="round"/>
<path d="M84.5241 73.6526C87.399 77.4686 88.5698 81.0583 87.1504 82.4777C85.3212 84.3069 79.8887 81.8366 75.0132 76.9629C70.1412 72.0857 67.6727 66.6549 69.5001 64.8257C70.9195 63.408 74.5092 64.5789 78.3252 67.452" stroke="#8686C3" stroke-width="1.6" stroke-linecap="round" stroke-linejoin="round"/>
<path d="M77.4663 73.6525C77.4663 73.8798 77.5566 74.0979 77.7174 74.2586C77.8781 74.4193 78.0961 74.5097 78.3235 74.5097C78.5508 74.5097 78.7688 74.4193 78.9295 74.2586C79.0903 74.0979 79.1806 73.8798 79.1806 73.6525C79.1806 73.4252 79.0903 73.2072 78.9295 73.0464C78.7688 72.8857 78.5508 72.7954 78.3235 72.7954C78.0961 72.7954 77.8781 72.8857 77.7174 73.0464C77.5566 73.2072 77.4663 73.4252 77.4663 73.6525ZM81.7692 66.1885C81.2292 66.0942 81.2292 65.3211 81.7692 65.2285C82.7229 65.0626 83.6056 64.6164 84.3048 63.9469C85.0039 63.2773 85.4879 62.4147 85.6949 61.4691L85.7257 61.3199C85.8423 60.7885 86.6 60.7851 86.72 61.3148L86.7612 61.4879C86.9759 62.4294 87.4641 63.2864 88.1644 63.9513C88.8647 64.6162 89.7458 65.0594 90.6972 65.2251C91.2389 65.3194 91.2389 66.0977 90.6972 66.1902C89.7458 66.3559 88.8647 66.7991 88.1644 67.464C87.4641 68.1289 86.9759 68.9859 86.7612 69.9274L86.72 70.1005C86.6 70.6319 85.8423 70.6285 85.7257 70.0971L85.6915 69.9479C85.4844 69.0023 85.0005 68.1397 84.3013 67.4701C83.6022 66.8006 82.7195 66.3544 81.7657 66.1885H81.7692Z" stroke="#8686C3" stroke-width="1.6" stroke-linecap="round" stroke-linejoin="round"/>
</g>
<defs>
<filter id="filter0_d_213_4480" x="25" y="106" width="540" height="273" filterUnits="userSpaceOnUse" color-interpolation-filters="sRGB">
<feFlood flood-opacity="0" result="BackgroundImageFix"/>
<feColorMatrix in="SourceAlpha" type="matrix" values="0 0 0 0 0 0 0 0 0 0 0 0 0 0 0 0 0 0 127 0" result="hardAlpha"/>
<feOffset dy="4"/>
<feGaussianBlur stdDeviation="7.5"/>
<feComposite in2="hardAlpha" operator="out"/>
<feColorMatrix type="matrix" values="0 0 0 0 0 0 0 0 0 0 0 0 0 0 0 0 0 0 0.15 0"/>
<feBlend mode="normal" in2="BackgroundImageFix" result="effect1_dropShadow_213_4480"/>
<feBlend mode="normal" in="SourceGraphic" in2="effect1_dropShadow_213_4480" result="shape"/>
</filter>
<filter id="filter1_d_213_4480" x="25" y="26" width="540" height="100" filterUnits="userSpaceOnUse" color-interpolation-filters="sRGB">
<feFlood flood-opacity="0" result="BackgroundImageFix"/>
<feColorMatrix in="SourceAlpha" type="matrix" values="0 0 0 0 0 0 0 0 0 0 0 0 0 0 0 0 0 0 127 0" result="hardAlpha"/>
<feOffset dy="4"/>
<feGaussianBlur stdDeviation="7.5"/>
<feComposite in2="hardAlpha" operator="out"/>
<feColorMatrix type="matrix" values="0 0 0 0 0 0 0 0 0 0 0 0 0 0 0 0 0 0 0.15 0"/>
<feBlend mode="normal" in2="BackgroundImageFix" result="effect1_dropShadow_213_4480"/>
<feBlend mode="normal" in="SourceGraphic" in2="effect1_dropShadow_213_4480" result="shape"/>
</filter>
<clipPath id="clip0_213_4480">
<rect width="24" height="24" fill="white" transform="translate(68 60)"/>
</clipPath>
</defs>
</svg>
