<svg width="600" height="409" viewBox="0 0 600 409" fill="none" xmlns="http://www.w3.org/2000/svg">
<line x1="299" y1="134" x2="299" y2="84" stroke="#8D8D8D" stroke-width="2" stroke-dasharray="4 4"/>
<line x1="99" y1="338" x2="99" y2="138" stroke="#8D8D8D" stroke-width="2" stroke-dasharray="4 4"/>
<line x1="298" y1="318" x2="298" y2="218" stroke="#8D8D8D" stroke-width="2" stroke-dasharray="4 4"/>
<line x1="501" y1="338" x2="501" y2="138" stroke="#8D8D8D" stroke-width="2" stroke-dasharray="4 4"/>
<line x1="299" y1="184" x2="299" y2="134" stroke="#8D8D8D" stroke-width="2" stroke-dasharray="4 4"/>
<line x1="299" y1="134" x2="449" y2="134" stroke="#8D8D8D" stroke-width="2" stroke-dasharray="4 4"/>
<line x1="150" y1="134" x2="300" y2="134" stroke="#8D8D8D" stroke-width="2" stroke-dasharray="4 4"/>
<line x1="137" y1="346" x2="237" y2="346" stroke="#8D8D8D" stroke-width="2" stroke-dasharray="4 4"/>
<line x1="349" y1="346" x2="449" y2="346" stroke="#8D8D8D" stroke-width="2" stroke-dasharray="4 4"/>
<line x1="260" y1="64" x2="280" y2="64" stroke="#8D8D8D" stroke-width="2" stroke-dasharray="4 4"/>
<line x1="325" y1="64" x2="345" y2="64" stroke="#8D8D8D" stroke-width="2" stroke-dasharray="4 4"/>
<g filter="url(#filter0_d_437_2771)">
<rect x="15" y="110" width="186" height="50" fill="white"/>
<rect x="15" y="110" width="50" height="50" fill="#8686C3"/>
<g clip-path="url(#clip0_437_2771)">
<path d="M56.5943 147.055C56.5943 147.737 56.3561 148.317 55.8795 148.793L53.8125 150.88C53.3102 151.356 52.7242 151.594 52.0545 151.594C51.372 151.594 50.7924 151.356 50.3159 150.88L43.3034 143.848C42.814 143.384 42.5693 142.805 42.5693 142.109C42.5693 141.427 42.8462 140.808 43.4 140.255L38.4545 135.309L36.0205 137.743C35.8401 137.923 35.6212 138.014 35.3636 138.014C35.1061 138.014 34.8871 137.923 34.7068 137.743C34.7326 137.769 34.8131 137.846 34.9483 137.975C35.0835 138.104 35.164 138.187 35.1898 138.226C35.2155 138.265 35.2799 138.339 35.3829 138.448C35.486 138.558 35.5504 138.645 35.5761 138.709C35.6019 138.773 35.6405 138.86 35.692 138.97C35.7436 139.079 35.779 139.186 35.7983 139.289C35.8176 139.392 35.8273 139.508 35.8273 139.636C35.8273 140.126 35.647 140.564 35.2864 140.95C35.2477 140.989 35.1415 141.105 34.9676 141.298C34.7937 141.491 34.6714 141.623 34.6006 141.694C34.5297 141.765 34.4106 141.871 34.2432 142.012C34.0758 142.154 33.9341 142.254 33.8182 142.312C33.7023 142.37 33.5606 142.428 33.3932 142.486C33.2258 142.544 33.0583 142.573 32.8909 142.573C32.3758 142.573 31.9379 142.392 31.5773 142.032L23.6955 134.15C23.3348 133.789 23.1545 133.352 23.1545 132.836C23.1545 132.669 23.1835 132.502 23.2415 132.334C23.2994 132.167 23.3574 132.025 23.4153 131.909C23.4733 131.793 23.5731 131.652 23.7148 131.484C23.8564 131.317 23.9627 131.198 24.0335 131.127C24.1044 131.056 24.2364 130.934 24.4295 130.76C24.6227 130.586 24.7386 130.48 24.7773 130.441C25.1636 130.08 25.6015 129.9 26.0909 129.9C26.2197 129.9 26.3356 129.91 26.4386 129.929C26.5417 129.948 26.6479 129.984 26.7574 130.035C26.8669 130.087 26.9538 130.125 27.0182 130.151C27.0826 130.177 27.1695 130.241 27.279 130.344C27.3884 130.447 27.4625 130.512 27.5011 130.537C27.5398 130.563 27.6235 130.644 27.7523 130.779C27.8811 130.914 27.9583 130.995 27.9841 131.02C27.8038 130.84 27.7136 130.621 27.7136 130.364C27.7136 130.106 27.8038 129.887 27.9841 129.707L34.7068 122.984C34.8871 122.804 35.1061 122.714 35.3636 122.714C35.6212 122.714 35.8401 122.804 36.0205 122.984C35.9947 122.958 35.9142 122.881 35.779 122.752C35.6437 122.623 35.5633 122.54 35.5375 122.501C35.5117 122.462 35.4473 122.388 35.3443 122.279C35.2413 122.17 35.1769 122.083 35.1511 122.018C35.1254 121.954 35.0867 121.867 35.0352 121.757C34.9837 121.648 34.9483 121.542 34.929 121.439C34.9097 121.336 34.9 121.22 34.9 121.091C34.9 120.602 35.0803 120.164 35.4409 119.777C35.4795 119.739 35.5858 119.623 35.7597 119.43C35.9335 119.236 36.0559 119.104 36.1267 119.034C36.1975 118.963 36.3167 118.856 36.4841 118.715C36.6515 118.573 36.7932 118.473 36.9091 118.415C37.025 118.357 37.1667 118.299 37.3341 118.241C37.5015 118.184 37.6689 118.155 37.8364 118.155C38.3515 118.155 38.7894 118.335 39.15 118.695L47.0318 126.577C47.3924 126.938 47.5727 127.376 47.5727 127.891C47.5727 128.058 47.5437 128.226 47.4858 128.393C47.4278 128.561 47.3699 128.702 47.3119 128.818C47.254 128.934 47.1542 129.076 47.0125 129.243C46.8708 129.411 46.7646 129.53 46.6937 129.601C46.6229 129.671 46.4909 129.794 46.2977 129.968C46.1045 130.141 45.9886 130.248 45.95 130.286C45.5636 130.647 45.1258 130.827 44.6364 130.827C44.5076 130.827 44.3917 130.818 44.2886 130.798C44.1856 130.779 44.0794 130.744 43.9699 130.692C43.8604 130.641 43.7735 130.602 43.7091 130.576C43.6447 130.55 43.5578 130.486 43.4483 130.383C43.3388 130.28 43.2648 130.216 43.2261 130.19C43.1875 130.164 43.1038 130.084 42.975 129.948C42.8462 129.813 42.7689 129.733 42.7432 129.707C42.9235 129.887 43.0136 130.106 43.0136 130.364C43.0136 130.621 42.9235 130.84 42.7432 131.02L40.3091 133.455L45.2545 138.4C45.8083 137.846 46.4265 137.569 47.1091 137.569C47.7788 137.569 48.3648 137.808 48.867 138.284L55.8795 145.297C56.3561 145.799 56.5943 146.385 56.5943 147.055Z" fill="white"/>
</g>
<path d="M80.9588 131V122.273H82.2756V129.866H86.2301V131H80.9588ZM90.451 131.132C89.8061 131.132 89.2507 130.994 88.7848 130.719C88.3217 130.44 87.9638 130.05 87.7109 129.547C87.4609 129.041 87.3359 128.449 87.3359 127.77C87.3359 127.099 87.4609 126.509 87.7109 125.997C87.9638 125.486 88.3161 125.087 88.7678 124.8C89.2223 124.513 89.7536 124.369 90.3615 124.369C90.7308 124.369 91.0888 124.43 91.4354 124.553C91.782 124.675 92.093 124.866 92.3686 125.128C92.6442 125.389 92.8615 125.729 93.0206 126.146C93.1797 126.561 93.2592 127.065 93.2592 127.659V128.111H88.0561V127.156H92.0107C92.0107 126.821 91.9425 126.524 91.8061 126.266C91.6697 126.004 91.478 125.798 91.2308 125.648C90.9865 125.497 90.6996 125.422 90.37 125.422C90.0121 125.422 89.6996 125.51 89.4325 125.686C89.1683 125.859 88.9638 126.087 88.8189 126.368C88.6768 126.646 88.6058 126.949 88.6058 127.276V128.021C88.6058 128.459 88.6825 128.831 88.8359 129.138C88.9922 129.445 89.2095 129.679 89.4879 129.841C89.7663 130 90.0916 130.08 90.4638 130.08C90.7053 130.08 90.9254 130.045 91.1243 129.977C91.3232 129.906 91.495 129.801 91.6399 129.662C91.7848 129.523 91.8956 129.351 91.9723 129.146L93.1783 129.364C93.0817 129.719 92.9084 130.03 92.6584 130.297C92.4112 130.561 92.1001 130.767 91.7251 130.915C91.353 131.06 90.9283 131.132 90.451 131.132ZM97.4173 133.591C96.8974 133.591 96.4499 133.523 96.0749 133.386C95.7028 133.25 95.3988 133.07 95.163 132.845C94.9272 132.621 94.7511 132.375 94.6346 132.108L95.7298 131.656C95.8065 131.781 95.9087 131.913 96.0366 132.053C96.1673 132.195 96.3434 132.315 96.565 132.415C96.7894 132.514 97.0778 132.564 97.43 132.564C97.913 132.564 98.3121 132.446 98.6275 132.21C98.9428 131.977 99.1005 131.605 99.1005 131.094V129.807H99.0195C98.9428 129.946 98.832 130.101 98.6871 130.271C98.5451 130.442 98.3491 130.589 98.0991 130.714C97.8491 130.839 97.5238 130.902 97.1232 130.902C96.6062 130.902 96.1403 130.781 95.7255 130.54C95.3136 130.295 94.9869 129.936 94.7454 129.462C94.5067 128.984 94.3874 128.398 94.3874 127.702C94.3874 127.006 94.5053 126.409 94.7411 125.912C94.9798 125.415 95.3065 125.034 95.7212 124.77C96.136 124.503 96.6062 124.369 97.1317 124.369C97.538 124.369 97.8661 124.438 98.1161 124.574C98.3661 124.707 98.5607 124.864 98.6999 125.043C98.842 125.222 98.9513 125.379 99.0281 125.516H99.1218V124.455H100.37V131.145C100.37 131.707 100.24 132.169 99.9783 132.53C99.717 132.891 99.3633 133.158 98.9173 133.331C98.4741 133.504 97.9741 133.591 97.4173 133.591ZM97.4045 129.845C97.771 129.845 98.0806 129.76 98.3335 129.589C98.5891 129.416 98.7823 129.169 98.913 128.848C99.0465 128.524 99.1133 128.136 99.1133 127.685C99.1133 127.244 99.0479 126.857 98.9173 126.521C98.7866 126.186 98.5948 125.925 98.342 125.737C98.0891 125.547 97.7766 125.452 97.4045 125.452C97.021 125.452 96.7013 125.551 96.4457 125.75C96.19 125.946 95.9968 126.213 95.8661 126.551C95.7383 126.889 95.6744 127.267 95.6744 127.685C95.6744 128.114 95.7397 128.49 95.8704 128.814C96.0011 129.138 96.1942 129.391 96.4499 129.572C96.7085 129.754 97.0266 129.845 97.4045 129.845ZM103.984 131.145C103.569 131.145 103.194 131.068 102.859 130.915C102.524 130.759 102.258 130.533 102.062 130.237C101.869 129.942 101.772 129.58 101.772 129.151C101.772 128.781 101.843 128.477 101.985 128.239C102.127 128 102.319 127.811 102.561 127.672C102.802 127.533 103.072 127.428 103.37 127.357C103.669 127.286 103.973 127.232 104.282 127.195C104.674 127.149 104.993 127.112 105.237 127.084C105.481 127.053 105.659 127.003 105.77 126.935C105.88 126.866 105.936 126.756 105.936 126.602V126.572C105.936 126.2 105.831 125.912 105.62 125.707C105.413 125.503 105.103 125.401 104.691 125.401C104.262 125.401 103.924 125.496 103.677 125.686C103.433 125.874 103.264 126.082 103.17 126.312L101.973 126.04C102.115 125.642 102.322 125.321 102.595 125.077C102.87 124.83 103.187 124.651 103.545 124.54C103.903 124.426 104.279 124.369 104.674 124.369C104.936 124.369 105.213 124.401 105.505 124.463C105.801 124.523 106.076 124.634 106.332 124.795C106.591 124.957 106.802 125.189 106.967 125.49C107.132 125.788 107.214 126.176 107.214 126.653V131H105.97V130.105H105.919C105.836 130.27 105.713 130.432 105.548 130.591C105.383 130.75 105.172 130.882 104.913 130.987C104.654 131.092 104.345 131.145 103.984 131.145ZM104.261 130.122C104.613 130.122 104.914 130.053 105.164 129.913C105.417 129.774 105.609 129.592 105.74 129.368C105.873 129.141 105.94 128.898 105.94 128.639V127.795C105.895 127.841 105.806 127.884 105.676 127.923C105.548 127.96 105.402 127.993 105.237 128.021C105.072 128.047 104.912 128.071 104.755 128.094C104.599 128.114 104.468 128.131 104.363 128.145C104.116 128.176 103.89 128.229 103.686 128.303C103.484 128.376 103.322 128.483 103.2 128.622C103.081 128.759 103.021 128.94 103.021 129.168C103.021 129.483 103.137 129.722 103.37 129.884C103.603 130.043 103.9 130.122 104.261 130.122ZM110.185 122.273V131H108.911V122.273H110.185Z" fill="black"/>
<path d="M81.0568 148V139.273H82.1136V147.062H86.1705V148H81.0568ZM90.4148 148.136C89.7841 148.136 89.2401 147.997 88.7827 147.719C88.3281 147.438 87.9773 147.045 87.7301 146.543C87.4858 146.037 87.3636 145.449 87.3636 144.778C87.3636 144.108 87.4858 143.517 87.7301 143.006C87.9773 142.491 88.321 142.091 88.7614 141.804C89.2045 141.514 89.7216 141.369 90.3125 141.369C90.6534 141.369 90.9901 141.426 91.3224 141.54C91.6548 141.653 91.9574 141.838 92.2301 142.094C92.5028 142.347 92.7202 142.682 92.8821 143.099C93.044 143.517 93.125 144.031 93.125 144.642V145.068H88.0795V144.199H92.1023C92.1023 143.83 92.0284 143.5 91.8807 143.21C91.7358 142.92 91.5284 142.692 91.2585 142.524C90.9915 142.357 90.6761 142.273 90.3125 142.273C89.9119 142.273 89.5653 142.372 89.2727 142.571C88.983 142.767 88.7599 143.023 88.6037 143.338C88.4474 143.653 88.3693 143.991 88.3693 144.352V144.932C88.3693 145.426 88.4545 145.845 88.625 146.189C88.7983 146.53 89.0384 146.79 89.3452 146.969C89.652 147.145 90.0085 147.233 90.4148 147.233C90.679 147.233 90.9176 147.196 91.1307 147.122C91.3466 147.045 91.5327 146.932 91.6889 146.781C91.8452 146.628 91.9659 146.437 92.0511 146.21L93.0227 146.483C92.9205 146.812 92.7486 147.102 92.5071 147.352C92.2656 147.599 91.9673 147.793 91.6122 147.932C91.2571 148.068 90.858 148.136 90.4148 148.136ZM97.2969 150.591C96.8111 150.591 96.3935 150.528 96.044 150.403C95.6946 150.281 95.4034 150.119 95.1705 149.918C94.9403 149.719 94.7571 149.506 94.6207 149.278L95.4219 148.716C95.5128 148.835 95.6278 148.972 95.767 149.125C95.9063 149.281 96.0966 149.416 96.3381 149.53C96.5824 149.646 96.902 149.705 97.2969 149.705C97.8253 149.705 98.2614 149.577 98.6051 149.321C98.9489 149.065 99.1207 148.665 99.1207 148.119V146.79H99.0355C98.9616 146.909 98.8565 147.057 98.7202 147.233C98.5866 147.406 98.3935 147.561 98.1406 147.697C97.8906 147.831 97.5526 147.898 97.1264 147.898C96.598 147.898 96.1236 147.773 95.7031 147.523C95.2855 147.273 94.9545 146.909 94.7102 146.432C94.4688 145.955 94.348 145.375 94.348 144.693C94.348 144.023 94.4659 143.439 94.7017 142.942C94.9375 142.442 95.2656 142.055 95.6861 141.783C96.1065 141.507 96.5923 141.369 97.1435 141.369C97.5696 141.369 97.9077 141.44 98.1577 141.582C98.4105 141.722 98.6037 141.881 98.7372 142.06C98.8736 142.236 98.9787 142.381 99.0526 142.494H99.1548V141.455H100.126V148.188C100.126 148.75 99.9986 149.207 99.7429 149.56C99.4901 149.915 99.1491 150.175 98.7202 150.339C98.294 150.507 97.8196 150.591 97.2969 150.591ZM97.2628 146.994C97.6662 146.994 98.0071 146.902 98.2855 146.717C98.5639 146.533 98.7756 146.267 98.9205 145.92C99.0653 145.574 99.1378 145.159 99.1378 144.676C99.1378 144.205 99.0668 143.788 98.9247 143.428C98.7827 143.067 98.5724 142.784 98.294 142.58C98.0156 142.375 97.6719 142.273 97.2628 142.273C96.8366 142.273 96.4815 142.381 96.1974 142.597C95.9162 142.812 95.7045 143.102 95.5625 143.466C95.4233 143.83 95.3537 144.233 95.3537 144.676C95.3537 145.131 95.4247 145.533 95.5668 145.882C95.7116 146.229 95.9247 146.501 96.206 146.7C96.4901 146.896 96.8423 146.994 97.2628 146.994ZM103.893 148.153C103.479 148.153 103.102 148.075 102.764 147.919C102.426 147.76 102.158 147.531 101.959 147.233C101.76 146.932 101.661 146.568 101.661 146.142C101.661 145.767 101.734 145.463 101.882 145.23C102.03 144.994 102.227 144.81 102.474 144.676C102.722 144.543 102.994 144.443 103.293 144.378C103.594 144.31 103.896 144.256 104.2 144.216C104.598 144.165 104.92 144.126 105.168 144.101C105.418 144.072 105.599 144.026 105.713 143.96C105.83 143.895 105.888 143.781 105.888 143.619V143.585C105.888 143.165 105.773 142.838 105.543 142.605C105.315 142.372 104.97 142.256 104.507 142.256C104.027 142.256 103.651 142.361 103.378 142.571C103.105 142.781 102.913 143.006 102.803 143.244L101.848 142.903C102.018 142.506 102.246 142.196 102.53 141.974C102.817 141.75 103.129 141.594 103.467 141.506C103.808 141.415 104.143 141.369 104.473 141.369C104.683 141.369 104.925 141.395 105.197 141.446C105.473 141.494 105.739 141.595 105.994 141.749C106.253 141.902 106.467 142.134 106.638 142.443C106.808 142.753 106.893 143.168 106.893 143.688V148H105.888V147.114H105.837C105.768 147.256 105.655 147.408 105.496 147.57C105.337 147.732 105.125 147.869 104.861 147.983C104.597 148.097 104.274 148.153 103.893 148.153ZM104.047 147.25C104.445 147.25 104.78 147.172 105.053 147.016C105.328 146.859 105.536 146.658 105.675 146.411C105.817 146.163 105.888 145.903 105.888 145.631V144.71C105.845 144.761 105.751 144.808 105.607 144.851C105.464 144.891 105.3 144.926 105.112 144.957C104.928 144.986 104.747 145.011 104.571 145.034C104.398 145.054 104.257 145.071 104.149 145.085C103.888 145.119 103.643 145.175 103.416 145.251C103.192 145.325 103.01 145.437 102.871 145.588C102.734 145.736 102.666 145.937 102.666 146.193C102.666 146.543 102.795 146.807 103.054 146.986C103.315 147.162 103.646 147.25 104.047 147.25ZM109.735 139.273V148H108.729V139.273H109.735ZM115.088 148V139.273H116.145V143.159H120.798V139.273H121.855V148H120.798V144.097H116.145V148H115.088ZM126.579 148.136C125.948 148.136 125.404 147.997 124.947 147.719C124.492 147.438 124.141 147.045 123.894 146.543C123.65 146.037 123.528 145.449 123.528 144.778C123.528 144.108 123.65 143.517 123.894 143.006C124.141 142.491 124.485 142.091 124.925 141.804C125.369 141.514 125.886 141.369 126.477 141.369C126.817 141.369 127.154 141.426 127.487 141.54C127.819 141.653 128.121 141.838 128.394 142.094C128.667 142.347 128.884 142.682 129.046 143.099C129.208 143.517 129.289 144.031 129.289 144.642V145.068H124.244V144.199H128.266C128.266 143.83 128.192 143.5 128.045 143.21C127.9 142.92 127.692 142.692 127.423 142.524C127.156 142.357 126.84 142.273 126.477 142.273C126.076 142.273 125.729 142.372 125.437 142.571C125.147 142.767 124.924 143.023 124.768 143.338C124.612 143.653 124.533 143.991 124.533 144.352V144.932C124.533 145.426 124.619 145.845 124.789 146.189C124.962 146.53 125.202 146.79 125.509 146.969C125.816 147.145 126.173 147.233 126.579 147.233C126.843 147.233 127.082 147.196 127.295 147.122C127.511 147.045 127.697 146.932 127.853 146.781C128.009 146.628 128.13 146.437 128.215 146.21L129.187 146.483C129.085 146.812 128.913 147.102 128.671 147.352C128.43 147.599 128.131 147.793 127.776 147.932C127.421 148.068 127.022 148.136 126.579 148.136ZM131.825 139.273V148H130.819V139.273H131.825ZM133.667 150.455V141.455H134.638V142.494H134.757C134.831 142.381 134.934 142.236 135.064 142.06C135.198 141.881 135.388 141.722 135.635 141.582C135.885 141.44 136.223 141.369 136.65 141.369C137.201 141.369 137.686 141.507 138.107 141.783C138.527 142.058 138.855 142.449 139.091 142.955C139.327 143.46 139.445 144.057 139.445 144.744C139.445 145.438 139.327 146.038 139.091 146.547C138.855 147.053 138.529 147.445 138.111 147.723C137.694 147.999 137.212 148.136 136.667 148.136C136.246 148.136 135.909 148.067 135.657 147.928C135.404 147.786 135.209 147.625 135.073 147.446C134.936 147.264 134.831 147.114 134.757 146.994H134.672V150.455H133.667ZM134.655 144.727C134.655 145.222 134.728 145.658 134.873 146.036C135.017 146.411 135.229 146.705 135.507 146.918C135.786 147.128 136.127 147.233 136.53 147.233C136.951 147.233 137.301 147.122 137.583 146.901C137.867 146.676 138.08 146.375 138.222 145.997C138.367 145.616 138.439 145.193 138.439 144.727C138.439 144.267 138.368 143.852 138.226 143.483C138.087 143.111 137.875 142.817 137.591 142.601C137.31 142.382 136.956 142.273 136.53 142.273C136.121 142.273 135.777 142.376 135.499 142.584C135.221 142.788 135.01 143.075 134.868 143.445C134.726 143.811 134.655 144.239 134.655 144.727Z" fill="#979797"/>
</g>
<g filter="url(#filter1_d_437_2771)">
<rect x="215" y="40" width="50" height="50" fill="#8686C3"/>
</g>
<path fill-rule="evenodd" clip-rule="evenodd" d="M240.074 49.7708H239.926C238.653 49.7708 237.592 49.7708 236.75 49.8841C235.861 50.0031 235.057 50.2666 234.413 50.9112C233.767 51.5572 233.503 52.3604 233.384 53.2487C233.304 53.8536 233.279 55.2972 233.274 56.5353C230.409 56.6303 228.688 56.9646 227.494 58.1603C225.833 59.8192 225.833 62.491 225.833 67.8333C225.833 73.1755 225.833 75.8473 227.494 77.5063C229.153 79.1666 231.825 79.1666 237.167 79.1666H242.833C248.176 79.1666 250.848 79.1666 252.506 77.5063C254.167 75.8473 254.167 73.1755 254.167 67.8333C254.167 62.491 254.167 59.8192 252.506 58.1603C251.312 56.9646 249.591 56.6303 246.726 56.5368C246.721 55.2972 246.698 53.8536 246.616 53.2501C246.497 52.3604 246.233 51.5572 245.587 50.9126C244.943 50.2666 244.14 50.0031 243.25 49.8841C242.408 49.7708 241.346 49.7708 240.074 49.7708ZM244.601 56.5028C244.594 55.3028 244.575 54.0123 244.511 53.532C244.422 52.8789 244.27 52.5984 244.086 52.4143C243.902 52.2301 243.621 52.0785 242.967 51.9893C242.284 51.8986 241.366 51.8958 240 51.8958C238.634 51.8958 237.716 51.8986 237.032 51.9907C236.379 52.0785 236.099 52.2301 235.914 52.4157C235.73 52.5998 235.579 52.8789 235.489 53.532C235.426 54.0137 235.404 55.3028 235.399 56.5028C235.953 56.4999 236.543 56.4999 237.167 56.4999H242.833C243.458 56.4999 244.048 56.4999 244.601 56.5028ZM240 61.1041C240.282 61.1041 240.552 61.216 240.751 61.4153C240.951 61.6145 241.063 61.8848 241.063 62.1666V62.1808C242.605 62.5689 243.896 63.7858 243.896 65.4717C243.896 65.7535 243.784 66.0237 243.585 66.223C243.386 66.4222 243.115 66.5342 242.833 66.5342C242.552 66.5342 242.281 66.4222 242.082 66.223C241.883 66.0237 241.771 65.7535 241.771 65.4717C241.771 64.9277 241.167 64.174 240 64.174C238.833 64.174 238.229 64.9277 238.229 65.4717C238.229 66.0157 238.833 66.7708 240 66.7708C241.962 66.7708 243.896 68.1308 243.896 70.1948C243.896 71.8807 242.605 73.0962 241.063 73.4858V73.4999C241.063 73.7817 240.951 74.052 240.751 74.2512C240.552 74.4505 240.282 74.5624 240 74.5624C239.718 74.5624 239.448 74.4505 239.249 74.2512C239.05 74.052 238.938 73.7817 238.938 73.4999V73.4858C237.395 73.0976 236.104 71.8807 236.104 70.1948C236.104 69.913 236.216 69.6428 236.416 69.4435C236.615 69.2443 236.885 69.1323 237.167 69.1323C237.449 69.1323 237.719 69.2443 237.918 69.4435C238.117 69.6428 238.229 69.913 238.229 70.1948C238.229 70.7388 238.833 71.4925 240 71.4925C241.167 71.4925 241.771 70.7388 241.771 70.1948C241.771 69.6508 241.167 68.8958 240 68.8958C238.038 68.8958 236.104 67.5358 236.104 65.4717C236.104 63.7858 237.395 62.5689 238.938 62.1808V62.1666C238.938 61.8848 239.05 61.6145 239.249 61.4153C239.448 61.216 239.718 61.1041 240 61.1041Z" fill="white"/>
<g filter="url(#filter2_d_437_2771)">
<rect x="275" y="40" width="50" height="50" fill="#8686C3"/>
</g>
<g clip-path="url(#clip1_437_2771)">
<path fill-rule="evenodd" clip-rule="evenodd" d="M299.292 52.25C300.684 52.2501 302.039 52.706 303.148 53.5481C304.257 54.3903 305.06 55.5723 305.434 56.9137L305.508 57.2041L308.157 56.5425C308.351 56.4943 308.553 56.4876 308.749 56.5227C308.945 56.5578 309.132 56.6341 309.297 56.7464C309.462 56.8588 309.601 57.0047 309.706 57.1746C309.811 57.3446 309.878 57.5347 309.904 57.7325L309.917 57.9167V60.4808C310.716 61.2466 311.37 62.1497 311.849 63.147L312.045 63.5833H312.75C313.097 63.5834 313.432 63.7108 313.691 63.9413C313.951 64.1719 314.116 64.4896 314.157 64.8343L314.167 65V69.25C314.167 69.4832 314.109 69.7127 313.999 69.9184C313.889 70.124 313.73 70.2993 313.536 70.4287L313.383 70.5165L311.729 71.3452C311.051 72.6558 310.07 73.7852 308.867 74.639L308.5 74.8855V76.3333C308.5 76.6803 308.373 77.0152 308.142 77.2745C307.912 77.5338 307.594 77.6995 307.249 77.7401L307.083 77.75H302.833C302.487 77.75 302.152 77.6226 301.892 77.392C301.633 77.1614 301.467 76.8437 301.427 76.4991L301.417 76.3333H300C300 76.6803 299.873 77.0152 299.642 77.2745C299.412 77.5338 299.094 77.6995 298.749 77.7401L298.583 77.75H294.333C293.987 77.75 293.652 77.6226 293.392 77.392C293.133 77.1614 292.967 76.8437 292.927 76.4991L292.917 76.3333V74.8855C291.893 74.2312 291.009 73.3811 290.316 72.3841C289.622 71.3871 289.132 70.2627 288.874 69.0757C288.038 68.8271 287.299 68.3278 286.757 67.6455C286.215 66.9631 285.895 66.1306 285.842 65.2607L285.833 65V64.2917C285.834 63.9306 285.972 63.5833 286.22 63.3207C286.468 63.0582 286.807 62.9002 287.167 62.879C287.528 62.8578 287.883 62.9751 288.159 63.2069C288.436 63.4386 288.614 63.7674 288.657 64.1259L288.667 64.2917V65C288.667 65.2097 288.712 65.4094 288.794 65.5879C289.011 64.3125 289.493 63.0969 290.21 62.0203C290.927 60.9436 291.863 60.0301 292.956 59.339C292.856 58.4472 292.945 57.5442 293.217 56.6891C293.49 55.834 293.94 55.0461 294.538 54.377C295.136 53.7078 295.869 53.1724 296.688 52.8059C297.507 52.4394 298.394 52.2499 299.292 52.25ZM305.667 63.5833C305.291 63.5833 304.931 63.7326 304.665 63.9983C304.399 64.2639 304.25 64.6243 304.25 65C304.25 65.3757 304.399 65.7361 304.665 66.0017C304.931 66.2674 305.291 66.4167 305.667 66.4167C306.043 66.4167 306.403 66.2674 306.669 66.0017C306.934 65.7361 307.083 65.3757 307.083 65C307.083 64.6243 306.934 64.2639 306.669 63.9983C306.403 63.7326 306.043 63.5833 305.667 63.5833ZM299.292 55.0833C298.434 55.0833 297.605 55.3949 296.959 55.96C296.313 56.5252 295.895 57.3056 295.781 58.1561C296.468 57.9967 297.17 57.9163 297.875 57.9167H302.659L302.758 57.8926C302.59 57.0978 302.154 56.3849 301.523 55.8734C300.892 55.3619 300.104 55.083 299.292 55.0833Z" fill="white"/>
</g>
<g filter="url(#filter3_d_437_2771)">
<rect x="335" y="40" width="50" height="50" fill="#8686C3"/>
</g>
<mask id="mask0_437_2771" style="mask-type:luminance" maskUnits="userSpaceOnUse" x="346" y="51" width="28" height="28">
<path d="M356.357 52.8572H349.071C348.749 52.8572 348.44 52.9851 348.213 53.2128C347.985 53.4406 347.857 53.7494 347.857 54.0715V61.3572C347.857 61.6792 347.985 61.9881 348.213 62.2158C348.44 62.4435 348.749 62.5715 349.071 62.5715H356.357C356.679 62.5715 356.988 62.4435 357.216 62.2158C357.443 61.9881 357.571 61.6792 357.571 61.3572V54.0715C357.571 53.7494 357.443 53.4406 357.216 53.2128C356.988 52.9851 356.679 52.8572 356.357 52.8572ZM356.357 67.4286H349.071C348.749 67.4286 348.44 67.5565 348.213 67.7843C347.985 68.012 347.857 68.3208 347.857 68.6429V75.9286C347.857 76.2507 347.985 76.5595 348.213 76.7872C348.44 77.015 348.749 77.1429 349.071 77.1429H356.357C356.679 77.1429 356.988 77.015 357.216 76.7872C357.443 76.5595 357.571 76.2507 357.571 75.9286V68.6429C357.571 68.3208 357.443 68.012 357.216 67.7843C356.988 67.5565 356.679 67.4286 356.357 67.4286ZM370.928 52.8572H363.643C363.321 52.8572 363.012 52.9851 362.784 53.2128C362.556 53.4406 362.428 53.7494 362.428 54.0715V61.3572C362.428 61.6792 362.556 61.9881 362.784 62.2158C363.012 62.4435 363.321 62.5715 363.643 62.5715H370.928C371.25 62.5715 371.559 62.4435 371.787 62.2158C372.015 61.9881 372.143 61.6792 372.143 61.3572V54.0715C372.143 53.7494 372.015 53.4406 371.787 53.2128C371.559 52.9851 371.25 52.8572 370.928 52.8572Z" fill="white" stroke="white" stroke-width="2" stroke-linejoin="round"/>
<path d="M362.428 67.4287H372.143M367.285 72.2859H372.143M362.428 77.143H372.143" stroke="white" stroke-width="2" stroke-linecap="round" stroke-linejoin="round"/>
</mask>
<g mask="url(#mask0_437_2771)">
<path d="M345.428 50.4287H374.571V79.5716H345.428V50.4287Z" fill="white"/>
</g>
<g filter="url(#filter4_d_437_2771)">
<rect x="399" y="110" width="186" height="50" fill="white"/>
<rect x="399" y="110" width="50" height="50" fill="#8686C3"/>
<path d="M437.357 130.548C437.357 130.241 437.107 129.991 436.801 129.991H429.566C429.26 129.991 429.009 129.741 429.009 129.434V122.199C429.009 121.893 428.759 121.643 428.453 121.643H419.548C419.242 121.643 418.991 121.893 418.991 122.199V129.434C418.991 129.741 418.741 129.991 418.435 129.991H411.2C410.894 129.991 410.643 130.241 410.643 130.548V139.452C410.643 139.758 410.894 140.009 411.2 140.009H418.435C418.741 140.009 418.991 140.259 418.991 140.565V147.801C418.991 148.107 419.242 148.357 419.548 148.357H428.453C428.759 148.357 429.009 148.107 429.009 147.801V140.565C429.009 140.259 429.26 140.009 429.566 140.009H436.801C437.107 140.009 437.357 139.758 437.357 139.452V130.548Z" fill="white"/>
<path d="M464.959 131V122.273H466.276V126.065H470.626V122.273H471.947V131H470.626V127.195H466.276V131H464.959ZM476.584 131.132C475.939 131.132 475.384 130.994 474.918 130.719C474.455 130.44 474.097 130.05 473.844 129.547C473.594 129.041 473.469 128.449 473.469 127.77C473.469 127.099 473.594 126.509 473.844 125.997C474.097 125.486 474.449 125.087 474.901 124.8C475.355 124.513 475.886 124.369 476.494 124.369C476.864 124.369 477.222 124.43 477.568 124.553C477.915 124.675 478.226 124.866 478.501 125.128C478.777 125.389 478.994 125.729 479.153 126.146C479.313 126.561 479.392 127.065 479.392 127.659V128.111H474.189V127.156H478.143C478.143 126.821 478.075 126.524 477.939 126.266C477.803 126.004 477.611 125.798 477.364 125.648C477.119 125.497 476.832 125.422 476.503 125.422C476.145 125.422 475.832 125.51 475.565 125.686C475.301 125.859 475.097 126.087 474.952 126.368C474.81 126.646 474.739 126.949 474.739 127.276V128.021C474.739 128.459 474.815 128.831 474.969 129.138C475.125 129.445 475.342 129.679 475.621 129.841C475.899 130 476.224 130.08 476.597 130.08C476.838 130.08 477.058 130.045 477.257 129.977C477.456 129.906 477.628 129.801 477.773 129.662C477.918 129.523 478.028 129.351 478.105 129.146L479.311 129.364C479.214 129.719 479.041 130.03 478.791 130.297C478.544 130.561 478.233 130.767 477.858 130.915C477.486 131.06 477.061 131.132 476.584 131.132ZM482.711 131.145C482.296 131.145 481.921 131.068 481.586 130.915C481.25 130.759 480.985 130.533 480.789 130.237C480.596 129.942 480.499 129.58 480.499 129.151C480.499 128.781 480.57 128.477 480.712 128.239C480.854 128 481.046 127.811 481.287 127.672C481.529 127.533 481.799 127.428 482.097 127.357C482.395 127.286 482.699 127.232 483.009 127.195C483.401 127.149 483.719 127.112 483.963 127.084C484.208 127.053 484.385 127.003 484.496 126.935C484.607 126.866 484.662 126.756 484.662 126.602V126.572C484.662 126.2 484.557 125.912 484.347 125.707C484.14 125.503 483.83 125.401 483.418 125.401C482.989 125.401 482.651 125.496 482.404 125.686C482.159 125.874 481.99 126.082 481.897 126.312L480.699 126.04C480.841 125.642 481.049 125.321 481.321 125.077C481.597 124.83 481.914 124.651 482.272 124.54C482.63 124.426 483.006 124.369 483.401 124.369C483.662 124.369 483.939 124.401 484.232 124.463C484.527 124.523 484.803 124.634 485.059 124.795C485.317 124.957 485.529 125.189 485.694 125.49C485.858 125.788 485.941 126.176 485.941 126.653V131H484.696V130.105H484.645C484.563 130.27 484.439 130.432 484.275 130.591C484.11 130.75 483.898 130.882 483.64 130.987C483.381 131.092 483.071 131.145 482.711 131.145ZM482.988 130.122C483.34 130.122 483.641 130.053 483.891 129.913C484.144 129.774 484.336 129.592 484.466 129.368C484.6 129.141 484.667 128.898 484.667 128.639V127.795C484.621 127.841 484.533 127.884 484.402 127.923C484.275 127.96 484.128 127.993 483.963 128.021C483.799 128.047 483.638 128.071 483.482 128.094C483.326 128.114 483.195 128.131 483.09 128.145C482.843 128.176 482.617 128.229 482.412 128.303C482.211 128.376 482.049 128.483 481.926 128.622C481.807 128.759 481.748 128.94 481.748 129.168C481.748 129.483 481.864 129.722 482.097 129.884C482.33 130.043 482.627 130.122 482.988 130.122ZM488.912 122.273V131H487.638V122.273H488.912ZM493.681 124.455V125.477H490.106V124.455H493.681ZM491.065 122.886H492.339V129.078C492.339 129.325 492.376 129.511 492.45 129.636C492.524 129.759 492.619 129.842 492.735 129.888C492.855 129.93 492.984 129.952 493.123 129.952C493.225 129.952 493.315 129.945 493.392 129.93C493.468 129.916 493.528 129.905 493.571 129.896L493.801 130.949C493.727 130.977 493.622 131.006 493.485 131.034C493.349 131.065 493.179 131.082 492.974 131.085C492.639 131.091 492.326 131.031 492.037 130.906C491.747 130.781 491.512 130.588 491.333 130.327C491.154 130.065 491.065 129.737 491.065 129.342V122.886ZM496.506 127.114V131H495.232V122.273H496.489V125.52H496.57C496.723 125.168 496.957 124.888 497.273 124.68C497.588 124.473 498 124.369 498.509 124.369C498.957 124.369 499.349 124.462 499.685 124.646C500.023 124.831 500.284 125.107 500.469 125.473C500.656 125.837 500.75 126.291 500.75 126.837V131H499.476V126.99C499.476 126.51 499.352 126.138 499.105 125.874C498.858 125.607 498.514 125.473 498.074 125.473C497.773 125.473 497.503 125.537 497.264 125.665C497.028 125.793 496.842 125.98 496.706 126.227C496.572 126.472 496.506 126.767 496.506 127.114Z" fill="black"/>
<path d="M465.057 148V139.273H466.114V143.159H470.767V139.273H471.824V148H470.767V144.097H466.114V148H465.057ZM476.548 148.136C475.917 148.136 475.373 147.997 474.915 147.719C474.461 147.438 474.11 147.045 473.863 146.543C473.619 146.037 473.496 145.449 473.496 144.778C473.496 144.108 473.619 143.517 473.863 143.006C474.11 142.491 474.454 142.091 474.894 141.804C475.337 141.514 475.854 141.369 476.445 141.369C476.786 141.369 477.123 141.426 477.455 141.54C477.788 141.653 478.09 141.838 478.363 142.094C478.636 142.347 478.853 142.682 479.015 143.099C479.177 143.517 479.258 144.031 479.258 144.642V145.068H474.212V144.199H478.235C478.235 143.83 478.161 143.5 478.013 143.21C477.869 142.92 477.661 142.692 477.391 142.524C477.124 142.357 476.809 142.273 476.445 142.273C476.045 142.273 475.698 142.372 475.406 142.571C475.116 142.767 474.893 143.023 474.737 143.338C474.58 143.653 474.502 143.991 474.502 144.352V144.932C474.502 145.426 474.587 145.845 474.758 146.189C474.931 146.53 475.171 146.79 475.478 146.969C475.785 147.145 476.141 147.233 476.548 147.233C476.812 147.233 477.05 147.196 477.263 147.122C477.479 147.045 477.665 146.932 477.822 146.781C477.978 146.628 478.099 146.437 478.184 146.21L479.156 146.483C479.053 146.812 478.881 147.102 478.64 147.352C478.398 147.599 478.1 147.793 477.745 147.932C477.39 148.068 476.991 148.136 476.548 148.136ZM482.714 148.153C482.299 148.153 481.923 148.075 481.585 147.919C481.246 147.76 480.978 147.531 480.779 147.233C480.58 146.932 480.481 146.568 480.481 146.142C480.481 145.767 480.555 145.463 480.702 145.23C480.85 144.994 481.048 144.81 481.295 144.676C481.542 144.543 481.815 144.443 482.113 144.378C482.414 144.31 482.717 144.256 483.021 144.216C483.418 144.165 483.741 144.126 483.988 144.101C484.238 144.072 484.42 144.026 484.533 143.96C484.65 143.895 484.708 143.781 484.708 143.619V143.585C484.708 143.165 484.593 142.838 484.363 142.605C484.136 142.372 483.79 142.256 483.327 142.256C482.847 142.256 482.471 142.361 482.198 142.571C481.925 142.781 481.734 143.006 481.623 143.244L480.668 142.903C480.839 142.506 481.066 142.196 481.35 141.974C481.637 141.75 481.95 141.594 482.288 141.506C482.629 141.415 482.964 141.369 483.293 141.369C483.504 141.369 483.745 141.395 484.018 141.446C484.293 141.494 484.559 141.595 484.815 141.749C485.073 141.902 485.288 142.134 485.458 142.443C485.629 142.753 485.714 143.168 485.714 143.688V148H484.708V147.114H484.657C484.589 147.256 484.475 147.408 484.316 147.57C484.157 147.732 483.945 147.869 483.681 147.983C483.417 148.097 483.094 148.153 482.714 148.153ZM482.867 147.25C483.265 147.25 483.6 147.172 483.873 147.016C484.148 146.859 484.356 146.658 484.495 146.411C484.637 146.163 484.708 145.903 484.708 145.631V144.71C484.665 144.761 484.572 144.808 484.427 144.851C484.285 144.891 484.12 144.926 483.933 144.957C483.748 144.986 483.567 145.011 483.391 145.034C483.218 145.054 483.077 145.071 482.969 145.085C482.708 145.119 482.464 145.175 482.237 145.251C482.012 145.325 481.83 145.437 481.691 145.588C481.555 145.736 481.487 145.937 481.487 146.193C481.487 146.543 481.616 146.807 481.874 146.986C482.136 147.162 482.467 147.25 482.867 147.25ZM488.555 139.273V148H487.549V139.273H488.555ZM493.244 141.455V142.307H489.852V141.455H493.244ZM490.84 139.886H491.846V146.125C491.846 146.409 491.887 146.622 491.969 146.764C492.055 146.903 492.163 146.997 492.293 147.045C492.427 147.091 492.567 147.114 492.715 147.114C492.826 147.114 492.917 147.108 492.988 147.097C493.059 147.082 493.116 147.071 493.158 147.062L493.363 147.966C493.295 147.991 493.2 148.017 493.077 148.043C492.955 148.071 492.8 148.085 492.613 148.085C492.329 148.085 492.05 148.024 491.778 147.902C491.508 147.78 491.283 147.594 491.104 147.344C490.928 147.094 490.84 146.778 490.84 146.398V139.886ZM495.903 144.062V148H494.897V139.273H495.903V142.477H495.988C496.141 142.139 496.371 141.871 496.678 141.672C496.988 141.47 497.4 141.369 497.914 141.369C498.36 141.369 498.751 141.459 499.086 141.638C499.421 141.814 499.681 142.085 499.866 142.452C500.053 142.815 500.147 143.278 500.147 143.841V148H499.141V143.909C499.141 143.389 499.006 142.987 498.737 142.703C498.469 142.416 498.099 142.273 497.624 142.273C497.295 142.273 496.999 142.342 496.738 142.482C496.479 142.621 496.275 142.824 496.124 143.091C495.977 143.358 495.903 143.682 495.903 144.062ZM510.271 141.455C510.22 141.023 510.012 140.688 509.649 140.449C509.285 140.21 508.839 140.091 508.311 140.091C507.924 140.091 507.586 140.153 507.297 140.278C507.01 140.403 506.785 140.575 506.623 140.794C506.464 141.013 506.385 141.261 506.385 141.54C506.385 141.773 506.44 141.973 506.551 142.141C506.664 142.305 506.809 142.443 506.985 142.554C507.162 142.662 507.346 142.751 507.539 142.822C507.733 142.891 507.91 142.946 508.072 142.989L508.958 143.227C509.186 143.287 509.439 143.369 509.717 143.474C509.998 143.58 510.267 143.723 510.522 143.905C510.781 144.084 510.994 144.314 511.162 144.595C511.329 144.876 511.413 145.222 511.413 145.631C511.413 146.102 511.289 146.528 511.042 146.909C510.798 147.29 510.44 147.592 509.968 147.817C509.5 148.041 508.93 148.153 508.26 148.153C507.635 148.153 507.093 148.053 506.636 147.851C506.181 147.649 505.824 147.368 505.562 147.007C505.304 146.646 505.157 146.227 505.123 145.75H506.214C506.243 146.08 506.353 146.352 506.547 146.568C506.743 146.781 506.99 146.94 507.288 147.045C507.589 147.148 507.913 147.199 508.26 147.199C508.663 147.199 509.025 147.134 509.346 147.003C509.667 146.869 509.922 146.685 510.109 146.449C510.297 146.21 510.39 145.932 510.39 145.614C510.39 145.324 510.309 145.088 510.147 144.906C509.985 144.724 509.772 144.577 509.508 144.463C509.244 144.349 508.958 144.25 508.652 144.165L507.578 143.858C506.896 143.662 506.356 143.382 505.958 143.018C505.561 142.655 505.362 142.179 505.362 141.591C505.362 141.102 505.494 140.676 505.758 140.312C506.025 139.946 506.383 139.662 506.832 139.46C507.284 139.256 507.788 139.153 508.345 139.153C508.907 139.153 509.407 139.254 509.845 139.456C510.282 139.655 510.629 139.928 510.885 140.274C511.143 140.621 511.279 141.014 511.294 141.455H510.271ZM517.139 145.324V141.455H518.145V148H517.139V146.892H517.071C516.918 147.224 516.679 147.507 516.355 147.74C516.031 147.97 515.622 148.085 515.128 148.085C514.719 148.085 514.355 147.996 514.037 147.817C513.719 147.635 513.469 147.362 513.287 146.999C513.105 146.632 513.014 146.17 513.014 145.614V141.455H514.02V145.545C514.02 146.023 514.153 146.403 514.42 146.688C514.69 146.972 515.034 147.114 515.452 147.114C515.702 147.114 515.956 147.05 516.214 146.922C516.476 146.794 516.695 146.598 516.871 146.334C517.05 146.07 517.139 145.733 517.139 145.324ZM519.987 150.455V141.455H520.958V142.494H521.078C521.152 142.381 521.254 142.236 521.385 142.06C521.518 141.881 521.708 141.722 521.956 141.582C522.206 141.44 522.544 141.369 522.97 141.369C523.521 141.369 524.007 141.507 524.427 141.783C524.848 142.058 525.176 142.449 525.412 142.955C525.647 143.46 525.765 144.057 525.765 144.744C525.765 145.438 525.647 146.038 525.412 146.547C525.176 147.053 524.849 147.445 524.431 147.723C524.014 147.999 523.532 148.136 522.987 148.136C522.566 148.136 522.23 148.067 521.977 147.928C521.724 147.786 521.529 147.625 521.393 147.446C521.257 147.264 521.152 147.114 521.078 146.994H520.993V150.455H519.987ZM520.975 144.727C520.975 145.222 521.048 145.658 521.193 146.036C521.338 146.411 521.549 146.705 521.828 146.918C522.106 147.128 522.447 147.233 522.85 147.233C523.271 147.233 523.622 147.122 523.903 146.901C524.187 146.676 524.4 146.375 524.542 145.997C524.687 145.616 524.76 145.193 524.76 144.727C524.76 144.267 524.689 143.852 524.547 143.483C524.407 143.111 524.196 142.817 523.912 142.601C523.63 142.382 523.277 142.273 522.85 142.273C522.441 142.273 522.098 142.376 521.819 142.584C521.541 142.788 521.331 143.075 521.189 143.445C521.047 143.811 520.975 144.239 520.975 144.727ZM527.299 150.455V141.455H528.271V142.494H528.39C528.464 142.381 528.566 142.236 528.697 142.06C528.831 141.881 529.021 141.722 529.268 141.582C529.518 141.44 529.856 141.369 530.282 141.369C530.833 141.369 531.319 141.507 531.74 141.783C532.16 142.058 532.488 142.449 532.724 142.955C532.96 143.46 533.078 144.057 533.078 144.744C533.078 145.438 532.96 146.038 532.724 146.547C532.488 147.053 532.162 147.445 531.744 147.723C531.326 147.999 530.845 148.136 530.299 148.136C529.879 148.136 529.542 148.067 529.289 147.928C529.037 147.786 528.842 147.625 528.706 147.446C528.569 147.264 528.464 147.114 528.39 146.994H528.305V150.455H527.299ZM528.288 144.727C528.288 145.222 528.36 145.658 528.505 146.036C528.65 146.411 528.862 146.705 529.14 146.918C529.419 147.128 529.76 147.233 530.163 147.233C530.583 147.233 530.934 147.122 531.216 146.901C531.5 146.676 531.713 146.375 531.855 145.997C532 145.616 532.072 145.193 532.072 144.727C532.072 144.267 532.001 143.852 531.859 143.483C531.72 143.111 531.508 142.817 531.224 142.601C530.943 142.382 530.589 142.273 530.163 142.273C529.754 142.273 529.41 142.376 529.132 142.584C528.853 142.788 528.643 143.075 528.501 143.445C528.359 143.811 528.288 144.239 528.288 144.727ZM537.271 148.136C536.68 148.136 536.162 147.996 535.716 147.714C535.272 147.433 534.926 147.04 534.676 146.534C534.429 146.028 534.305 145.437 534.305 144.761C534.305 144.08 534.429 143.484 534.676 142.976C534.926 142.467 535.272 142.072 535.716 141.791C536.162 141.51 536.68 141.369 537.271 141.369C537.862 141.369 538.379 141.51 538.822 141.791C539.268 142.072 539.615 142.467 539.862 142.976C540.112 143.484 540.237 144.08 540.237 144.761C540.237 145.437 540.112 146.028 539.862 146.534C539.615 147.04 539.268 147.433 538.822 147.714C538.379 147.996 537.862 148.136 537.271 148.136ZM537.271 147.233C537.72 147.233 538.089 147.118 538.379 146.888C538.669 146.658 538.883 146.355 539.022 145.98C539.162 145.605 539.231 145.199 539.231 144.761C539.231 144.324 539.162 143.916 539.022 143.538C538.883 143.161 538.669 142.855 538.379 142.622C538.089 142.389 537.72 142.273 537.271 142.273C536.822 142.273 536.453 142.389 536.163 142.622C535.873 142.855 535.659 143.161 535.52 143.538C535.38 143.916 535.311 144.324 535.311 144.761C535.311 145.199 535.38 145.605 535.52 145.98C535.659 146.355 535.873 146.658 536.163 146.888C536.453 147.118 536.822 147.233 537.271 147.233ZM541.772 148V141.455H542.744V142.443H542.812C542.931 142.119 543.147 141.857 543.46 141.655C543.772 141.453 544.124 141.352 544.516 141.352C544.59 141.352 544.683 141.354 544.793 141.357C544.904 141.359 544.988 141.364 545.045 141.369V142.392C545.011 142.384 544.933 142.371 544.81 142.354C544.691 142.334 544.565 142.324 544.431 142.324C544.113 142.324 543.829 142.391 543.579 142.524C543.332 142.655 543.136 142.837 542.991 143.07C542.849 143.3 542.778 143.562 542.778 143.858V148H541.772ZM549.494 141.455V142.307H546.102V141.455H549.494ZM547.09 139.886H548.096V146.125C548.096 146.409 548.137 146.622 548.219 146.764C548.305 146.903 548.413 146.997 548.543 147.045C548.677 147.091 548.817 147.114 548.965 147.114C549.076 147.114 549.167 147.108 549.238 147.097C549.309 147.082 549.366 147.071 549.408 147.062L549.613 147.966C549.545 147.991 549.45 148.017 549.327 148.043C549.205 148.071 549.05 148.085 548.863 148.085C548.579 148.085 548.3 148.024 548.028 147.902C547.758 147.78 547.533 147.594 547.354 147.344C547.178 147.094 547.09 146.778 547.09 146.398V139.886Z" fill="#979797"/>
</g>
<g filter="url(#filter5_d_437_2771)">
<rect x="207" y="180" width="186" height="50" fill="white"/>
<rect x="207" y="180" width="50" height="50" fill="#8686C3"/>
<path d="M228.331 216.333H224.208C222.083 216.333 220.213 215.625 218.697 214.109C217.182 212.622 216.417 210.794 216.417 208.655C216.417 206.813 216.969 205.17 218.074 203.725C219.152 202.312 220.699 201.332 222.437 200.963C223.032 198.795 224.208 197.038 225.979 195.693C227.75 194.375 229.762 193.667 232 193.667C234.762 193.667 237.114 194.63 239.027 196.557C240.953 198.469 241.917 200.821 241.917 203.583C243.546 203.768 244.906 204.476 245.968 205.708C246.875 206.743 247.385 207.918 247.527 209.25H240.5C239.839 208.371 238.984 207.658 238 207.166C237.017 206.674 235.933 206.418 234.833 206.417C230.867 206.417 227.75 209.533 227.75 213.5C227.75 214.52 227.962 215.469 228.331 216.333ZM247.583 212.083V214.917H244.75V217.75H241.917V214.917H238.8C238.233 216.617 236.675 217.75 234.833 217.75C232.425 217.75 230.583 215.908 230.583 213.5C230.583 211.092 232.425 209.25 234.833 209.25C236.675 209.25 238.233 210.383 238.8 212.083H247.583ZM236.25 213.5C236.25 212.792 235.683 212.083 234.833 212.083C233.983 212.083 233.417 212.792 233.417 213.5C233.417 214.208 233.983 214.917 234.833 214.917C235.683 214.917 236.25 214.208 236.25 213.5Z" fill="white"/>
<path d="M277.719 194.565C277.673 194.162 277.486 193.849 277.156 193.628C276.827 193.403 276.412 193.291 275.912 193.291C275.554 193.291 275.244 193.348 274.983 193.462C274.722 193.572 274.518 193.726 274.374 193.922C274.232 194.115 274.161 194.335 274.161 194.582C274.161 194.79 274.209 194.969 274.305 195.119C274.405 195.27 274.534 195.396 274.693 195.499C274.855 195.598 275.028 195.682 275.213 195.75C275.398 195.815 275.575 195.869 275.746 195.912L276.598 196.134C276.876 196.202 277.162 196.294 277.455 196.411C277.747 196.527 278.018 196.68 278.268 196.871C278.518 197.061 278.72 197.297 278.874 197.578C279.03 197.859 279.108 198.196 279.108 198.588C279.108 199.082 278.98 199.521 278.724 199.905C278.472 200.288 278.104 200.591 277.621 200.812C277.141 201.034 276.56 201.145 275.878 201.145C275.224 201.145 274.659 201.041 274.182 200.834C273.705 200.626 273.331 200.332 273.061 199.952C272.791 199.568 272.642 199.114 272.614 198.588H273.935C273.96 198.903 274.063 199.166 274.241 199.376C274.423 199.584 274.655 199.739 274.936 199.841C275.22 199.94 275.531 199.99 275.869 199.99C276.241 199.99 276.572 199.932 276.862 199.815C277.155 199.696 277.385 199.531 277.553 199.321C277.72 199.108 277.804 198.859 277.804 198.575C277.804 198.317 277.73 198.105 277.582 197.94C277.438 197.776 277.24 197.639 276.99 197.531C276.743 197.423 276.463 197.328 276.151 197.246L275.119 196.964C274.42 196.774 273.866 196.494 273.457 196.125C273.051 195.756 272.848 195.267 272.848 194.659C272.848 194.156 272.984 193.717 273.257 193.342C273.53 192.967 273.899 192.676 274.365 192.469C274.831 192.259 275.357 192.153 275.942 192.153C276.533 192.153 277.054 192.257 277.506 192.464C277.96 192.672 278.318 192.957 278.58 193.321C278.841 193.682 278.977 194.097 278.989 194.565H277.719ZM283.4 201.132C282.755 201.132 282.2 200.994 281.734 200.719C281.271 200.44 280.913 200.05 280.66 199.547C280.41 199.041 280.285 198.449 280.285 197.77C280.285 197.099 280.41 196.509 280.66 195.997C280.913 195.486 281.265 195.087 281.717 194.8C282.172 194.513 282.703 194.369 283.311 194.369C283.68 194.369 284.038 194.43 284.385 194.553C284.731 194.675 285.042 194.866 285.318 195.128C285.593 195.389 285.811 195.729 285.97 196.146C286.129 196.561 286.208 197.065 286.208 197.659V198.111H281.005V197.156H284.96C284.96 196.821 284.892 196.524 284.755 196.266C284.619 196.004 284.427 195.798 284.18 195.648C283.936 195.497 283.649 195.422 283.319 195.422C282.961 195.422 282.649 195.51 282.382 195.686C282.118 195.859 281.913 196.087 281.768 196.368C281.626 196.646 281.555 196.949 281.555 197.276V198.021C281.555 198.459 281.632 198.831 281.785 199.138C281.941 199.445 282.159 199.679 282.437 199.841C282.716 200 283.041 200.08 283.413 200.08C283.654 200.08 283.875 200.045 284.074 199.977C284.272 199.906 284.444 199.801 284.589 199.662C284.734 199.523 284.845 199.351 284.922 199.146L286.127 199.364C286.031 199.719 285.858 200.03 285.608 200.297C285.36 200.561 285.049 200.767 284.674 200.915C284.302 201.06 283.877 201.132 283.4 201.132ZM290.379 201.132C289.746 201.132 289.2 200.989 288.743 200.702C288.288 200.412 287.939 200.013 287.695 199.504C287.45 198.996 287.328 198.413 287.328 197.757C287.328 197.092 287.453 196.506 287.703 195.997C287.953 195.486 288.305 195.087 288.76 194.8C289.214 194.513 289.75 194.369 290.366 194.369C290.864 194.369 291.307 194.462 291.696 194.646C292.085 194.828 292.399 195.084 292.638 195.413C292.879 195.743 293.023 196.128 293.068 196.568H291.828C291.76 196.261 291.604 195.997 291.359 195.776C291.118 195.554 290.794 195.443 290.388 195.443C290.033 195.443 289.722 195.537 289.455 195.724C289.19 195.909 288.984 196.173 288.837 196.517C288.689 196.858 288.615 197.261 288.615 197.727C288.615 198.205 288.688 198.616 288.832 198.963C288.977 199.31 289.182 199.578 289.446 199.768C289.713 199.959 290.027 200.054 290.388 200.054C290.629 200.054 290.848 200.01 291.044 199.922C291.243 199.831 291.409 199.702 291.543 199.534C291.679 199.366 291.774 199.165 291.828 198.929H293.068C293.023 199.352 292.885 199.73 292.655 200.062C292.425 200.395 292.116 200.656 291.73 200.847C291.347 201.037 290.896 201.132 290.379 201.132ZM298.577 198.286V194.455H299.855V201H298.603V199.866H298.534C298.384 200.216 298.142 200.507 297.81 200.74C297.48 200.97 297.07 201.085 296.578 201.085C296.158 201.085 295.786 200.993 295.462 200.808C295.141 200.621 294.888 200.344 294.703 199.977C294.522 199.611 294.431 199.158 294.431 198.618V194.455H295.705V198.464C295.705 198.911 295.828 199.266 296.076 199.53C296.323 199.794 296.644 199.926 297.039 199.926C297.277 199.926 297.515 199.866 297.75 199.747C297.989 199.628 298.186 199.447 298.343 199.206C298.502 198.964 298.58 198.658 298.577 198.286ZM301.567 201V194.455H302.799V195.494H302.867C302.987 195.142 303.197 194.865 303.498 194.663C303.802 194.459 304.146 194.357 304.529 194.357C304.609 194.357 304.702 194.359 304.81 194.365C304.921 194.371 305.008 194.378 305.07 194.386V195.605C305.019 195.591 304.928 195.575 304.798 195.558C304.667 195.538 304.536 195.528 304.406 195.528C304.104 195.528 303.836 195.592 303.6 195.72C303.367 195.845 303.183 196.02 303.046 196.244C302.91 196.466 302.842 196.719 302.842 197.003V201H301.567ZM306.173 201V194.455H307.447V201H306.173ZM306.816 193.445C306.595 193.445 306.404 193.371 306.245 193.223C306.089 193.072 306.011 192.893 306.011 192.686C306.011 192.476 306.089 192.297 306.245 192.149C306.404 191.999 306.595 191.923 306.816 191.923C307.038 191.923 307.227 191.999 307.383 192.149C307.542 192.297 307.622 192.476 307.622 192.686C307.622 192.893 307.542 193.072 307.383 193.223C307.227 193.371 307.038 193.445 306.816 193.445ZM312.217 194.455V195.477H308.641V194.455H312.217ZM309.6 192.886H310.874V199.078C310.874 199.325 310.911 199.511 310.985 199.636C311.059 199.759 311.154 199.842 311.271 199.888C311.39 199.93 311.519 199.952 311.658 199.952C311.761 199.952 311.85 199.945 311.927 199.93C312.004 199.916 312.063 199.905 312.106 199.896L312.336 200.949C312.262 200.977 312.157 201.006 312.021 201.034C311.884 201.065 311.714 201.082 311.509 201.085C311.174 201.091 310.862 201.031 310.572 200.906C310.282 200.781 310.048 200.588 309.869 200.327C309.69 200.065 309.6 199.737 309.6 199.342V192.886ZM314.431 203.455C314.241 203.455 314.068 203.439 313.912 203.408C313.755 203.379 313.639 203.348 313.562 203.314L313.869 202.27C314.102 202.332 314.309 202.359 314.491 202.351C314.673 202.342 314.833 202.274 314.973 202.146C315.115 202.018 315.24 201.81 315.348 201.52L315.505 201.085L313.11 194.455H314.474L316.132 199.534H316.2L317.858 194.455H319.225L316.528 201.874C316.403 202.214 316.244 202.503 316.051 202.739C315.858 202.977 315.627 203.156 315.36 203.276C315.093 203.395 314.784 203.455 314.431 203.455Z" fill="black"/>
<path d="M273.057 218V209.273H274.114V213.159H278.767V209.273H279.824V218H278.767V214.097H274.114V218H273.057ZM284.462 218.136C283.871 218.136 283.353 217.996 282.907 217.714C282.464 217.433 282.117 217.04 281.867 216.534C281.62 216.028 281.496 215.437 281.496 214.761C281.496 214.08 281.62 213.484 281.867 212.976C282.117 212.467 282.464 212.072 282.907 211.791C283.353 211.51 283.871 211.369 284.462 211.369C285.053 211.369 285.57 211.51 286.013 211.791C286.46 212.072 286.806 212.467 287.053 212.976C287.303 213.484 287.428 214.08 287.428 214.761C287.428 215.437 287.303 216.028 287.053 216.534C286.806 217.04 286.46 217.433 286.013 217.714C285.57 217.996 285.053 218.136 284.462 218.136ZM284.462 217.233C284.911 217.233 285.281 217.118 285.57 216.888C285.86 216.658 286.075 216.355 286.214 215.98C286.353 215.605 286.423 215.199 286.423 214.761C286.423 214.324 286.353 213.916 286.214 213.538C286.075 213.161 285.86 212.855 285.57 212.622C285.281 212.389 284.911 212.273 284.462 212.273C284.013 212.273 283.644 212.389 283.354 212.622C283.065 212.855 282.85 213.161 282.711 213.538C282.572 213.916 282.502 214.324 282.502 214.761C282.502 215.199 282.572 215.605 282.711 215.98C282.85 216.355 283.065 216.658 283.354 216.888C283.644 217.118 284.013 217.233 284.462 217.233ZM290.224 218L288.229 211.455H289.286L290.701 216.466H290.769L292.167 211.455H293.241L294.621 216.449H294.69L296.104 211.455H297.161L295.167 218H294.178L292.746 212.972H292.644L291.212 218H290.224ZM306.502 212.92L305.599 213.176C305.542 213.026 305.458 212.879 305.347 212.737C305.239 212.592 305.092 212.473 304.904 212.379C304.717 212.286 304.477 212.239 304.184 212.239C303.783 212.239 303.45 212.331 303.183 212.516C302.918 212.697 302.786 212.929 302.786 213.21C302.786 213.46 302.877 213.658 303.059 213.803C303.241 213.947 303.525 214.068 303.911 214.165L304.883 214.403C305.468 214.545 305.904 214.763 306.191 215.055C306.478 215.345 306.621 215.719 306.621 216.176C306.621 216.551 306.513 216.886 306.298 217.182C306.085 217.477 305.786 217.71 305.403 217.881C305.019 218.051 304.573 218.136 304.065 218.136C303.397 218.136 302.844 217.991 302.407 217.702C301.969 217.412 301.692 216.989 301.576 216.432L302.531 216.193C302.621 216.545 302.793 216.81 303.046 216.986C303.302 217.162 303.636 217.25 304.048 217.25C304.516 217.25 304.888 217.151 305.164 216.952C305.442 216.75 305.582 216.509 305.582 216.227C305.582 216 305.502 215.81 305.343 215.656C305.184 215.5 304.94 215.384 304.61 215.307L303.519 215.051C302.92 214.909 302.479 214.689 302.198 214.391C301.92 214.089 301.781 213.713 301.781 213.261C301.781 212.892 301.884 212.565 302.092 212.281C302.302 211.997 302.587 211.774 302.948 211.612C303.312 211.45 303.724 211.369 304.184 211.369C304.832 211.369 305.34 211.511 305.71 211.795C306.082 212.08 306.346 212.455 306.502 212.92ZM310.88 218.136C310.249 218.136 309.705 217.997 309.248 217.719C308.793 217.438 308.442 217.045 308.195 216.543C307.951 216.037 307.828 215.449 307.828 214.778C307.828 214.108 307.951 213.517 308.195 213.006C308.442 212.491 308.786 212.091 309.226 211.804C309.669 211.514 310.186 211.369 310.777 211.369C311.118 211.369 311.455 211.426 311.787 211.54C312.12 211.653 312.422 211.838 312.695 212.094C312.968 212.347 313.185 212.682 313.347 213.099C313.509 213.517 313.59 214.031 313.59 214.642V215.068H308.544V214.199H312.567C312.567 213.83 312.493 213.5 312.346 213.21C312.201 212.92 311.993 212.692 311.723 212.524C311.456 212.357 311.141 212.273 310.777 212.273C310.377 212.273 310.03 212.372 309.738 212.571C309.448 212.767 309.225 213.023 309.069 213.338C308.912 213.653 308.834 213.991 308.834 214.352V214.932C308.834 215.426 308.919 215.845 309.09 216.189C309.263 216.53 309.503 216.79 309.81 216.969C310.117 217.145 310.473 217.233 310.88 217.233C311.144 217.233 311.382 217.196 311.596 217.122C311.811 217.045 311.998 216.932 312.154 216.781C312.31 216.628 312.431 216.437 312.516 216.21L313.488 216.483C313.385 216.812 313.213 217.102 312.972 217.352C312.73 217.599 312.432 217.793 312.077 217.932C311.722 218.068 311.323 218.136 310.88 218.136ZM317.779 218.136C317.165 218.136 316.637 217.991 316.194 217.702C315.75 217.412 315.409 217.013 315.171 216.504C314.932 215.996 314.813 215.415 314.813 214.761C314.813 214.097 314.935 213.51 315.179 213.001C315.426 212.49 315.77 212.091 316.211 211.804C316.654 211.514 317.171 211.369 317.762 211.369C318.222 211.369 318.637 211.455 319.006 211.625C319.375 211.795 319.678 212.034 319.914 212.341C320.15 212.648 320.296 213.006 320.353 213.415H319.347C319.27 213.116 319.1 212.852 318.836 212.622C318.574 212.389 318.222 212.273 317.779 212.273C317.387 212.273 317.043 212.375 316.748 212.58C316.455 212.781 316.226 213.067 316.061 213.436C315.9 213.803 315.819 214.233 315.819 214.727C315.819 215.233 315.898 215.673 316.057 216.048C316.219 216.423 316.446 216.714 316.739 216.922C317.034 217.129 317.381 217.233 317.779 217.233C318.04 217.233 318.277 217.188 318.49 217.097C318.703 217.006 318.884 216.875 319.032 216.705C319.179 216.534 319.284 216.33 319.347 216.091H320.353C320.296 216.477 320.155 216.825 319.931 217.135C319.709 217.442 319.415 217.686 319.049 217.868C318.685 218.047 318.262 218.136 317.779 218.136ZM325.948 215.324V211.455H326.953V218H325.948V216.892H325.88C325.726 217.224 325.488 217.507 325.164 217.74C324.84 217.97 324.431 218.085 323.936 218.085C323.527 218.085 323.164 217.996 322.846 217.817C322.527 217.635 322.277 217.362 322.096 216.999C321.914 216.632 321.823 216.17 321.823 215.614V211.455H322.828V215.545C322.828 216.023 322.962 216.403 323.229 216.688C323.499 216.972 323.843 217.114 324.26 217.114C324.51 217.114 324.765 217.05 325.023 216.922C325.284 216.794 325.503 216.598 325.679 216.334C325.858 216.07 325.948 215.733 325.948 215.324ZM328.795 218V211.455H329.767V212.443H329.835C329.955 212.119 330.17 211.857 330.483 211.655C330.795 211.453 331.148 211.352 331.54 211.352C331.614 211.352 331.706 211.354 331.817 211.357C331.928 211.359 332.011 211.364 332.068 211.369V212.392C332.034 212.384 331.956 212.371 331.834 212.354C331.714 212.334 331.588 212.324 331.455 212.324C331.136 212.324 330.852 212.391 330.602 212.524C330.355 212.655 330.159 212.837 330.014 213.07C329.872 213.3 329.801 213.562 329.801 213.858V218H328.795ZM335.805 218.136C335.175 218.136 334.631 217.997 334.173 217.719C333.719 217.438 333.368 217.045 333.121 216.543C332.876 216.037 332.754 215.449 332.754 214.778C332.754 214.108 332.876 213.517 333.121 213.006C333.368 212.491 333.712 212.091 334.152 211.804C334.595 211.514 335.112 211.369 335.703 211.369C336.044 211.369 336.381 211.426 336.713 211.54C337.045 211.653 337.348 211.838 337.621 212.094C337.893 212.347 338.111 212.682 338.273 213.099C338.435 213.517 338.516 214.031 338.516 214.642V215.068H333.47V214.199H337.493C337.493 213.83 337.419 213.5 337.271 213.21C337.126 212.92 336.919 212.692 336.649 212.524C336.382 212.357 336.067 212.273 335.703 212.273C335.303 212.273 334.956 212.372 334.663 212.571C334.374 212.767 334.151 213.023 333.994 213.338C333.838 213.653 333.76 213.991 333.76 214.352V214.932C333.76 215.426 333.845 215.845 334.016 216.189C334.189 216.53 334.429 216.79 334.736 216.969C335.043 217.145 335.399 217.233 335.805 217.233C336.07 217.233 336.308 217.196 336.521 217.122C336.737 217.045 336.923 216.932 337.08 216.781C337.236 216.628 337.357 216.437 337.442 216.21L338.413 216.483C338.311 216.812 338.139 217.102 337.898 217.352C337.656 217.599 337.358 217.793 337.003 217.932C336.648 218.068 336.249 218.136 335.805 218.136ZM343.42 218V211.455H344.426V218H343.42ZM343.932 210.364C343.736 210.364 343.567 210.297 343.425 210.163C343.286 210.03 343.216 209.869 343.216 209.682C343.216 209.494 343.286 209.334 343.425 209.2C343.567 209.067 343.736 209 343.932 209C344.128 209 344.295 209.067 344.435 209.2C344.577 209.334 344.648 209.494 344.648 209.682C344.648 209.869 344.577 210.03 344.435 210.163C344.295 210.297 344.128 210.364 343.932 210.364ZM350.904 212.92L350.001 213.176C349.944 213.026 349.86 212.879 349.75 212.737C349.642 212.592 349.494 212.473 349.306 212.379C349.119 212.286 348.879 212.239 348.586 212.239C348.186 212.239 347.852 212.331 347.585 212.516C347.321 212.697 347.189 212.929 347.189 213.21C347.189 213.46 347.279 213.658 347.461 213.803C347.643 213.947 347.927 214.068 348.314 214.165L349.285 214.403C349.87 214.545 350.306 214.763 350.593 215.055C350.88 215.345 351.024 215.719 351.024 216.176C351.024 216.551 350.916 216.886 350.7 217.182C350.487 217.477 350.189 217.71 349.805 217.881C349.422 218.051 348.975 218.136 348.467 218.136C347.799 218.136 347.247 217.991 346.809 217.702C346.372 217.412 346.095 216.989 345.978 216.432L346.933 216.193C347.024 216.545 347.196 216.81 347.449 216.986C347.704 217.162 348.038 217.25 348.45 217.25C348.919 217.25 349.291 217.151 349.566 216.952C349.845 216.75 349.984 216.509 349.984 216.227C349.984 216 349.904 215.81 349.745 215.656C349.586 215.5 349.342 215.384 349.012 215.307L347.922 215.051C347.322 214.909 346.882 214.689 346.6 214.391C346.322 214.089 346.183 213.713 346.183 213.261C346.183 212.892 346.287 212.565 346.494 212.281C346.704 211.997 346.99 211.774 347.35 211.612C347.714 211.45 348.126 211.369 348.586 211.369C349.234 211.369 349.743 211.511 350.112 211.795C350.484 212.08 350.748 212.455 350.904 212.92ZM355.913 218V211.455H356.918V218H355.913ZM356.424 210.364C356.228 210.364 356.059 210.297 355.917 210.163C355.778 210.03 355.708 209.869 355.708 209.682C355.708 209.494 355.778 209.334 355.917 209.2C356.059 209.067 356.228 209 356.424 209C356.62 209 356.788 209.067 356.927 209.2C357.069 209.334 357.14 209.494 357.14 209.682C357.14 209.869 357.069 210.03 356.927 210.163C356.788 210.297 356.62 210.364 356.424 210.364ZM361.607 211.455V212.307H358.215V211.455H361.607ZM359.203 209.886H360.209V216.125C360.209 216.409 360.25 216.622 360.333 216.764C360.418 216.903 360.526 216.997 360.657 217.045C360.79 217.091 360.931 217.114 361.078 217.114C361.189 217.114 361.28 217.108 361.351 217.097C361.422 217.082 361.479 217.071 361.522 217.062L361.726 217.966C361.658 217.991 361.563 218.017 361.441 218.043C361.319 218.071 361.164 218.085 360.976 218.085C360.692 218.085 360.414 218.024 360.141 217.902C359.871 217.78 359.647 217.594 359.468 217.344C359.292 217.094 359.203 216.778 359.203 216.398V209.886ZM364.432 215.545V215.494C364.438 214.952 364.495 214.52 364.603 214.199C364.711 213.878 364.864 213.618 365.063 213.419C365.262 213.22 365.5 213.037 365.779 212.869C365.946 212.767 366.097 212.646 366.23 212.507C366.364 212.365 366.469 212.202 366.546 212.017C366.625 211.832 366.665 211.628 366.665 211.403C366.665 211.125 366.6 210.884 366.469 210.679C366.338 210.474 366.164 210.317 365.945 210.206C365.726 210.095 365.483 210.04 365.216 210.04C364.983 210.04 364.759 210.088 364.543 210.185C364.327 210.281 364.147 210.433 364.002 210.641C363.857 210.848 363.773 211.119 363.75 211.455H362.676C362.699 210.972 362.824 210.558 363.051 210.214C363.282 209.871 363.584 209.608 363.959 209.426C364.337 209.244 364.756 209.153 365.216 209.153C365.716 209.153 366.151 209.253 366.52 209.452C366.892 209.651 367.179 209.923 367.381 210.27C367.586 210.616 367.688 211.011 367.688 211.455C367.688 211.767 367.64 212.05 367.543 212.303C367.449 212.555 367.313 212.781 367.134 212.98C366.958 213.179 366.745 213.355 366.495 213.509C366.245 213.665 366.044 213.83 365.894 214.003C365.743 214.173 365.634 214.376 365.566 214.612C365.498 214.848 365.461 215.142 365.455 215.494V215.545H364.432ZM364.978 218.068C364.767 218.068 364.587 217.993 364.436 217.842C364.286 217.692 364.211 217.511 364.211 217.301C364.211 217.091 364.286 216.911 364.436 216.76C364.587 216.609 364.767 216.534 364.978 216.534C365.188 216.534 365.368 216.609 365.519 216.76C365.669 216.911 365.745 217.091 365.745 217.301C365.745 217.44 365.709 217.568 365.638 217.685C365.57 217.801 365.478 217.895 365.361 217.966C365.248 218.034 365.12 218.068 364.978 218.068Z" fill="#979797"/>
</g>
<g filter="url(#filter6_d_437_2771)">
<rect x="15" y="305" width="171" height="85" rx="8" fill="white"/>
</g>
<rect x="30" y="325" width="80" height="5" rx="2.5" fill="#EEEEEE"/>
<rect x="30" y="345" width="141" height="5" rx="2.5" fill="#EEEEEE"/>
<rect x="30" y="355" width="141" height="5" rx="2.5" fill="#EEEEEE"/>
<rect x="30" y="365" width="141" height="5" rx="2.5" fill="#EEEEEE"/>
<rect x="30" y="335" width="141" height="5" rx="2.5" fill="#EEEEEE"/>
<g filter="url(#filter7_d_437_2771)">
<rect x="214" y="305" width="171" height="85" rx="8" fill="white"/>
</g>
<rect x="229" y="325" width="80" height="5" rx="2.5" fill="#EEEEEE"/>
<rect x="229" y="345" width="141" height="5" rx="2.5" fill="#EEEEEE"/>
<rect x="229" y="355" width="141" height="5" rx="2.5" fill="#EEEEEE"/>
<rect x="229" y="365" width="141" height="5" rx="2.5" fill="#EEEEEE"/>
<rect x="229" y="335" width="141" height="5" rx="2.5" fill="#EEEEEE"/>
<g filter="url(#filter8_d_437_2771)">
<rect x="414" y="305" width="171" height="85" rx="8" fill="white"/>
</g>
<rect x="429" y="325" width="80" height="5" rx="2.5" fill="#EEEEEE"/>
<rect x="429" y="345" width="141" height="5" rx="2.5" fill="#EEEEEE"/>
<rect x="429" y="355" width="141" height="5" rx="2.5" fill="#EEEEEE"/>
<rect x="429" y="365" width="141" height="5" rx="2.5" fill="#EEEEEE"/>
<rect x="429" y="335" width="141" height="5" rx="2.5" fill="#EEEEEE"/>
<circle cx="25.5" cy="25.5" r="25.5" transform="matrix(-1 0 0 1 325 110)" fill="#EFEDFF"/>
<path d="M304 145H311V147H304V145ZM306 149H309V151H306V149ZM311 143H309C309 141.9 309.4 141 310.2 140.2L310.7 139.7C311.5 138.9 312 137.7 312 136.5C312 134 310 132 307.5 132C305 132 303 134 303 136.5C303 137.7 303.5 138.8 304.3 139.7L304.8 140.2C305.6 141 306 141.9 306 143H304C304 142.5 303.8 142 303.4 141.6L302.9 141.1C301.7 139.9 301 138.2 301 136.5C301 132.9 303.9 130 307.5 130C311.1 130 314 132.9 314 136.5C314 138.2 313.3 139.9 312.1 141.1L311.6 141.6C311.2 142 311 142.5 311 143ZM290 142H298V144H290V142Z" fill="#8686C3"/>
<path d="M296 140C296.552 140 297 139.552 297 139C297 138.448 296.552 138 296 138C295.448 138 295 138.448 295 139C295 139.552 295.448 140 296 140Z" fill="#8686C3"/>
<path d="M290 138H293V140H290V138ZM290 134H297V136H290V134ZM294 130H301V132H294V130Z" fill="#8686C3"/>
<path d="M291 132C291.552 132 292 131.552 292 131C292 130.448 291.552 130 291 130C290.448 130 290 130.448 290 131C290 131.552 290.448 132 291 132Z" fill="#8686C3"/>
<path d="M300 126H304V128H300V126Z" fill="#8686C3"/>
<path d="M297 128C297.552 128 298 127.552 298 127C298 126.448 297.552 126 297 126C296.448 126 296 126.448 296 127C296 127.552 296.448 128 297 128Z" fill="#8686C3"/>
<path d="M290 126H294V128H290V126Z" fill="#8686C3"/>
<path d="M302 148H288V124H306V128H308V124C308 122.9 307.1 122 306 122H288C286.9 122 286 122.9 286 124V148C286 149.1 286.9 150 288 150H302V148Z" fill="#8686C3"/>
<defs>
<filter id="filter0_d_437_2771" x="7" y="106" width="202" height="66" filterUnits="userSpaceOnUse" color-interpolation-filters="sRGB">
<feFlood flood-opacity="0" result="BackgroundImageFix"/>
<feColorMatrix in="SourceAlpha" type="matrix" values="0 0 0 0 0 0 0 0 0 0 0 0 0 0 0 0 0 0 127 0" result="hardAlpha"/>
<feOffset dy="4"/>
<feGaussianBlur stdDeviation="4"/>
<feComposite in2="hardAlpha" operator="out"/>
<feColorMatrix type="matrix" values="0 0 0 0 0 0 0 0 0 0 0 0 0 0 0 0 0 0 0.2 0"/>
<feBlend mode="normal" in2="BackgroundImageFix" result="effect1_dropShadow_437_2771"/>
<feBlend mode="normal" in="SourceGraphic" in2="effect1_dropShadow_437_2771" result="shape"/>
</filter>
<filter id="filter1_d_437_2771" x="200" y="29" width="80" height="80" filterUnits="userSpaceOnUse" color-interpolation-filters="sRGB">
<feFlood flood-opacity="0" result="BackgroundImageFix"/>
<feColorMatrix in="SourceAlpha" type="matrix" values="0 0 0 0 0 0 0 0 0 0 0 0 0 0 0 0 0 0 127 0" result="hardAlpha"/>
<feOffset dy="4"/>
<feGaussianBlur stdDeviation="7.5"/>
<feComposite in2="hardAlpha" operator="out"/>
<feColorMatrix type="matrix" values="0 0 0 0 0 0 0 0 0 0 0 0 0 0 0 0 0 0 0.15 0"/>
<feBlend mode="normal" in2="BackgroundImageFix" result="effect1_dropShadow_437_2771"/>
<feBlend mode="normal" in="SourceGraphic" in2="effect1_dropShadow_437_2771" result="shape"/>
</filter>
<filter id="filter2_d_437_2771" x="260" y="29" width="80" height="80" filterUnits="userSpaceOnUse" color-interpolation-filters="sRGB">
<feFlood flood-opacity="0" result="BackgroundImageFix"/>
<feColorMatrix in="SourceAlpha" type="matrix" values="0 0 0 0 0 0 0 0 0 0 0 0 0 0 0 0 0 0 127 0" result="hardAlpha"/>
<feOffset dy="4"/>
<feGaussianBlur stdDeviation="7.5"/>
<feComposite in2="hardAlpha" operator="out"/>
<feColorMatrix type="matrix" values="0 0 0 0 0 0 0 0 0 0 0 0 0 0 0 0 0 0 0.15 0"/>
<feBlend mode="normal" in2="BackgroundImageFix" result="effect1_dropShadow_437_2771"/>
<feBlend mode="normal" in="SourceGraphic" in2="effect1_dropShadow_437_2771" result="shape"/>
</filter>
<filter id="filter3_d_437_2771" x="320" y="29" width="80" height="80" filterUnits="userSpaceOnUse" color-interpolation-filters="sRGB">
<feFlood flood-opacity="0" result="BackgroundImageFix"/>
<feColorMatrix in="SourceAlpha" type="matrix" values="0 0 0 0 0 0 0 0 0 0 0 0 0 0 0 0 0 0 127 0" result="hardAlpha"/>
<feOffset dy="4"/>
<feGaussianBlur stdDeviation="7.5"/>
<feComposite in2="hardAlpha" operator="out"/>
<feColorMatrix type="matrix" values="0 0 0 0 0 0 0 0 0 0 0 0 0 0 0 0 0 0 0.15 0"/>
<feBlend mode="normal" in2="BackgroundImageFix" result="effect1_dropShadow_437_2771"/>
<feBlend mode="normal" in="SourceGraphic" in2="effect1_dropShadow_437_2771" result="shape"/>
</filter>
<filter id="filter4_d_437_2771" x="391" y="106" width="202" height="66" filterUnits="userSpaceOnUse" color-interpolation-filters="sRGB">
<feFlood flood-opacity="0" result="BackgroundImageFix"/>
<feColorMatrix in="SourceAlpha" type="matrix" values="0 0 0 0 0 0 0 0 0 0 0 0 0 0 0 0 0 0 127 0" result="hardAlpha"/>
<feOffset dy="4"/>
<feGaussianBlur stdDeviation="4"/>
<feComposite in2="hardAlpha" operator="out"/>
<feColorMatrix type="matrix" values="0 0 0 0 0 0 0 0 0 0 0 0 0 0 0 0 0 0 0.2 0"/>
<feBlend mode="normal" in2="BackgroundImageFix" result="effect1_dropShadow_437_2771"/>
<feBlend mode="normal" in="SourceGraphic" in2="effect1_dropShadow_437_2771" result="shape"/>
</filter>
<filter id="filter5_d_437_2771" x="199" y="176" width="202" height="66" filterUnits="userSpaceOnUse" color-interpolation-filters="sRGB">
<feFlood flood-opacity="0" result="BackgroundImageFix"/>
<feColorMatrix in="SourceAlpha" type="matrix" values="0 0 0 0 0 0 0 0 0 0 0 0 0 0 0 0 0 0 127 0" result="hardAlpha"/>
<feOffset dy="4"/>
<feGaussianBlur stdDeviation="4"/>
<feComposite in2="hardAlpha" operator="out"/>
<feColorMatrix type="matrix" values="0 0 0 0 0 0 0 0 0 0 0 0 0 0 0 0 0 0 0.2 0"/>
<feBlend mode="normal" in2="BackgroundImageFix" result="effect1_dropShadow_437_2771"/>
<feBlend mode="normal" in="SourceGraphic" in2="effect1_dropShadow_437_2771" result="shape"/>
</filter>
<filter id="filter6_d_437_2771" x="0" y="294" width="201" height="115" filterUnits="userSpaceOnUse" color-interpolation-filters="sRGB">
<feFlood flood-opacity="0" result="BackgroundImageFix"/>
<feColorMatrix in="SourceAlpha" type="matrix" values="0 0 0 0 0 0 0 0 0 0 0 0 0 0 0 0 0 0 127 0" result="hardAlpha"/>
<feOffset dy="4"/>
<feGaussianBlur stdDeviation="7.5"/>
<feComposite in2="hardAlpha" operator="out"/>
<feColorMatrix type="matrix" values="0 0 0 0 0 0 0 0 0 0 0 0 0 0 0 0 0 0 0.15 0"/>
<feBlend mode="normal" in2="BackgroundImageFix" result="effect1_dropShadow_437_2771"/>
<feBlend mode="normal" in="SourceGraphic" in2="effect1_dropShadow_437_2771" result="shape"/>
</filter>
<filter id="filter7_d_437_2771" x="199" y="294" width="201" height="115" filterUnits="userSpaceOnUse" color-interpolation-filters="sRGB">
<feFlood flood-opacity="0" result="BackgroundImageFix"/>
<feColorMatrix in="SourceAlpha" type="matrix" values="0 0 0 0 0 0 0 0 0 0 0 0 0 0 0 0 0 0 127 0" result="hardAlpha"/>
<feOffset dy="4"/>
<feGaussianBlur stdDeviation="7.5"/>
<feComposite in2="hardAlpha" operator="out"/>
<feColorMatrix type="matrix" values="0 0 0 0 0 0 0 0 0 0 0 0 0 0 0 0 0 0 0.15 0"/>
<feBlend mode="normal" in2="BackgroundImageFix" result="effect1_dropShadow_437_2771"/>
<feBlend mode="normal" in="SourceGraphic" in2="effect1_dropShadow_437_2771" result="shape"/>
</filter>
<filter id="filter8_d_437_2771" x="399" y="294" width="201" height="115" filterUnits="userSpaceOnUse" color-interpolation-filters="sRGB">
<feFlood flood-opacity="0" result="BackgroundImageFix"/>
<feColorMatrix in="SourceAlpha" type="matrix" values="0 0 0 0 0 0 0 0 0 0 0 0 0 0 0 0 0 0 127 0" result="hardAlpha"/>
<feOffset dy="4"/>
<feGaussianBlur stdDeviation="7.5"/>
<feComposite in2="hardAlpha" operator="out"/>
<feColorMatrix type="matrix" values="0 0 0 0 0 0 0 0 0 0 0 0 0 0 0 0 0 0 0.15 0"/>
<feBlend mode="normal" in2="BackgroundImageFix" result="effect1_dropShadow_437_2771"/>
<feBlend mode="normal" in="SourceGraphic" in2="effect1_dropShadow_437_2771" result="shape"/>
</filter>
<clipPath id="clip0_437_2771">
<rect width="34" height="34" fill="white" transform="translate(23 118)"/>
</clipPath>
<clipPath id="clip1_437_2771">
<rect width="34" height="34" fill="white" transform="translate(283 48)"/>
</clipPath>
</defs>
</svg>
